<mxfile host="65bd71144e">
    <diagram id="V-kYW9GV2uXmBUqnUB78" name="Página-1">
        <mxGraphModel dx="8128" dy="-348" grid="0" gridSize="10" guides="0" tooltips="1" connect="1" arrows="1" fold="1" page="0" pageScale="1" pageWidth="827" pageHeight="1169" math="0" shadow="0">
            <root>
                <mxCell id="0"/>
                <mxCell id="1" parent="0"/>
                <mxCell id="109" style="edgeStyle=orthogonalEdgeStyle;html=1;strokeColor=#33FF33;strokeWidth=3;fontSize=21;" parent="1" target="108" edge="1">
                    <mxGeometry relative="1" as="geometry">
                        <mxPoint x="-812" y="3092" as="sourcePoint"/>
                    </mxGeometry>
                </mxCell>
                <mxCell id="113" style="edgeStyle=orthogonalEdgeStyle;html=1;entryX=0.5;entryY=0;entryDx=0;entryDy=0;strokeColor=#007FFF;strokeWidth=3;fontSize=21;" parent="1" target="99" edge="1">
                    <mxGeometry relative="1" as="geometry">
                        <mxPoint x="-890.5000000000005" y="3306.0011764705882" as="sourcePoint"/>
                    </mxGeometry>
                </mxCell>
                <mxCell id="117" style="edgeStyle=orthogonalEdgeStyle;html=1;strokeColor=#FF0080;strokeWidth=4;fontSize=21;" parent="1" target="116" edge="1">
                    <mxGeometry relative="1" as="geometry">
                        <mxPoint x="-696.9988235294122" y="3248.9999999999995" as="sourcePoint"/>
                    </mxGeometry>
                </mxCell>
                <mxCell id="110" value="ng g c components/lista-productos" style="rounded=1;whiteSpace=wrap;html=1;strokeColor=#FFFFFF;strokeWidth=1;fillColor=none;fontSize=21;arcSize=0;" parent="1" vertex="1">
                    <mxGeometry x="-2470" y="3173" width="345" height="52" as="geometry"/>
                </mxCell>
                <mxCell id="127" value="" style="group;verticalAlign=top;labelBackgroundColor=none;" vertex="1" connectable="0" parent="1">
                    <mxGeometry x="-1258" y="2792" width="467" height="280" as="geometry"/>
                </mxCell>
                <mxCell id="129" value="" style="group" vertex="1" connectable="0" parent="127">
                    <mxGeometry width="467" height="280" as="geometry"/>
                </mxCell>
                <mxCell id="126" value="" style="rounded=1;whiteSpace=wrap;html=1;strokeWidth=3;fontSize=22;fontColor=#000000;fillColor=none;" vertex="1" parent="129">
                    <mxGeometry x="16" width="440" height="280" as="geometry"/>
                </mxCell>
                <mxCell id="120" value="Componente&lt;br style=&quot;font-size: 15px;&quot;&gt;PADRE" style="whiteSpace=wrap;html=1;aspect=fixed;strokeWidth=3;fontStyle=1;fontSize=15;fillColor=#f0a30a;fontColor=#000000;strokeColor=#BD7000;" vertex="1" parent="129">
                    <mxGeometry x="69" y="102" width="115" height="115" as="geometry"/>
                </mxCell>
                <mxCell id="121" value="Componente&lt;br style=&quot;font-size: 15px;&quot;&gt;HIJO" style="whiteSpace=wrap;html=1;aspect=fixed;strokeWidth=3;fontStyle=1;fontSize=15;fillColor=#ffe6cc;strokeColor=#d79b00;fontColor=#000000;" vertex="1" parent="129">
                    <mxGeometry x="281" y="102" width="115" height="115" as="geometry"/>
                </mxCell>
                <mxCell id="123" value="&lt;font color=&quot;#ffffff&quot; style=&quot;font-size: 22px;&quot;&gt;@input&lt;br style=&quot;font-size: 22px;&quot;&gt;&lt;/font&gt;" style="text;strokeColor=none;align=center;fillColor=none;html=1;verticalAlign=middle;whiteSpace=wrap;rounded=0;strokeWidth=3;fontSize=22;fontColor=#000000;" vertex="1" parent="129">
                    <mxGeometry x="171" y="10" width="121" height="35" as="geometry"/>
                </mxCell>
                <mxCell id="124" value="" style="triangle;whiteSpace=wrap;html=1;strokeWidth=3;fontSize=22;fillColor=#f5f5f5;strokeColor=#666666;fontColor=#333333;" vertex="1" parent="129">
                    <mxGeometry x="207" y="145" width="22.5" height="30" as="geometry"/>
                </mxCell>
                <mxCell id="125" value="&lt;font color=&quot;#ffffff&quot; style=&quot;font-size: 22px;&quot;&gt;Data flow&lt;br style=&quot;font-size: 22px;&quot;&gt;&lt;/font&gt;" style="text;strokeColor=none;align=center;fillColor=none;html=1;verticalAlign=middle;whiteSpace=wrap;rounded=0;strokeWidth=3;fontSize=22;fontColor=#000000;" vertex="1" parent="129">
                    <mxGeometry x="176" y="53" width="109" height="35" as="geometry"/>
                </mxCell>
                <mxCell id="128" value="&lt;font color=&quot;#ffffff&quot; style=&quot;font-size: 14px;&quot;&gt;Decorador dedicado a la comunicación entre componentes, especificamente al envio de datos de padre a hijo&lt;br style=&quot;font-size: 14px;&quot;&gt;&lt;/font&gt;" style="text;strokeColor=none;align=center;fillColor=none;html=1;verticalAlign=middle;whiteSpace=wrap;rounded=0;strokeWidth=3;fontSize=14;fontColor=#000000;" vertex="1" parent="129">
                    <mxGeometry y="220" width="467" height="60" as="geometry"/>
                </mxCell>
                <mxCell id="140" value="1" style="text;strokeColor=none;align=center;fillColor=none;html=1;verticalAlign=middle;whiteSpace=wrap;rounded=0;labelBackgroundColor=none;strokeWidth=1;fontSize=17;fontColor=#0000FF;" vertex="1" parent="129">
                    <mxGeometry x="310" y="186" width="60" height="30" as="geometry"/>
                </mxCell>
                <mxCell id="141" value="2" style="text;strokeColor=none;align=center;fillColor=none;html=1;verticalAlign=middle;whiteSpace=wrap;rounded=0;labelBackgroundColor=none;strokeWidth=1;fontSize=17;fontColor=#0000FF;" vertex="1" parent="129">
                    <mxGeometry x="94" y="186" width="60" height="30" as="geometry"/>
                </mxCell>
                <mxCell id="130" style="edgeStyle=orthogonalEdgeStyle;html=1;fontSize=14;fontColor=#000000;" edge="1" parent="1" source="120" target="110">
                    <mxGeometry relative="1" as="geometry"/>
                </mxCell>
                <mxCell id="131" value="ng g c components/vista-producto" style="rounded=1;whiteSpace=wrap;html=1;strokeColor=#FFFFFF;strokeWidth=1;fillColor=none;fontSize=21;arcSize=0;" vertex="1" parent="1">
                    <mxGeometry x="92" y="3179" width="345" height="52" as="geometry"/>
                </mxCell>
                <mxCell id="132" style="edgeStyle=orthogonalEdgeStyle;html=1;fontSize=14;fontColor=#000000;" edge="1" parent="1" source="121" target="131">
                    <mxGeometry relative="1" as="geometry"/>
                </mxCell>
                <mxCell id="167" value="" style="group;strokeColor=none;spacingTop=0;glass=0;perimeterSpacing=0;labelPadding=0;container=0;perimeter=rectanglePerimeter;" vertex="1" connectable="0" parent="1">
                    <mxGeometry x="-538" y="3294" width="1912" height="575" as="geometry"/>
                </mxCell>
                <mxCell id="135" value="" style="shape=image;verticalLabelPosition=bottom;labelBackgroundColor=default;verticalAlign=top;aspect=fixed;imageAspect=0;image=data:image/png,iVBORw0KGgoAAAANSUhEUgAAAj8AAAH+CAYAAABz8G+7AAAAAXNSR0IArs4c6QAAAARnQU1BAACxjwv8YQUAAAAJcEhZcwAADsMAAA7DAcdvqGQAAABhaVRYdFNuaXBNZXRhZGF0YQAAAAAAeyJjbGlwUG9pbnRzIjpbeyJ4IjowLCJ5IjowfSx7IngiOjU3NSwieSI6MH0seyJ4Ijo1NzUsInkiOjUxMH0seyJ4IjowLCJ5Ijo1MTB9XX131PWzAACR10lEQVR4Xu3dC3RU1d0//K/Vqg+RScAYI8I/gcQLyC2CUJSLNKQ1K1QXRqRCFX3LpVK1Xirmz8XFkssbrbdWxHLp663QAkaWlixsQ4qAQEWRiwiKCSQPF0NIIRkMj/poffc+Z5+Zc86cmcxMZsJMzvez1oE5e/acc+bMZM5v9v7tPedkZWV9DyIiIiKX+IH6n4iIiMgVGPwQERGRqzD4ISIiIldh8ENERESuwuCHiIiIXIXBDxEREbkKgx8iIiJyFQY/RERE5CoMfoiIiMhVGPwQERGRqzD4ISIiIldh8ENERESuwuCHiIiIXIXBDxEREbkKgx8iIiJyFQY/RERE5CoMfoiIiMhVGPwQERGRqzD4ISIiIldh8ENERESuck5WVtb36nbsXfIwlt3aDx1Qi/LFj2O5KnazyXNOYOaPzohbHbD1d5dgfKVeTpSMnlxUi3E95K00rLwpFY9ppa03oehVFHVVK9KRdRhf/le1ktiGjyzCQ3keNO8sxy82eFWpnQezJhVhgEetevfguWWfYJNaTVy244YXO1aUY16dWm0z6jhOvYcxZYdVWeK7u/gO3JIFHKz4Cx75WBXSWcGWn6B+jgVTX8WyG4ao9RiY2iQCH4igJwvZNzHwaUuZ83ZjdmUF8tS6u5XizspDuH/eZLUevcemyfdyFlYebMS4d5rwpCpvDT3wOYNdb07E+MVqSZLAJzzd8MzDRbi6uhxjnv2LtjxXnY2HJl2D4apG4vJi3jL9mMdUnMWgI7MbrvaIwGtL8gQ+lFjiG/yceBaTtA8vtvpIT/ZrFCG/JwZBj37xmm1aYnEho1gJfH18y5vLkalqtSePlaWLy+I36JavCqL2c1wjW3yObMRTJ/SSZLOpoUn7/3iDU6uPbLEYikttrUKbNmzGDvTFlJG+JhUK4e4b+iLFW4NNbd7i1DoHT8rX3ItTSfrebk/Y8tNmvkO3i9XN1phWIS6i45BdvRJz87v7ltW4HYUFqg6dZSV43XhtyqrEuhcflqr1WycgyT6vI3AGGbnqZiudaaxVt9qZPn0xwHMY6wO6w7zYVO1FSudUtU7BdUOfLKC5+nASdBNSoopPzo8v10c5vRsvrngWW9SqpDVtYx1ebByBX/cWNWWf/vYuvsfVbJqIGfvFDW1bV+DAm/fi6CBTHoDDNgP2G5BrNATTx/8K/Zus+5LO7P0jJm3ZhhtueEk/niCMepH7DitWHsH1/85E9rQLVFmkZIuCCnymlKiy4PKWHMLoHLUiNG5bgBdmLdVXZBBVDKwtrcfQkuuRhiqszV+FzDdnYKD8/PXtQ98nyrqjostuTB5ifDOV9QuwU63p1PGpNf2i3w/rKtSqoB0TxLZXd8P92n51NWL7ry9SK4rsqvLvz3b8gnZ/r71YeuthFJj2669nPx47p+cQY9p5zgg4D1LLx68L65wVLNfua7SdR+2x6VvFPiYAtvNpZ99vRPKbsefRBtSvycKoxaosKrK7uRAZwf7Oej6BFcMvwS7754FTXmHIzwP9s+DK2j9iQ9qvtO1of9snC8X2xZVVBHJyH7FufZI5H6NOBskF6jMUa8QXmLeefQ+v+Na7aXfpDvvv08jus6FAxV/wVrqeZ6Sz1xMyr8Gfx/dFilr18+fsaPkonWy5R+pxx51yVLTjSw2e8xOwT3t+kClvZ4vHUjdUvpSeU9UU+BwVI+fK4LQtex3U2nKHTM/tyA16no7O4dyq10FLfdM41YnAiJl47YFrkVLzNoofeVUVUqzFp+XH1901EeVHVJmT1BG4J20jxm8S3/K6jsCyAhnk/BG7TgPZPX6uKkkd0P9WPVjScwDWoaZjP/y6yF9HBi0rxAddvQiajDyB8iNZKJr6EqZfoioZuooPOC2gUnXF/jv0/hUW9AS2bLnXvw9RVX4gGtuTS3SBT4xMG6BdIGt2tRT46N0u2kXPaIEo3So+72dg9pJSVUfKwNB7M/Be/krxXHMx9M37kLtvAZZuEx8UOQMs+THZxYf0C7W2vQX4sCkXo81dOKpFKk1cQI3WqKXiVA0sOYQ7p6k6hpxxmF0i92vU84rt77a0XMmL9uQh9SI4sR5/QPde6vWYXFmIBqNlpawKaaKevk9/C4z2nLRgR9XTljgHPuEIefwm2jnrjSpVz+mctaRuVj/1vOXrrQc7/nPRPfrAp9VkIPIqVkyVS6H2Hpd/j/q6XOx/w/bPA/mZIf7Wxz+MG1SNsD8Psu7CyMY/4sW9Z9BB3F42HCJAkn/7HXDllTHM99PIFgsvPt2vX4hlsLHmYbXIfJ8Tp9Cs3SPIwOHKWl9O0Jhny7HD2w23iIvs3aqKoUfBHXio8x5rPXP+kApCIIIAfx15h7xIxytZWQQEo4ElvuMXAVqtBwPGF2GWvd83SwQa47Px6QpVt+IwUvKK8Ewfdb+FB8NzRNBSW+sQXMhgSpwL8cG1w9iWWJagr2mfRh0ZPBl13sNBeQwBOVfyeEXgAxEYafWCnFvxmshuTGN/b9U6v07hGjbkKj0IzO6DiVoJxcPZ7fbqCBzYbiQyiu9nta/5v2mldvF9kGksoz3+inLxYYWuvSC+zwo/R1HvDlqgorUWKcvL9Q+x/oPMgZQkvwGavtXt36ddDDI6x/rDLrby+ss+hSrstbWQ2GXOkxcQcaE3d7FUTMBqLagpNF0wxYfIvlW+ACANe7HadwHMQKb5wtqktx7o21uKdeurxGvUG3lanckoHCWOrXql5QJaN2uhCJLE3/Aoe56LbBHyBx51G/eiURxL+hWqoGA5hubIlg1TcKKOP23I7QFJyzVlplaVRTu01zKtS/LkQIV3/NZWtLpZ8r3tQe6IBHmeleehXt2M3DY8tcIIUpy+dAS2wGj3+z4PtmFLrfg86JimWs/C/zzo0PEENhhfaDp2EMGSv/WoQ5rv635sZHpwKZpwRPwRyZYHrZVFu1iK+055rV04dZ/gF5ZRTF7Me1+uiwDKHhTIkWK+unr3GTydfC0Rw3tmi4upuastxLZi5jAesY1ee2XLHhHceXB1T1OLi8YWhH1ci4Piv0vT7fWEUInOWpeivXVJ5lO951/31TG3zIhjlcnbnr64xXY+ZKuRv0Uo8NzquUd7sMTUsvRKmQimxLkdFWX+1uZtn+lBcM3HYLtP/Jzd4Of059hi+lCrPxm8VaXmoHW0x5aT8oGX4HL5La5nL+1DL/Dxf8UnsuXJHkidbtQ+YP3+ihniQzaurTr5X6F3qghddkfb5RWuycjrJf7omurxhSoxBAQZ4o+5aqPp237D4aD5KI373rXe93m9f1sFNyJXPLfG+mr9Pp+l2LlPfCikZuAyVaJp2oudti4gs8wRvbVuOHuQV3dMXl5tQVkYwWBiC/P4A85ZNWRebVqGqV/zrBLBjzie3B83i3dg/Nn/1vUWWxW4RPJ5cGSfqavsDBob1M14uKSTuFCeEhdGvfVCz1nxoGsncZE9qSdJh2RuGTJpKfelR+dgF+E2Tryt8+K4ummhnRMzEYyIoNCp2ytUovPdV3YT2wqdBK3VUQGoRZCAy560vmmDbOExAqdguUdNMpaNPn9r43zcVVzMLq84a0cJzyE+uHzfCM8CmQvxTi1qpgAv3NTafIgIhAhk4tUq0ngsWLeJPWAJ7bIM+QGUi9H2kVLFMcqmpTg4F+PHZSH7n99ipny/r2ybICi4xPs8GJ4uLoayhUdrvTAurKno5LttZekWk4tjzk7L9BYXc0uEB7MGtxwotJZs3bIcvyUvJhp6sHHwfaf5kPQgMqAFzUlAsOUXUcCiteSJx+TZn6d5HiRKVO4Y7RXQ0tOGKlPQVwQ92UuA+8VFYf1UVR6FL+rlB2QuetvzQSIUPEiJl3rUhWjpsdOfpz0/x1gCE4cpEciEfhH09LtQm/cne1wK2vpdFraz+Xngo1pd1AXUR12Y9cnwZPeMkZcilhUyiImCbHES//kv0uLijPhOqmgkFMvJ/HzHL3Nr1P3RGD6yrwieDuNjx8kBvThySvwnIsnWzJUUVgucQbVkaV1jvudoWpJo8kU3StrgZ0IP8RXA6DbTcnacEhT1OUPO1G6zjgoLSy0aT8ew37/yQuyV3QL9vlYFkdO7rYDs/uakZTvV1WRLWJaCdSdFw7KtindRJZ5b4HGpLrjqHRElFjt3b7VO+Nschpkvl6GsrAxP36OKEpHqagyd/F6K3o69YnHoMmuzbt0wxOXzIJ5UICSDFK3lQm/hQO2eGCQjq1YeOZrJfGEOM/DR84UipZKSvXvwVsxmMQ6V6KzT5tDxZGN4iIm0Xjkgc3sc6ogT3kO8DkYyenha2b0V1EQ8LT5/ysqeZsJzHCVn8NPzCW1oas1OY6i7ngDdofddlpEcE4pk4m+tP6ExIttwVH4J6DoicLTY2eJLWh5nG7UlgpF5Fb5EZj0ZNhejzXUKlmPsEA8at/kTnKMWsC2VAC2OyzxKKXPefRiY6sWHq1selm+xaBU+bPJgYEkMZ2RWOUoDx4YKHKUeWjeE1H34TBEKJaLJKLz3eqQ1bUWFEchWHLYFxqGG+S9FnewSsiS/tyfx+DyINQ86iWPTclhUicxHOSgvzuqiiqws/4ghOfQ6qm6v8FtE7MFDwHDwsKl9moMMNSoq6m4vI1E5xIzOmzbsgcynGjDeOtJq+Mih/tFeH+/BDq+oM9o8sqsbnpFTCkQcbKrE8ayh+HMsJ6e8pw+6aze6I78kMT+B2oO4BD/aMFM1TFWbh0MOS1fr0f5cRPZwY9irWLR5PtQ8QIpMeHxxL7QhsL59p+7Gi62YXXp5uRxCqw+rNbYZ05+7iII2XLl0KxplAGTKhxmLVabuIDnEeyVqzHXUHDDRDmeWw69DbmtRgTZMWw6JN+rpQ9Wj6aYSwdSt3bG22iHvxxb0hU0Eji/ICQct580puHoVb30QVeeCiT7VgLYPLU9JBnJqPdoZnrUh8WoblTMwsGGlbcJE8Zpb3hf63Ez6EP9AO6fI6QpMxyWW9jRLeDw+D1pLm/lZBiF1n2B9rT5EXc75ow8B14dU63PpyJ+Q0EcM3WLkkQw+heei7PbSRh95+uIhX06KfzEPJ5fJvMaxyPseyqnBc/auKi2IUY/X5iDy1zcPFX+lTA4LN903vhPWt6LbK5xkZj1R2pgSQO1XLFNgDmrkuRV1YD4faqh6NN1UH7+ndUfCIe8nYEh/uF5+Cx+pP9uUS1qXJUXBxfeHTWPhEn2iMjlfhznYST6xmOTwbNBbEOT8PWdvHpg2lmCTjJknKmx1L0i8xGySw3ZMm29HDwKingAvYmoCPocfTvXnFcVrrp9Y0Z+DnMzRLT8GOqzkNTx4XQoOrS3Gb19WhRRT7kh4Tgjn4vC/1U1KYMMw824R+OAQ3uZQU4qlusP41Bv9/C9RUQnVTsPh9d+ZSnyhE53bo4m4RQQ+8H6Etxj4xA2DnzZUVd8B4isYVrT6xx8pHuS3rbKyB3EtPsLzxb/lBGMReLK4AR6kYQdbfULQc0QCZi+WLULFsgspDtSIpJScbtacH7HPKTKfJwl+HNQ6t057Zgy2uBkZHzyP4nvmY7O6h2KP3V5tbPKcE5j5ozPiVgds/d0lMfiF93hzYbdXgknkbq8nF9VinJaWkCzv5wQQ8Jtd8e56Ul1fas0Q6veziNq7xA9+iIiIiGKI3V5ERETkKgx+iIiIyFUY/BAREZGrMPghIiIiV2HwQ0RERK7C4IeIiIhchcEPERERuQqDHyIiInIVBj9ERETkKgx+iIiIyFUY/BAREZGrMPghIiIiV2HwQ0RERK7C4IeIiIhchcEPERERuQqDHyIiInIVBj9ERETkKgx+iIiIyFUY/BAREZGrMPghIiIiV2HwQ0RERK7C4IeIiIhchcEPERERuQqDHyIiInIVBj9ERETkKgx+iIiIyFUY/BAREZGrMPghIiIiV2HwQ0RERK5yTlZW1vfqduxd8jCW3doPHVCL8sWPY7kqdrPJc05g5o/OiFsdsPV3l2B8pV5ObStvySGMTt+KpbdOQJ0qC8u0CswuzlUrQvVKzJ1SolbiJL8Zex5tgEfc9P6rK/rOOVcvby3f36fhDHa9eS+eOqFWE1o3PPPwUPTAYbz17Ht4RZUG6DMUawq6qRXgYMVf8MjHaiWR2Y4bte9hTNlhtdKGtONIxY4V5ZgX0R9KexHm+4ySDlt+gvo5Fkx9FctuGKLWY2Bqkwh8IIKeLGTfxMAnKS0qwNz87mJZgA+bVFm8Vaag703iPfO7dOBHR7BnznfqjlYwAp8j6zB+8US1JEvgE57hI4vEhRviovUXjNGW94CCO/BMH1UhkX0sgh3tmMuxw6vKzoK7rxQBWO0elwY+1J7FN/g58SwmaR+qbPWRnuzXKL56emIQ9JTizspDmG1a7p83Wd2X/GSrjHxOd05TBZrJKHzTqdxFRBC07iDgyfhWFUTvhiuvQAfZ0rP9r6ok2TThlAwKvKcgTkmgPkPxUF6T7dv6YTxScRg9CobiblVCIWReg1FZ4iPrwFlocUoYLbzPKGmx5afNfIduF6ubrSG7XSrHIVt2t2gtEPqyGrejUHzLbU+y+5eqW0LBjchNVbfd7uJvRSgYCydwtB219Ph5MGtwNzTv3BPYTfFxrbiIpaJrplqnoIb3zEaKCBg/ToZuQqIIxSfnx55LcHo3XlzxLLaoVWlC0asowjq82DgCv+4tasrm9+1dfI+r2TQRM/aLG9q2rsCBN+/F0UHiMV21hztuMzCHwZ5rNATTx/8K/Zus+5LO7P0jJm3ZhhtueEk/niCMepH7DitWHsH1/85E9rQLVFmkZIuPCnzCyDPR8lpy1IrQuG0BXpi1VF/RcleAtaX1GFpyPdJQhbX5q5D55gwMlEGG2oe2DazE0vpCTB7i0ctXd8P92mPE61TWHa8v0rYoqONTa+LrEj4s7Yd1FWpVMLZn3obk345s4ZmB3H1b0TgkA3vzC7BTlGbO242x2CvKrgci3KckH68dv1mTKeenYLl2PI2WbYfKDdKPc2BDiNciDvlBTy6qxbiL0zF/XArUKxkV/X1+IkguXst/J2ba37LxdylY6vR8AiuGA+VvNmKkth35N7kOl8vtdxT3y7/78hi3PmVegz+P74T1jjkaIjCaVISrq8vxiw3yK72+PsD01mjeadynk91nD+XU4LllXtyi5X/o7PWku4vvwC1ZasXMyNnRjq0vjttyj7THddoj9vEJNqkynTq+U8FzfgL2ac8PMuXtHLnBXDdUHoue63Kpw3PUGbkwBqdt2et4LblD2nHjPTx3si8eyhMvgDzuLR7t/KSI+/X8LP/rtb5zkXbs2nlv6KtyoqzbNM6vfLzOflz6MUFs+6108brK/WpamdNzz9MoG90dzR88j7tKN6tCSmTxafnxdXdNRPkRVeYkdQTuSduI8Ztqga4jsKxABjl/xK7T4lt/j5+rSlIH9L9VD5b03IR1qOnYD78u8teRH+YrxIdrvQiajByG8iNZKJr6EqZfoioZuhaKunJfqq7Yf4fev8KCnsCWLff69yGqyg9yY3tyiS7wiZFpA7SLfM2uli6gereYdtE2WodKt4pr2gzMXmJqTUEGht6bgffyV4rnmouhb94ngo4FWLpNfNjlDECeqoX0QozNWIe5ZVWivBD339sbVaV6zouvdUa1SKWJAMtojVoqTtXAEoduqpxxmF0i92vU8yK7eLet5epd7K0Wx6R155WiYEg93pv1LhrEPtO6qHaPMPcpA5jJ4vFrVR25rK1Wd8aJDLZmF2eIQMzYpzjH8nlbzn8bk4HI1Fe1RQ/w5d+Hvq4tpr8nTYi/E52eF1eUKr6IGH8jb+4GRB3rti7ByII0bND+prIwcvxduLL2j3hx7xmxj16YoGrFitZiUVurX8jkxfDhO7BGLc/08eLIKa2a5u7iYeIbgJETJJaKw0jJK8KfR9oCZY+4QD/cF6dWWOuZ84f0IEReRP11JHmxjleysgzM+hxQ+5PLij1ozhLBTrEpWVrjwYDxerCh15W5RN1wy6RrIGLTQH2yRNDixaf7HQIfGUzJoEYGK8Z+n61FH/M+VR0ZPBl1nhPfYuQxWHKuOvXFlM579HOV1Rd/Hp2NT0UwI/Ocesh8I0POMIw6WS624UWKuP1nLZfrPRwUz+vqnvprpeV4qcDS2OdbteI5PlyEWbaWvh4Fd+AhuV+tXgvnIgwTe3fX/k+5ajjEO4qSwNnt9hLf/A74cg7Eh3Hta/6Ey9QuuEHd1Fi+If4V5ZYPzp+jSHyYy0BFay1SlpfLD1sROA2yfahr3z5NyZ3792mBTkbnGCY3x0Fef9mKUIW9ppYJJ5nzCkWQVIW15taKiglYrQU1haYgQ3xo7FultaxIadiL1UbLkAiMMo16qWKvq42ASz5mob9lJb0bMmUryChxbNUr/S1LQt2shXqANGq5qGMmW2f0Fh2pbuNeNIrtpl+hCpSdu6qQ1utGZMqgr3qHr74uzH0WLMfQHNmy5N9f/MlgzYPGbabzhBK8roLH1nRPVtUHb5Vs0f7HfUG8FnhofwcqaJFLQAtM6L+TG24YId5noo65BVZ88XlZ+9scYfrSIf+21/lamDrgc7zs+xJxCS63fzlppR6dPWg+KbPRxbd842IogwLxvjtl6+Z7pcw2iunjPdqFNyWnW8CF8GCFqa7WfQZcmm4ESd1kvGDtaguxrVjZtKHcOnqt7hOsF98lkZUVkNdkDcK82FQtDs7TydQy4xc80VnvUgwcfXYYj/jW/XXMrUabNmzWg5rBpiBDnL5Pt/gfh+rN/n128vjqpXiasN7YlscjXlN/K01KZ9lULYKXPPG6i+doPh+vlOkB0oAbTIGU5N2D58I8F+F4de8h7f/mzzaB7T7J4ewGP6c/xxbTh1H9yeCtKjUHrR/MW07KB6oPzp69tBaRwMf/FZ/Ilid7IHW6UfsQ9/srZogP/7i26uR/hd4yiNgdbZdXuCYjr5f4EGmqxxeqxBAYZHhRtdHUedJw2HnYd9Ne7DR1IzUes3W4qHycxnp7c8pS7NwnPlRSM3CZKtHYtmeVg3S5LbmPRavwIXpjrAhyAlq7wtxn5ojeWpdeSwFjTGktdLZzK31e7xjkRWLpF+eL59aAcVNVQTyF/DsZghuyRFATUEf8bR74HGdEiJOWrgrE2oEDpr+tpmPW7uqY8qBrJ+B4g3gPaK0XKmflkk5IQROOOL7BzawtQ34t5L5kenCpuhnglLi4qptt4eBJFSTYaOfERAZOcgRcQFdPqETnzG64Wny8hEyCVnX0ANTMIcjw1mCT6TWxH6OP0ZKnCQxi9dfa6fHidZPBoCmQkpqrD8f2NXn5tyguLmaXVxJpRwnPZ9DYoG7adUzTgqOzQs7R8k4taqYAL9yUhVGLVXm8BQtkBF+3UYwFBEU+plakiMhARrZIbUWFKXhJy/AnMsV+n62X2SVD/OvRut/MI/Jmm3KcorY4Fdk3dUX9j8V7Sryv1rdFEBRKiEDm7LSkporrnH5x1Fov1Cid4TKidhqxY+sWk4tjzk5LVItLSl5ff4tLn75aLlF8R0vJHBbr8fvzWKKjdRt69+Atp2BPCyIdgg8HQQOZuCWchziuVrTqUPvkjtFeDt9O24wxR8sS4P5WXqy+qJcfJrno3cqh3sEDhnipR13Qlp7Q6mb1w9xIJyLURL/P1qo7Vi/+lV17/hwj82JOqI7Y1CYR9JwElsi5otowmI5CqJbcNqNaXWRXmJl2YTaSYy25KzJPRFWKiN7ipHW/GIFIQbc4T6qoEoplF47p+GVeTPRU91GwlpETp9AsnmunVnVVhtMCF2Mcqk42SRv8TOghvp4Z3WZaLkIHXHml/Zvmz3FNV+BM7bYomtlr0Xga6JAWzddAB5UXYm+TCF36fa0KIqd3W9mGgAdQ3T7mhGUlbl1AFe+iSubZBByX6oILyNcJQVwwwmodCXOfeiBiawVSeUAtK0XvsOrZxKB7KxhtrqimDthw1ifIFH9Ttc4Jy/ocQrX4xJR/lxC0QEgGKXoLgT6U24sdvpyTVtBaeeTII38QIpfwAh89Xyhiqqvn4Pv2EWKtoG0zSKKzVOfFcfGfJRnZru4wPhUPD6zjwfAc8bdp6cKKES0Hy5/87KdysWLdzWU3YiZeKytD2cszmfCcJJIz+On5hDa0tmankWipJ0B36H2XZWTXhCKZ+FuLDVHl8mzDUdllbUncPMt8ScuBo4Yy51X4EmnrZslE71yMNtcRF/yxWhKuP8E5dpZi3XqZzDvOMsoqc959GJjqxYe+ZOnWWoo62bWpJVmHuc9FO8S58GDgWONclOLOkutFAGH7cK84bAss7UPoIyBep/eqxbYCRrC1L1u2bBTnNgtF5pFdlzyMe7TBB/4E57NK5nqoHBaNzEcRRy3zTDbJoYOWC6YcVh1lt1e4LSIBwYN9OHgEtH1agww54iz6bi8jUTnUjM6H8ZZsWcoaahsRJ56Hb7SXF/PeFwGlqGMe2TV85DA9QIxFsBlAP66UvGGWkV13F8tze9ifLB0nw4ZcpQ+v91yLW+7RiijBxSX40Yadq+Gz2vwfcli6Wo/25yKyh5uG5A6/BLveVPMAKXKI+ot7oQ2J9+1bG4Ib/ezSy8vlsHt9mL2xzZj+3EUUtG6g0q1olAGQKZ9kLFZZRxYZQ6tN+SZyDhvzyKiYkj/7UFYlLvj+Y9KHlwfOuRMzYe1TnAvL+SpEQ2l3rN6n7vax1xunzSekDfs3kcPm9fvVfEimc2wOwnZO8Q+7N+7XljftI9+SmUyAFoG2HBKv/j6M6SbO3pQQckZePQh5ZcseNMsh6nLOH2MI+PhsfLpWtZR8/J4+dDqvSOXLFKHT+1F2e9V9giViW3IItTn/RlssQ6gP4xHjWLT79Tln7F1VMojR71dzEPnqm4aKi33+Qhsi7r/PGA4elXCSmQUtUVoN9Tf2u+bhLHxsHv0lf55D1DGfD33G7fj9Rpg8LmM4vbFPbe6k1szfE6bNpZXQx3sBGZey7ScZxPeHTWNBfJOUk6zJD1RzsJN8YjHJIbldrCY5bM9k4CCDAOfJ+eJDmwgxzxOY42POK7IMDU88/skcY9iN5iITnynDzdnN+OgPd2H+RlVICcsdCc8J4Vwc/re6SURx88oB2SphGnXVBvSEaofh8KqbK/G1kOhMoY2YiXxtBtpKBj5JgsFPG9ImqOvhxYp8VUAUifxmFPYAvPsvZKtPKNrkgoEz9t5dHDjTb6zoc+t0Qx/bL8brOSfxHu4eC4fxyLN/adPWsvZhIp6Wic4PXIv6tcUofuRVVU6Jjt1ebWzynBOY+SM5u24HbP3dJTH4hXdq9+RcUY82QEsvPchu0/Dovwll/s2uwFmJY8vo+rJq5W9GEVFcJH7wQ0RERBRD7PYiIiIiV2HwQ0RERK7C4IeIiIhchcEPERERuQqDHyIiInIVBj9ERETkKgx+iIiIyFUY/BAREZGrMPghIiIiV2HwQ0RERK7C4IeIiIhchcEPERERuQqDHyIiInIVBj9ERETkKgx+iIiIyFUY/BAREZGrMPghIiIiV2HwQ0RERK7C4IeIiIhchcEPERERuQqDHyIiInIVBj9ERETkKgx+iIiIyFUY/BAREZGrMPghIiIiV2HwQ0RERK7C4IeIiIhchcEPERERuQqDHyIiInIVBj9ERETkKudkZWV9r27H3oiZeO2Ba5GiVps/eB53lW5Wa9SWJs85gZk9O2D+uBQsVWVWk/DSmGLkyptHy1CwfZlWSkRE1N7Er+XnnqdR9sBV+OwPxSgulsvz+OyqB/FayTBVgaKVP+9xVFbeh1+p9RZNbcLMH51B1T+DBT4jMX+UCHxk0LOmkIEPERG1a/EJfmSLz+gMfPSHuzB/oyrDZsx/5SPgusmYOUIVKb9a8jtxMTctb45HvrqPWim/GXvGNML7r64YtViV2XUciV4dm7F9P4MeIiJq/+IS/Ey8+Vqk1FSaAh9l4yZ85k1Bpx5qXYQ4i0WwMzanFqvzH0W+sbwE3D5P64ChVnqyuAGepnS8MOdcVeKgY2dcpG4SERG1d3HI+ZmIp8vyccrS6uM38Zky3Iy3UfzIq1qLjx74LMQf1f3B6HXVivDltsW4ZVaVvjLtPlQWA6tLT6KwJE9cyOU238H/eXMqBqeK+6vfQf6USnFDBls3AWWPYlWXxzFjSEft4dDq249Br+sPwU7j/dInMKNCrQraMUFse/WleEvbr65KbH/qIrWiyK4q//5sxy9o9/eqwoJbj+N203799ezHY+fwHGSrz6MNqF+TFbzVR+qyEBWDM7F9/W2YeVqVERERtVOxb/m5pw+6ez/DJi3wkYFQGcrUIvN9Dp5o1qrJi3meDGaq97cQ+KjWofSdWGC0DJXuBIZMReUSc+dYZxTe2xnrRNBThSwUvjke1+xbjAXbxNU8p6clPya3+Hd6oKFtbzHeb8rCWHNXmwymRKCRKQIPozVqwTZgcMnvsHiaqmPIuQmVJXK/Rr3TYvuPY0GBul+QQdKMISf9rVvq+N+yt26l5mFG5Q34d6mqV1aLi0Q9fZ+VmGrahx7sqHraEhhATh52Bh6kYUeowIeIiMhlYh78DLs0Azh5BJsxDDNfvhkZHzyP4uK3cUjcV3/cNNJrWk+tFaNql2yRCS5/3g2inrjQ37pCXP6VihX4gxbU3GAKMjoC+97xBQAXiRDoD76Wlc74P6ZgBE0ikPJtrwoz1teKwCMX+VqdXCwYlaW1FplbZipnrRBBkrh3lD0fSbYI+QOPyo1V+FIcy8VXqIKC8SgUQV5VmSk4Ucd/0ZCbApKWq8pMrUuL9oujAzK7BG/vCe47jOx5Bjh4IR5TJURERBSH4KfHJSloPnEQGDEcV3ma8dk2EfCM6IoMNOOUKI6MCEh6iaCm6SQ+VyWGgCBDBCGfiDKfhuP+YMnmy33brfd9ftK/rYJBuCZV1KkXAZFFFSr3iYArtTN8u5SaRLmpK8wuf0Su1g2309YNVnnspPjXFpQ51Ivet8gQz8Nbf55aD25qVxGdnd6HSnZ5ERGRC8Q8+OnaWW/hGTbkKqSgHkdk91ePTv7b0QgRyETXKtKyumOmQMrCHrCEdkWGzPPJwljzaDa5FGfpFc6iqYPWoWLMOvQ/UoiC9Y/jn6qciIioPYvLaC8f7ynIxh6tK8xEaxnSWluA3P6tG9QePEiJl5P47xAtPXaf1zvl5xiLNYG6rS3eLoKeNYXY1VUEQaOewI9VORERUXsW3+DHTAVCsltMy/2p2I5PmkSBLRnZSnU1OdQJ1p0UDcu21HEFBmWqC67FBG0r5+6t1glvm+ehXjwPT8a3aj24xUeqgY69kO8fjEZERNRuxTf48XRCD0zELdcZP3AxEX2yD+Hjl+XtKsx4aSe+1LqEbLMVF4zHYjUSqnLWFlFT1DGP7BL3PzCkI77c5k9wjlrAtlQCdM5NlpFd+fPGY3Dqaby/OlgHXBCL3sH7TR0xuCSCGZlbonKUBo8N1Wp2Ljbs7yCiza/wpCohIiKiOAQ/R04CGZcOw+bSShxCd9yszfnzNg55rsWDZTcDa3+LV1VdOerpFmOouTkf5l5glW+klRzi/Q6q5JBy4/6SPNSVPWoZjRUJOXw85LYWLdSGmcsh8UY9fah6NN1UIpi69VGsrnbI+7EM1Y+APG/i+LRh9r7tBQZXSzd3gBeNGDBVFRAREVHsJzkcVvIaHrykUpvEMPHoEwXK+XuiDZySzZOLajGuRxpW3pQafMg7JzkkIiIXiXnLz+Ztn6E5Oz/g97vo7HisLF1r/Rm36GtV4uC0nnxORETkBrHP+dk4H5U1Kbj2gacxURVJskXo6XvUCrWdyhT0XZMG9KjDnjnfqUKb0/+NOqRgUM9JqoCIiKj9ikvC86uPFOPtGpnv4/9piwev+gxvaYnO1OYWp2L+vzrA0/MrTFZFVstw75oyVF1erM37UzGIQRAREbVfcfhhUyIiIqLEFd+h7kREREQJJubBT/fu3XHhhReqNSIiIqLEwpYfIiIichUGP0REROQqDH6IiIjIVVwX/OQtOYTZlf7lTtPvd1Fow0cWYc3Dd+DPIz2qhCJxd/EdWDPpGgxX62dXNzwjXss1Dw/F3aqEiMgtXBf87JzSHXPzxVK6FY2qrC1oQdeby5Gp1oniIbECLCKixMRuLwrbpoYm7f/jDV7tf0pmTTglX0bvKRzUC4iIXIPBDxEREblKzGd4lvP8fPHFF/jqq69USWzIbqPROWpFaNy2AC/MWqrWDKW4s3IcstUaUIW1+QXYqdYsCpbj/pLr0VjWHa8vUmUWk1H45gwMTFWr8OLD0n5YV6FWTTLn7cbkIf48GN+xqX2kqfIATVux9NYJqFOrgcdv36c6poaVmLu6m2XbzufDOG/Bjz2mMq/Bn8f3RYpalce/Y0U55vmfoNYtcwvew5gtHkvdgxV/wSMfqxVtO9n4VDz2yA2ifpYq9+7Bc8s+wSa1Gh6Z2zIUENt/K70ID+UZr9NhvPXse3hFrRn1Lt1Zjl809MWagm6q3HZsUsDztG9LJ3Ok/PtTTM9Bv78p+HFssLaw2bfXbNQJOB6bqM4bEVH7lRQtP/oFXAYyKl9HLO9l3IfCAlVBkoGGCBzSRBBg1FlbnYvRlRXIU1XCJ4MQFWSobS3dBgws2W3dpxaMHBKBD0Rw4T+21bhdr1cxAS+osrXVYl0GO2pdW8yBz7QKzLYdv75Ph6TsnHGYXdIbVcY+y6qQNmSGQ/J2KXprAaMHuSOcf9UrdsRFezSw5Nm/YIxa3qr1YMD4IsyyJzplDcUaLbjR6z2304seBfZ68rEqUNK29x4OevrioWJ/UBKJHgV34KGcGjynbascO7zdcItDbkxKXpEIfCACEudj05K+RaBxXARE/ucptvWw9fhlkKcHNuZ66s6IeTBrktweRDDp394S9NX3WfcJfmHehwx21Lq2MPAhIrJIguBnMjLTxX/VOywtODunWFsy8sZejzQRXKw2tX7snLISNcjF0HmRXfgz5xUiW7YaTSlRJeL6MmshPmzyYODYUlUiTLsdA1MDW1XqZhVE2MoigqhRueI5rrS03uj7BLJH2ROlZSBo2ueiHeJ5Amld7M+zBHtl0AUvqjYGtgrF1mE8YrvIvrJlD5rFhfvqnvbRYdYWoU0b9uCgU71aEfiUHVYrh/GWCESQlRXd6CRL64cX894X2/VkY7j1xKrAwd8Ss2l/jfYcOl0i10SQk+fRWlzMLUGvlInATAZrN6jALPMajMqSLUaBrUFR6dMXAzyBrWibNrxnWSciovAkQfCzFHUN4j/Z2rHEFHhY6C0cjfveNXUhSdWQObppGab+shZNRl4vcRG2BVu+40jv5gtE8vqLgKVpL3a2tjup4Ebkporjr9ciFZOl2LlPXPBTM3CZKtE01eMLdVNXgtfzuzt2e+mj29qgy8tJnRfH1U0Lbw02WV4oPfk2pbOvj1Fz8IAR+Oj0hOtUdLUHLGForj5sbf04ccoU1JiIA7HUU60qWrDTJws9xH+BCd+H8bFscenk0VqShvfMRoosM3eVtcLdV4qgKuCcERFRtJKi20tewJduExccGQCp+XnuN7fmFHTTcl9k1495Dp/ZsuvKej0NQw7S5WNM+zIWc86Rr0Wq4bAt4Ipe47FgrTMZyLR0tyUmYx4g/zJUCxbiSRvabdlnvOch8uLUCXXTztMpDs/Xg66dxH/2oIyIiKKWNKO96mb1U7kwC7SuIBno+AKgisPanD0y6dfIl7Espu6rlumtRbILynFbvjydwJag+KlH3dlouYmAkYwrk4N9uSYyT0fdHy+vlJn3py/2ROE2E5dh414cOSX+U61KRETUekkT/PgtxbpbVQDk686KpnsrmPCDmi/qZZdUb+SF0Sqj17V1Xxkq3kWVOP7s/vZuvWBdcOHTZ7S2J2rHmrgw54jj9O7BW9F09WR2w9Xi4fZuLrtYdv9E1TX1ca1zbhK6yR4xX9eaY/ecygNqkepaMzt4Urx3nPKTHOh1Y9cCNfGZMpSVleG1kmGqhIgo+SVB8FOKO+0zIwfkyIiAaH2V1lVl6Q6L0s7VW9GYej0mB80x0tXNWocacTEcWGIdUZY5ryIg2Kg7Vi/+DZZ87T9+84itzHn36QnVqyNpuTJrq9FeqnXCfIGWw6/D6vbyYNbovkhpKXDqM1Qb8n7w/RiMXBLHNkVLXN4TYUKynnSdkjfMNrJLPs/DWG+0OKkgyZcALUfCje8rTpO6X9GDJBE49dHX5XM0D7E3GAnhA8Zbf4pi+MihthFy/m2OiknX3zB07azfSrnuFkzUbxIRJb3kmOfHYb6cGqf5eRzn1TGPxrLPo2NmnxPIuW7gfu3zAendb07Jx/b5gALm+ZHD3Ytz1YpkPya1L9jnBwqu7eb5kcOxizDA9/Tk3De16GObs0ab58feAmIZ1SU4zlsTONopPPq8OQGtKfa5e4x69mNxYJ9vx3EeHctz0I99U0/xODnc3lTXui15zvagqziPV1fb5/mxn1/TPD82YR1fuO55GmWju4sbh/B28W/xql5KRJTUkmaSQ2oftOCnUwsXYxU4yLl0rAFKNPSgxmnSQArHRDxddjO6ez/C8/fMx2ZVSkSUzJIw54eI2srEZ0Tgg2Z89AoDHyJqPxj8EFEg2d1VVoabs2V3112Yv1GVExG1Awx+iCjQy79FcXGxWJjnQ0TtD3N+iIiIyFXY8kNERESuwuCHiIiIXIXBDxEREbkKgx8iIiJyFQY/RERE5CoMfoiIiMhVGPzEmvx9rmh+RV3+Llml/AV2tdh/zJWIiIhion0FPyqAMP8yetKomIAX8rtjrljWGj9W3151eQLXzF6H7GvVOhERURtiyw8RERG5CoMfIiIicpWk+XmLvCWHMDpHrQiN2xbghVlLtdv2++xqyrrj9UVqRQioX70Sc6eUqBUgc95uTO61F0tvPYyCynHIVuXmffrIrraS65GmVnVefFjaD+sq1Como/DNGRiYqlYFx20p2vGlbxX7n4A6VWamHd8Qj1oTbMevH1NvVIljqBtreq5NTtssxZ2m5whUYW1+AXaqNTNjv/bzGS7PhHXo2UOtODheXoiaj+StScieXYyU7U/hkxPFGFzkf7H8dYALfvoG+g+qw/6594kzbjA99u8bVJlw7ULLdnCwDO8vX6ZWiIjITZKi5UcPVuRFWc+Jkct7Gff5kop3TlHlpVvRKNblxdmoJxfzhVpewHvvMt0vH5MzDrOXlKoaSur1mFxZiIZSVa+sCmlDZljziWRyswh8Gs37E/Xs8pbcB7xkrSO3df+8yapGuGQQdUgEIPWmc7ESNfL4AxKkPRhYcghD6xf468nnZH6eWo7UOKSJQMw4trXVuRhdWYE8VcVvMvJ66QFXdn/buQqTd3kh3p8rlj99gC/FugxktHW1GEGN4aJB00XAAhHc6Pfv2t6MS4vewKVdVIUwySBpcFEmav5k7KsMx3uIoGrCJFWDiIjcJAmCn8nITBf/Ve+wtEbsnGJuWQlf3ax+1laLigl4TyYY5wwIuODXlJn2sWgHasR/aV2MgEUEIqNytVaXllpBAo510Sp82CS21evGyEZ0TbsdA1Nlq5K5ZaYEr8uASwQ2BfZEb3Fs/talEuyVzzO9m2+feWOvR1rTVqw2tUDtnCKCJORiaEBgthQ79+ntKzW7TK1M8dT4AXaZWnW+/nifCJpS8F8RnbRJuGxQCr7c/iKOH1NFWIaacnEyetwUcSBFRETJLwmCn6WoaxD/ObXOxMgX9f5OE78q7A0V1BTciNzUaAMB9ZwilNdfBFuoR5096AsIzHShj60UvXNEfLHvXVs3WDUaZGCWYe4X1MnAUbYORdPlFZWT/42v1U3NscfxiUMLUUjX9selaEbDx6YuMKnuZBSBFBERtQdJ0e0lu7WWbhMBigyA1Dw4kXcZGWSOi2k+HbFY8mfiwT6Hj1hC5SiF1FSPL9RNO6eAJaiCblqekux+Mx/X7EprblKyu+ASGd2kIPuX6zB4tmn55XW4SK9CREQukxTBj2S0OszNX6B3GUWVM6OSe2Xir8pxkYsWWMWLkRAtk5JN+4zHXD6N9RFstOKwlh8lE6/Nx+VbzAnUSezrE7Jdq9mU72NdImpFIiKidiFpgh+/pVh3qwqA7C0d6oJu7/7xmTZAG9VUs955FFVEHPel8oBMMkf0Rpoc/bW69cHEzl0yt6c38uyzR2vPy4uqjc6jx5wF794KRiaLy9ahVk8ieey/RTgCpFwyUl+PJa2byyTi7q1hmPlyGcrKyvD0PaqIiIjalSQIfkpxp30kk8q3CWzpUBf0Ibc7jFYSPq/XAhbzaCU5kiy6bi89gdi8r7wlMzBQBCFyH4a6Y/XiXw9yRxhBkj5iK6puLy1R2oOB95rPhzg/xTLxel2ECeAiiFwvgqmccWG2oLV+tJdfNf5HnKSLBhWLMxM9vVUnB52NmaLtw9mlY4/j8EFEMEqsBzqpg+o+fKYIhYiIqL1Jjnl+HObSCT7XjH3eGltdOTxdBguK7PZZjfvU8HF9FJU+n41/XadvVw4L94+gss7fo83ds/FG3xw7RjBin5dHHs/e/ta5fOx1zKxzAln3KQXMGaTOlxyCbz5HjvMHOZzbwHmKdMYxRjvPj5U+H4+5lcY+z8+lYczFo8/1k6LWqrF/bhn+6/7pSD9gnefHWk+Ro8leeNyaVC0MK3kND14n6no/wvP3zMdmVU5ERO1D0kxySNRmRszEaw9ci5Sat1H8yKuqkIiI2oskzPkhiqdhmHm3CHxwCG8z8CEiapcY/BApsrurrOxBXIuP8Hzxb8HQh4iofWK3FxEREbkKW36IiIjIVRj8EBERkasw+CEiIiJXYfBDRERErsLgh4iIiFyFwQ8RERG5CoMfIiIicpUkmufH/5tWsfltKdJ0WYH/nXI9vlOr8ne9frikL849plYpZhx/Wy0ctt+jQ/VKzJ1SolYi933hHnw92PQ7co1bccHz43GOWiUiau/Y8tNG5IVvtv3X6RPIeX/LxoVz5MLAJ+EsKsDc/O5iWYAPm1RZK5yzrq96rbNxfrUqJCJykSQKfpZi3a3yAsBWn7ND/qq9COBMy/3zJqv7kp8WnIrndOc0VaCRrY1O5URElMzY8kMtk90uleOQLbtbtBYIfVmN21FYoOq0E9n9S9UtoeBG5Kaq20RE1G4kQc6PP9dH58WHpf2wrkKtSlpOBLC2tB5DS65HGqqwNn8VMo3H+XIkZOvFOKCsOyq67MbkIUbeg6xfgJ1qTafXzVZrTvvNnCe3UW/dl9Sk8joKluN+7XiCMOqp1XD2adD37Wl9/pPK+Tnnb9k4b4cqs1DHFFaeSQvHH9brVK293rn7FuC9jBkYnQM0bluAF47drvJe7OekpXOm3x/6NdffY7n7tqJxSAb2qnJ5jsdiryi7Xnu87zwHvK5O7x//a2Rhes397x/zY/XjTZPPedZSVWZQfwsNwV8L+z61cxewHb//3FmDby5mzg8RuUsStPz4u7vmllWpMicZGHpvBt7LX4ka5GLom/dpF9Cl27xAzgDkqVpSdvEhTO61F0u1FgyZR5GL0eZ8HNXSIS9ARivH0m3AwBKn7g/x2Er9Yq3XFftPvR6Tl5QCFRPwgnr8WplbIS98al1bnAIfS+vKOqTf65QnNBl5vfQLnKWlIh6mDdACi5pdLQQ+YZ+zMF+nXvdhaL1eniZu3y+DJu0xHuSOUN1tEbxO2muesU7Vc3jNNe9ib7U4Jq07rxQFIjB5b9a7aGgC0rro+5TBxWwR+DSKYMjY51rxmNGVuy2tYLIbTQ9szPXUnXESsM/SrcCQGe2qe5KIKBbaUbeXCAb2rfJ9g04T39hX+77xZiDT3D1jaXERwdV6EVSl9kaeVkd8ux6Vq7VCmL8x181aqCWbZo8KDEZk64u/bom4gIr/0rtFltxc0E1rSbAGGSV43RIgGZZi5z4RLAgtBiWtlNdftrZUYW/I1qVIzll4r1Naqgw8VHmqRwQb/taRtIwc8W+Er5N8zX2tJer8pWbgMlVi2LmrSgRbNyJTBn3VO2ytOTIgEscigi1za9vOKXpQNnCsCkQLlmOoOMQa0zHHndM+RfC9WgaPQ263BP9ERG7XjoIfL6o2+i+CaDjsEDToGve9a73v83o0iotX+hXitsrzaKy3f00PdsH0ouFzdVPZOUV863YMWkKoOCyOQW+hCCe5tm5WP+3bfUIkf0d0zsJ8nSyBR+A5jvR1CnjNLXKQLrd1TBzXolX4EL0xVgRWAYGlagXT6llYA97MEb21Lr3QAWNsBdtn3bF68a8t+CcicjkmPAcReIEzxOtCUoLX1VBmGQDpI6qsXSmJru3PWTz2KYMn2SK1FRWmQEJvbZIcAjGDQ0tSW7ksQ3aDyu43472jFvP8QEREpGHwE7F61DkkIMeGKb+pdKvWGjWw5OwGQF/Uy+61XPRu1VDveJ6zYKLfp9aqFmnLndRUjy/Uzbamv04y8Vq9fyyLc9I8EZFbMfgRLF0GFe+iSra+BCQSqyTjgDyQ8GgXp0haBmSytAqAtO44Gy3xVnyzj/f8M3Ub9+rdcaESq+N0zkKK5T5VvlWLFu2wJlz7lKK3HJWmutYcu5pUTk6LVNdapOLVvTXxmTKUlZXhtZJhqoSIKPkx+BEXpbFaEquRhKsSoHPGWQKLzHn3YWCqFx+uji7BWL84GSOJHEyrCBiVowdlTt0sbTjaSyXNyvMxW45gM8mcV6FapeJzzkJrq30uRV2D+E/L5ylBhZZAfJ9tZJccal/lT9BWQZIvAVqO5Cu5HmiSrTN+xnvC16qmTQUQZTeVzFVqki2FFTFMbh6Grp31WynX3YKJ+k0ioqSX+MGPnFPFkr8gP+DVepQ/F5E2ZIY/J0INW7bMhSJ/TqCsypR7YwwhbkX3gdimNmzbvG/z8Yv7V+M+/30h96mSeoV4j/aStG4g2QolAyDT8Y3FKv+xxeOcteQs7FOeC2M4vbFP7fe6LHP1lOB1y/kqRENpd6zep+42qPeE7/i14fyBP2FhzD49u1LNh2R6HfyBn95lqg+7N+qrxRa0hm8z5m86pG4TEbUfSfTDprEQagI5l2pxkkNqz1qe5HAini67Gd29H+H5e+aLcIiIKPmx24uIgpr4jAh80IyPXmHgQ0TtB4MfIgp0z9NaovPN2YfwdvFdmL9RlRMRtQMMfkjz7c9q8NUcuezBd11UIbVL3xfuUa91Db4JNgLt5d+iuLhYLL/Fq6qIiKi9cFnODxEREbkdW36IiIjIVRj8EBERkasw+CEiIiJXYfBDRERErsLgh4iIiFyFwQ8RERG5Coe6t4b9hyirV2LulPj/1lZbk78tNdo0H0xNWXe8Ln8Bvw3cXXwHbskCDlb8BY98rApjQNtupz14btkn2KTKEkLmNfjz+L44HuPnS+1RNzzz8FBcurMcv9hg/dHc+PFg1qQiDNB/V1nwYseKcsyrU6sB9GPsgcN469n38IoqJTrbkqblR/txxyh/yDRu5A9r5ncXS+CPUUZH/vbYoYBfdz/bdk6Rz1Es8sc6VVly64Y+MqB6P8ECnzYjL0h34M8jfVcwamMy+F4z6RoMV+vxF6vX3It5y/6CMc+KpeKwKiNKPuz2aoeCBoqypapyNwoL1HoSOHhSfqP14tQJfT0Who/sq30T/ZgtK0Rx1oRT2p/wKRzUC4gSAoMfchkPhueIb7+1tWyCJyJyqcTO+SlYjvtLrkeaWg3QtBVLb50Af3ez7DYah2y1BlRhbX4Bdqo1LXcFK7G0vhCTh4gLoMzRWd3Ntw8jlyVz3m5M7rVXbPswCkzba9y2AC/MWqrWzCaj8M0ZGNgQLOdH3Z+qVgXztrT9yeMJImC/LeQaac8z3X5uBO1xGfiwtB/WVRj7rRfnaBUyzccXcF4V9Xo0hsz5Ua9BsG2cbX2GYk1BamCegpZrk41PRfmRG/Q8I43Xmhc0fGQRHsprwlvP7kFXc+6DrZ6k1zW9rrXvYUyZvavAyImwMuc4OeYnBc0Nsm/Pn2sRcDw2zVHnjgTfp4863hS1aq+jPUe8h+dO9tWPUZ6rLR7fY4zzoT2HnBpxLry4xbRPx2NvYZ/hvua6lnJd9HMAcZxvpZvPs2mfAcdj47jfUPR9ypyfJRjmuM+wX3Pt7wJ4a8UpjNKOUW7D9B53eu8G+1siSgKJ3fJTMQEvaDk13bG2WqzLC6pa1xbzxVVemMVFN00ECsb9a6tzMbqyAnmqiia9EGMz1mFuWRWQU4j77+2NqlI9Zye7f6mqJKRej8liexAXem17on7akBm4c5q6PwJ5S+4DXlLbMW3LyO2pm9VP3bcSNWJdBju+umIxBz4yYNEDGON+8ZiccZi9xHTsEZHnaAZy9xn7FNuTzz3a7U0boAeLqb2Rl4Dda3df2U1cZGqwyfHD2oMB4/WLsJbTIC4gBz3iYlwsHmPRTVx4i3B1dXmQevJCeYe46MggSeVHyDpZ4mJhzvOQF0N18dLriGXFHjSruyMmL0YyIJAXKt9+a9FHHdemDabjFevywuev95foAp8W9inJC/AacUGVgZpR561a/RzOMvfNduqLKZ336LkkWX3x59F6YLJDHFYP+boZ5LlWgYa2PVE/Ja8Iz/RR9wth71O95qNOBnstJRlkiCDglP85Pie+UQ0Yb9+WOM4C8brL56DVk8cu9mm85nWf4Bfq8W/VinUZ7Kh1bYko8PGTz10LCLXtqH1G9ZqnYtToTliv1e2GUZOGae/x53aKOllZuFvVImoP2k23V97Y65EmgqPVpkBh5xQZTORiqDmBOBWoWm20koivNPsWaq0gmvRuljwZy6imRasCA6Qw7Zyit7T4qG2l9boxwgTuUhQM8YjgyHTMKMHrKpCLNpdHPk9/gFWCvTLQtJ2LsC3aoQVwaNqLnebnnBDCSHS2fMMV336DfPDLlgj/heMwPpYXs04e/SLXp6/4tixbBsytH4fxiLyoiwvrLeoiffcN4hu2uAAuiSboCCACrsHighfwDV3sN6C1KVbC2ae4EOd5tIuuuYXqlTJ5gRWBxw3moAb4dIvxOLFSvdnfomCcW8Uy+u/jPbYAKYJ9SuL4g76WgpEj9pbpOW7asFns02FbMqDx1fNiU7XYrqdTQMteTFlajNQ+owpW5Dnf43vPpoi/ZP97MxVdo/pAIEpM7ST4KUXvHKBx37u2bpZqNMggI8M0Ttt2UW48ZupOsqjCXkvXzlLUNYj/og0KLNS2IqW1qnhRtdF2zJ/Xo1F8cKVfodYj4kXD5+qmoo3uirrLSgRjsgUpAbu8wkl0PnjAfBEXFzn5Bgr44A9MwH6lzP/NXWtdQhOO2E+AuKrKb9+Xpst+BD0Qa64+HNW3/QCZ3XC12Kz9+OMqnH2KJykv/McbjIuoITDIsLfIBT7GYH8NvThySvznCz4j2KcQ+pyJuo45YrZ9KjF7PSMQu3168el+0zk7JQIpdZOovWkfwU9BNy1nR3Ylza48ZFqseTZnjdYlZz4u67w54crskiH+9WBgiXVbs0PlRZGiX8Sad/q/2cZViNEtKZ3j8Ka8pJP4ph7bUXEtCnufIerErVUkVvtMlfENILssH77DsvhyhIgo6bSP4KfisDb/jD1XxreczYkHjaRtmZRsOiYthylCdcfqxb9eU76PdQmehExGV5Tlm+1Z0nxStibF2IlTaBYBXqdL1HpbiMU+z8YQ6Ij2qYZqW3KaTEuUeTpEdHYlTfDzRb34BErNwGVq3cqheyvmgnWthZY5ojfSZMDiyzMKpYXnEUn3lsO50luO6lEX11wcfaLGNp2QUksclt/GhwbNcwid6BxcNI97RXajeLIx3H4CtO4YIwDTL6r2ViAtD0jdDmV4z2xrvTovjov/LInBQTnv24k2GZ84t46T44WzT62rz4Ore9ofH8tuP9u2YrpP5+6t1tLmrwqnBUpLKBevQasnRAz/NT8bJj5ThrKyMrxWMkyVEMVX0gQ/equHLXnZZynWrZdJv+PiNjty3hI55L0K75mHnIdBP24PckcYxyWHvQfr9lK5QMGSlysm4L1qILs49ESFO1fLmZht56pgOcZqydKrfEP/4+IsjPbyBwLi4mYa8eMjgqNR4qIX8YzO4sKj/bRGpI/TEnA9GDDafMHqhmcKRJBQu0cl8RqJqX19I4bkCKVbOnkDRnvpF0p/MOU8fNlIzh5qC1TEfi0jlyR1QTft25keLEgpOd0cLr7h7FOvk5I3zLKvu4vlMPXDWB+DZO/AbcV2n69s2YNmx1F/0dNzybphVAszLuv5Y4JTMB2RcF/zs2EYunbWb6Vcdwsm6jeJ4iqpftsrYD4c+1wyRheTWtXJbiJ9tJVl/hs1V44+okvNwwP9PjjNu+Mwb422vSCNNOaRYvbjlvft7R9kLp4W5gSSHOcFCuNcWEavCfp24Ds/zuxzJ5lZ51HSnYV5fnzzp4iL3rPmEVY6PViQw84D7/NxnIMl8HeL9G0hjLlN7PPCQBt9ZB9Ors1vowIMfdQUfPPFmEcqWeppo3v0eW7s9fS5V8wXaedzEunxOd3nE8Y+AwI2ywgltR9jLiO1PX1ElzpO6PfBKfCzbcvQ0j6N11wOhw841wG/+6bPqWNvqfGPOtPvt//OVqj3XovHJxnn1vE5RrrPEK+5th9jzh71XNUoPn176j0Pp78TJcjrEJZ7nkbZ6O7ixiG8XfxbvKqXEsUNf9jUgR4UyMn/7Bd2Sj76B76cryToxVsKciGkxBIqmKBkNhFPl92M7t6P8Pw987FZlRLFSzsZ6k4URAIlOhORs4nPiMAHzfjoFQY+1DYY/FD79rEcpcPp94kSkuzuKivDzdmyu+suzN+oyonijMEPERGdHS//FsXFxWJhng+1Leb8EBERkauw5YeIiIhchcEPERERuQqDHyIiInIVBj9ERETkKgx+iIiIyFU42suJ/ach2vKnGlpg/0kN+09WnF1P4ts54/CtWpPO+1s2ztuhVsyMn5NozZT4ThJ4pmbnn00gSjAt/W12WYH/nXI9vlOrgBc/XNIX5x5Tq0RJoH21/MigpfIQ7pym1qNVMQEv5HfHXLGsrVZlCWLnFP245pbKHy9NTOe+Px8XzsnWFsfAJ460HzkVH9pvufQnKmSA1fpfAKdoyZ/fWPPwUNyt1tulY+PxQ/X3feHfqlQhUXJht1ecyZaa2W8uR8APKcsfVq0M/evs7VqdF8fl/6e8MWwF6YZb8jxorj7MlhWiaMXlb5MosTD4ofajTxZ6gL/jRUREoSVNzo8916Vx2wK8MGupdtt+n52eFzMZhW/OwMDUqsBfa1c5PjBt06BtOz1Uzk8p7qwch2y1Bli3H/TxsuWnOAMflvbDugrret1Y8/NxOF5JHXNjiJyfUOfMwshxql6JuVNKVGE09Jyf79+fjx+uc9hPXOm/3j7g1HsYU3ZYlUnd8MzDQ4GKv+CtdPmL4B5Vftj2y+B6vUt3luMXDX2xpqCbKgcO2vOHjJwItRq4LZ3+C+TG/hRTHoXzL5SbjsP2K/T27TUbdQKOxybqvCp1Tn279GLHisDfSdNymbLUiuA7LqnPUHEugbdWnMIo7RjludqDrsZ2a43XK9zXSdLr9lBrTselHRPEtrd4LOcm4LUUgp5XRbs/p0acQy9uMe3XX89+PHbO749wtHRskr2O/5yatXzOojJgPb76WQZzfijpJEXLj34Rl0GAyncRy3sZ9/m6jOx5MDLYMerJRQ8OlmLdetk/nYvetpygzBG9kSY+DKo2RnjB1nKMxiFNBBXGvtZW52J0ZQXyVJXIeDCwRDxXiCBE294CfNgktufUbdaCls6Zmf78hZwBUR53AsjshqvF5//BA/YPfV2Pgjv0C9izf9F+6HSHtxtucciNSckr0i/WWr2/4LmdXvHYIsxSL4C80KwRF1OZUC3vl8tbtWJbD/vrSPLiqwc25nrqzojJIERuD+KC5d/eEvTV91n3CX5h3ocMdtS6tkQT+MiASjynATBvazNwg/mcyQuqSuI26qzYI9584hwV+4NHIBWjRnfCehEAHBSPGTVpGK6uLtfOLbKyLPkxLb5OMpgSF3EZHBrP7znxzWDA+DvwTB9Vx5Al6o6X+zXqWV9LKeB1Usf/55GmYELy9MVDD/fFKeP8VxzW3iv6Pg/jEdM+9GBH1dOWaAKfFl5zRQ98rHWeO9nXdi5U4CODIlVnjAhAO41mbhi5VxIEP5ORmS7+q95haf3YOUW1mERi0Q7UiP+y+5fq65rJyOslPuiq10W8vbyx1yOtaStWm1pTdk5ZKfaRi6HzJquSyMjWGX/ry1Ls3Cc+TFMzcJkqCU9k56xu4149edpWP5m0mOhsaf3wYt77IkjyZGO46UKi0QIH/8Vq0/4aNIsLUadL5JrKKRIXXnPrwStl8qLuwYAb1AVfBA6jsmQrQ3Tf9gP06YsBnsBv6ps2vBe3X6u/+wan0T7ivJX514eP7Ise8kJvriMCsSVaUGO+SMu/rz2+c5Ei/kKW+FovUtHV/BqEfJ1EQDBYnGNxETe3fmzasFkESSJwGmy/mMtzFuy1FJxeJ3X8KXl9A5KWD1aYzv/HteI1By5NtwVJsRLma96js9i/twabLHWs709kenCp+M/6xUAEbNEExUTtRBIEP0tR1yD+yxmH2UvMQUs0SrBXjt4yt3AU3IjcVKBmV6TdPaXonSOClX3v2rrDqtHQBKRlhOiHC6HxmLX1qW5WP8x16vYKKcJzZoxua1WX19nUcqJzwH0nTlkvhAZ7kqdqVdEuJlpOEXC8wX/h1R2W10Kgk0e7+GqBmCwLFohF6O4rxQXfdoGLr27yqbaQOC6ea4688J7SggCzgCBDBCGWPKwQibQhXyfVutd8UvyBWYjtVYvtezpZu55aOGfBXqdN8g/YHpTF8PUMR7iv+cGT8nn3xUOhRvipBGbZqhbQOkbkUknR7SW7tZZuE3/k8mJeeUhb7o+yZWXnatk15u/60rp8mraiItK5cgq6aV1FaUNm+I5JX2RekV7lbIrlOUt4WlByGOttuRDx4cWpE+qmnf3iGxMedO0k/mvLkTeqpSAwyHMQ4rji1SoS/LjsAUtoWquJDJwfvgNrzIsp3+vsCP81l608sgtO75ZTx2/pcpRkt5zsQtQDIP15Wrv/iNwmaUZ76S0gRh6MHnREdTGveBdV4vF615fe5RXYehMG8YEju4q0bipTXo1vSYBWlJids4RmdIXUxqaLqTUcWkFaz4sjp8R/qlWpTaiWgtYGL2EFTzHVhCMR/CFrrSYiMLDm5xhLDJKBoxbha/6xP5dHy/mSuU4BAZAX85ap57Zij9aaNmA8AyByr6QJfvyWYt2t6mJu71pSAUlal1AXeJX4LLu+tC6vKBKdNRF0bznk7GR2yRD/1qMu0rylqIQ4Z5KaHLL13Yqxpid9ym+qQZvrW0h0Diaqriktz8ODq3vagwJrN5Fjt4nKL2mR6loz07s2HPKTHOh1w2iB0hKa5bl1mpCvSTY6ICWnW4iLr+pqsiUsS7Hs9rNsq+4wPhW77CG7hCxUF1yEAbBz91brhL/N0O/tSF5zs1fKVAAUKnCSXbkqAAro9iVyiSQIfkpxp320k8rTaay3T7+sApIht4cetaQlPuditDa8O/JEZ50RRI0L2ZpidLNZEqBFsDF2iAeN21bFKcE4knMmroOJOtpLBTZS4AVPZyTmRjSjs7jwT9ESl/1JuOE5jLe0ZNhhthFDcgixqdtNBUm+BGgRHD0zvq+IF9T9in6hFIGTcfHThoUHPs9NG/bo2xtvDVSGjxwa8M3d2OYo+2glGz2okEz79zESjfviIUsLgrhgF/tzS/Tj6oZbzHWiPrcOAraljitrqCVgGD5ymJ4cvCWyABgf78EOb+B5bRWVo+R/7YNo4b0d3msuAyj7seuBuKXLTLyv7KPX9Nc/RBcuUTuXHPP8GPPQqFUp+G9a2efdca5rzIHjdF/mvN2YLIITJwFz5Tgcm/yQ9s3fI4Vz/No8P7khnpcU+Nz8bPMBRXLOjLoJN8+P/HDX54Nxmp9FCyrUsGf73Cd+9vlNdIHbMw0HDpgjxSpgXpWAUVGCbFnxzS+jj9rZ1NOYL8Y8Ysq8LdkFo8+BI4eCW5+T/1wYnOZ8kSI7PrnPIKPSLM9BChx95HR+LedWC+hS1eOs59g/TNt0n3qYwfF1DwgSA5+DNs+P/XfU1POR0xSYt2mfp0hjeh/oxxn+fEzhHF/L720pnNc88LyFNRdQqNc9Epznh5KUa3/Y1D8PTqQjqSi4Np7kULvIyDl5Qn2Ih7hIUQLh65SUGPxQkkrCnJ9YUMPU49btRPEnvhUnSqIzERElFRcGP/JnLsYh2zY5ISUbNXqlhS4qIiIiOxcFPzJfRs3Dg1C/1UWt9d3gmfhqTo22fDtAFRJR+9BlBf5X/X1/9bNcVUiUXFyb80NERETu5NKcHyIiInIrBj9ERETkKjHv9iIiIiJKZGz5ISIiIldh8ENERESuwuCHiIiIXCVOwc8kvDRmHSrkMmiSKnPyHVasrMWeOd+pdSIiIqL4inPCswyCipF7tAwF25epMpupTagZ04iqNVkYtViVEREREcVJnLu9lmH1/mbA83/wY1USYHEq5v+rA3LHnMCKfFVGREREFCdtk/PTsTOuUDedLJ3TGVubzuD6Kc2YrMqIiIiI4iFBEp7Pxfh/pgGpDRg3VRURERERxUHijPZafCGqxH+5/b7W14mIiIjiIO7Bzz+94f52+gXYcVD8d/G37PoiIiKiuIl/y8/pk/gSObjp6pGqILiq+g5A6rfIVetEREREsdYGwc/jGLOmEO94pmvz/qwJIwgiIiIiipf4Bz8dn8AaEfT0P1KIAhEEjfl0g7qDiIiIqO3FPfj58eW9cBGqseuYKgghN+MM0HSelvhMREREFA/xb/kJ29cY0EP89+/zsFQvICIiIoq5xAl+pn6FXHTA1rILVAERERFR7CVI8PMdVvy4ETjowfhKVUREREQUBwkR/EyecxLXp7LVh4iIiOIvzsHPJIztmQIc3YWgP9g+tQkzf3QGVWsuYasPERERxV2cgp9JeGnMOlSMKUbu6Q/w/25fpsrt9O4u77+6YlTQ6IiIiIgods7Jysr6Xt0mIiIiavcSZ7QXERERURtg8ENERESuwuCHiIiIXIXBDxEREbkKgx8iIiJyFQY/RERE5Coc6p4oujyBa355HS5Sq2j8ALteeBxfq1UK0/C7cMV9A3Cm/Dc4+qoqI5f7GuvfqUOuvHkwE9nTOJM8kdux5Seon2PB1Fex7IYhaj3Ojj2OT+YW4n2x7D+oyigxyQBr1e9x+US1TjFz/vS56LfqIf+XgFb7DitWisBHBj03ZTHwISINgx+KiYue+r24aNmXuUgfriq40k9wue2cXDH9SnUftYn8r9CbvxtIRDYMfih2vDuw//bfYLdaqms8uPw+l17wJz4kgp0ipNeU+86HXGohylwdELax3G/hUTeJiAxxzPkZgunjf4X+HdUqzmDXm/fiqRP62g03vIRf9+4AHFmH8eV/1QuFgPJLHsayW6/AAfHYo4NeRVFXVfH0bry44llsUasarW4/iEcrtShf/DiWqzXfMTWJbW/vYql7Zu8fMWnLNv/+gzDqRW4SsmcX41K1BlRj/9z74FVrZp4J69Czc/CcH+3+HmpFOliG95cH/n6avd6X25/CJ3/foNYUe65RiOMKRbb85HQWwc+k1/CNKgOuRPqyX+NyTw2qb38OX4oS2a3Rc+BJsV6OC7X79Jpa4GR5rNpmtloRznz4Ij5/6oBaM8jWFRFQqDVDgy/nR7+/g+2x/uPQj8vPvj3/sduPx86+Ty3wmf4P7b7g7Pvz4ujC2WjYpFZlEFUkXpWF/8Zl9w0Q71d5PKZzZ+xDy3W6AqfEY78abTpOh/Pa4j7V/RDP58Sl8jwZL5L/XJjp59IfYthfJ+28QRzn2kwtH8v46wo4X1qpE+f9hmVqE2rGfIOtv+MPJxORX5xafmS+jAoyFk/Ulhf3Av1vfQnTL9FrbNlyL8qPiBtdR/jKZPByj0NABPFx2f9WEfjA2N461HTsh18X/VzdrwdNK0QwU79J359cyo9koWiqf58+XQtFXRlQqbqbatGh96+woKd+XL59iKoy2DG2J5eoAp9rF2KwDHxkkKLyet6fuwudJ0xSFcJ3wU/fQOf9xjbE8qcP8GWPYgy2bUsPfGQg4697OP3XuLSLqiCpwAciKPJv7yS6RXFczg7gq5PqpkU2clb9Gp0OvKhaRMrR4BmAnk/9RN0vL4YqmDJaTRbuAAb+Gv18dQQt90YPbHytK6LeGXV3xBxbaz5Bqtrnl9Ot+5AXb389U4L1xGu0C3nDJy0EPmp/5uPf/yG01jJrPlFnXHbXxfhCnidx7i5bdqd27vZ/KELU7GtMgave0qYFGtr27OdVCHufQHrR79EzfbOq9yKOesXrtuwunK/ul2RgoweR+raM1ymgtS+7CP3uk8/B2KdXbN/oFv0HjprK9WBHbU9bogx8iIiCiEvwc8MNI8RHdC3KTQHMli2vYddpEcQM8gcsy8v/qJcVPIwbZKtMQT90kC06lsBHsQREf0X5XnH56doLE7T1n6NIBE0yUJmxXyvQLC+XAYx1nzrZIuRvhcL+fVqgk9E5HsnNI3HpDTkOrTPLUOPQWtOSr/9+G2o+UivSscdxWCZI9+hvat4fif/qLP47uMvSguNdfhuOH1MrUmZnceFsRsPHptYgmXgdxXE5uxIXyuPw/tvW8qAHDv7WgX+gSb4AnTO1C+v504eJ4EFcAM0tFpteQ612sRf3qW6ji0YPQAfvDtQGtAZF40qkD8v2t6T4iAtzi603VhddI5tdatAUcrSZf3/mVpJvnnpdBBki8BhmDjLEK3ug3BcAdMDnpufcGReau9Esx/8PnLAESJHsU5CtRr5tHYD3gKjkudhfRwSfl4nNNZSbghP1OnUYWGRLWpatS/563/zrcxFAenBBd1VARNSG4hD8DMENWbL1Zp+pu0nahqNN4r/ULiLQMWzDUxW7cUa24siWoo5nsKvC1pWl1By0BkRbTsrI5RJcLlt1evYSwRZQf9LeKvNXfCJblyz7FE43asGO318xI9pWnZZ0GYn0NOD4/lgFFIG+bmhWtwwb8D+yxcWhRcii7qS4GKUg+5dvWFuEYuSip2TXjLjovWbvdvHi60PqpqK1qmjBzpXwXCku9g4Bk/WC+ROkihf9zIF/BdSLyvAfoZPYbYutNbGi9nemwfpOdAwyxPk69S9TgHeyLuhzth//N8flG0EFSBHts+Vze/6PrtC64exBnmWfBu/n8Pq61drOk/0agaYO2MAuLyIyiUPwk4U0mecju5amvmpZfPk6ZieexcuyFUc4s/c1f2tMxM6gsUHdtOuYpgVHZ4VqXfmfOrXeajJ3aB0Gm5b+g1LUfX7e5YXYtV0ERTIAUvWu+elIda+iDa8vw3EtADK2t9DUghQh2cViGtmkd1uZc0kiEOIC3+HSOCRQd79YXMgDg7J4O3M8WKuVLXiIoVjt8/x0+U6RXZjWEW39is7aX5vPk4tqUfNOLQbszkL2uBQsVeVERFIcgp9aNJ4W/8luKlOujG+xJyn3fEJLMK454s+7ibmAlp42pFpX/itTrbeKSpqWEyCacnm0IMeB7CLT6zyFGvEF+KJB0wMDINn9ZmyrvFqs56BntAGQbbSX3pITe8Ev3q1w6N8x64b5psEr/s1GaqvmATqJr9q8pSSyferP056fYyxRBr0x8tg0EfTclIUd/UQQtLIZk1U5EZEUh+DHqXsrmJ9jwfAsLVCaUb4Ou0TQlD38CZXHE9qEHuJxpz/HFtlSpOXsdMCVV9pzdn6Oa7qKi2XtNseutND0IK5DmthPaxz7b8jQ5NKeMUgivra/Nlrs+JZIZ37egOMvqAAoPUeVOfjoPhUAZeK/4tANFh7VBWNJ5NVZu1lq8LWo1iHd2sqg5QGp28GprjWzTXVaEnP6Nabk4GBU3WAtUHr3XAvb2vQvnBLHH1hHHVvNJ/48mlbQ8o+MLqcY79Oxe6uVYr3Nx3anic+iMxiZrwqIiIQ4BD/A8u0qj8c0GiuQHHZeaEqMVvk/yEJRyMcJPZ/QutBqdhqtSHoCdIfed1lGdk0o0re/IapcHhXEmUejRWUZvlDdT9ZWl0nIjnRUldaKZA2k5KiuwG4vse37n4BlWjeVe/RlgwxudHLkWPa1akXx9JTBUR3+x5wY3ca+eWqzNqopxzayK2ugB2c+NBJ/jSDJnwAth1zndPZqgYefCpKu/JHKZzGG32srJkZycJFtpNJPcLn5ODRqmwFJvYovObvIOjpNOH/6Q+p4D6Bhc41WxzzK6vzpd+p5UmtjkHs08SFtyHvDZqMFLsb7fLUcR71yhFkMZ2RWLXCXj7afcyKi2InjPD9yuLsMPqxqNk2EHJE1oUjPAbLPm+M8z4957h7JOmeQIWCOnoC5gNQ8P3CYI8iRfa6iwOMNmxzuXmRudbHOpyMDEafcHckyP49tO/K+KvxaPLbOOj9PwPw9wPHyQutIMSFgzqAof1PMeZ6fQPqcMLDNK+MkcO4X/7wwfpa5d7SRTvDNUeOva92WNg/NcRGYyPlz7MOotXl1zO/aYHPMhHF82tw71paogLmKWtqfdn9ndb7UPtWILsu5ROC+ZKK043lu8Tnq+wl3biTH+Y9Mo84c3xvq3Dj+BlvYr0EYOM8PETlI/B82VcGPnL/HPIydiExCBRNuxuCHiBzEpduLiCghVJ3nbw0lIlIY/BBR+1V5HupxBtcXR9qRS0TtGYMfImrHLsComzJR1aNOm/enZhGDICJKhpwfIiIiohhiyw8RERG5CoMfIiIicpWYBz9jxoxBerp59hMiIiKixMGWHyIiInIVBj9ERETkKgx+iIiIyFUY/BAREZGrMPghIiIiV2HwQ0RERK7C4IeIiIhchcEPERERuQqDHyIiInIVBj9ERETkKgx+iIiIyFUY/BAREZGrMPghIiIiV2HwQ0RERK7C4IeIiIhchcEPERERuQqDHyIiInIVBj9ERETkKgx+iIiIyFUY/BAREZGrMPghIiIiV2HwQ0RERK7C4IeIiIhchcEPERERuQqDHyIiInIVBj9ERETkKkkU/AzDzJfLUFamlpdnipL2bCTmj1qHNVePVOsOBqzHV3NqtOXbAaosWUyrwOzKQ5j95nJkqqK2lLfk7O377HoS36r3zFd3PqnKHHR8AmvGvIH5HdV6LJzl1zwpTXwI/Vb9Hv2W3YXzVVF7NHxkEdY8fAf+PNKjSpzdXXyHVu+ZPqqAKEpJEvxMxNNlD+Kqz55HcXGxtjz/2VV4MIkCoF8t+R0q3xyPfLXekqmDpmNQx2q88+kGVWLTZQX+92e5OO9v2bhwTjbO26HKKWFc8NM3MHj2QoT+OG9rj+E88X65cM5KnJczLngAdPpxvHM0BYNGLcRUVUQtO3/6XBGsPISL1DoRJaYkCH5ki8/NyPjgedxVulmVAZtLl+IjXIvJJXr4kz/vcVRWigDDYVk8TauSNH589Ru47fJmbF9/HxarMrvv+/XGd41bcW6yBj2LCjA3vzvm3joBdaqI2tJjOPd9L3BxN3yvSuwWb38K20/n4LZRT+DHqqxV+JpH7tXnsPv232D3pNfwjSpqjzY1NGn/H28Q78kQDp6U93tx6oS+ThStxA9+7rkF13oOodIU+Og2Y9NnzUi5pIe2VjnrCeTnPyqWxXhf/h1Vv6PWH8XURVqVJDEJY3um4Mv9L2LmaVXk4Pv0xGpPoCSVlhE0+AE2YOb7H+DLjtfh/lDdr0RESeacrKys4J99URgzZgw2b96MhoYGVdI6E58pQ/4Ja6uPzz1Po2w08Hbxb/GqKgJyseDNqRjcIIKfKZWqzJCPxZU3AWWPYlWXxzFjiJHQUIvV+QvxR7UmW5Fm9KrCgluP43ZRP1eVf7ltMW6ZVaXW9K6ssek7Rb0V8O2pYDzeKslDndjH1M/120GbwJtsjxVkq8//7VmHN9YEb/WR/nNnDb65eCsueH48zlFlfqW4s3Ic0rYtwAvHbsfsYuMZADVl3fG6JRjU62arNaAKa/MLsFOtGTLn7cbkIbaAq2krlqpv8fr99bbHmo5j1lK9SOZ9mI4H1Ssxd0qJWjFEcvyTUfjmDAxMVaviW+GHpf2wrkKtKi0dv5nMBxqd47ydlk1C9uxiXKrWAlVj/9z7xFEK1y7E4KJM1PzpNvzPyHXoqcfxgqmO4Jkg7uv8AXa98Di+VmXo8gSu+eV1aC4vRM1HqkyQXW39B6WoNfGe3f4UPvm7c9fp94V78PXgepw/Z1TIb0FTB63DbZdXt/ieDCqM11w751iJpfWF+usk66zuhvtLrkeauN/yuhcs95VbObxmP56DVY9ch5SDb6Lo/j+pwmj8BJevKkK6WpP7OrpwNho2ydv2++xqUH37c/hSu63X7fDhi/j8eBH6Ffn/8hrKf4OjxgeZzPUx3Yeacuye/g+1YtC3BfG4E5fORc+BxvvbvD9l+F244r4B6KBW/czPo53Qrgvd0WzrLSAyS/CWn4nok92Mz7bpb2AZCFkSng+eQrN2T2Ryi3+HGRlbTC1FWRhrz8dJzcMMFShp9cpqcdGQqZF1oVWswC2q9Wl1tViXwY5a1xZb4COTnPO7igvX0V3RXWRs0obMEBcdiICku9bdsHSbF9nFu1FYoCrIi4gKMrTuCLGsrc7F6MoK5Kkqkrww6YGNXkevp+6MlNH1kb8AH+ot3UG1ePxakCQCnwZxofTVAQaWmOtEevyl6J0j//cgd8RkrSQyy1AztxDvi2XXdvnulIGMvq4v/qBGl4LsX4rgBmXq/qdQ05iDnvc/gQtUjXDJIKn/oDr//v70ATBoOq75aetabRYfkScrB/276OsRC/c1Ty/E2Ix1mFsmvmDkFOL+e3ujqlR/THb/Ur2OCnzge88a25RBe2CweuPQXuIMCz364ZdaSTRUcCMDENkFpS2bccFdRhLyP3BUle//UL66Mvgw6snFFogIHQb+WgQ34t1helx60VykD1cVjO6u21/EUesbJkB60e/RM32zqX42cswJ0irwgQi4rNuUx9nOAh9hYu/u2v8pVw1v54NiqDUSO/gZ0RUZqMeRjcCwktdwc+eP8HxxMd6uEfedPIKoY3oZhPhahapQue+0CHY64wpVYqiSrTfGt81F72jdabn9w01ZjkLHkejVUez3yDJV0EqyZcPUElO3cS8axUU9XT3RvLHi27Oos9polRF2TlkpPhJzMXSeuvCLi81QEQzUlAW2BsVdC8efOa8Q2fKiZ2pFqJu1UFwMPRg41n+xjOz4S7BXC4y8qNroPy/xJFtn3l9uvOYb0HhABE1pnSMLfro8gW49gOPlpuDq2OOoEgHYRYOKHZOuz6mvV7dacGyXOMvifHvi3PWVKt77q43XUhzxvoX+YCa9mzZCLHNEb6SJo3nP955dinXr5dHlorfDF5N339unf0E6uBtRt/sMz9RaTBo+Mbe8iICnNXk43h3YbwqKvvnX5zgjnvMF+nU7MnJbvlahA/AeEO8Az8W+4Of8H10hjr8GXzx1QJUcQMNm+SGajdSJekm4bnx8FcrLy4MsqzAnJslhrfPq3kPa/82fbYr+GkHtXmIHPz06IcV7CgdF/D78qhT1Zh6Grp3FG/vEQVUpcl/u225rcXFSi52W7pUq/LfsyUu/NOwRWxHr2BkXiY/qkyFyfXRP4j/ign7uZxscurxMGg5bu3QqJuAF8W1Z7z7QWzga971r6/aphsw9TMvQmj98F5u9lnPRRkIe/2Tk9ZLdIztsQc1S1Gmvk/ViGcnx75wiWxSi6fKKTvMJa7fU13+/zaGFKLQL+vQS751qnDR1gUlfn9A6JfFfTq02X9TjXBE0fFfYUguX2K54T17k0d8TcdO0FztN57zxWGDweVmGUxgnedHwubpp9s85uL2oqHVdXpvqRGCit7BcHmGwENTJOmvgtOk1fH67qdsrAmcO/CtkEHZ+0PxAL77W44SwvfvE7SiS59NxuR1z/qkqnk0v/1YbEcwuLwoloYOfYZdm6C08I4bjKvH3W39cvpl7oJPvttsYc7QMwA/mZOOH61rRMlHQTcuZ0LqW5NwrvsWcP5PIcpAujzNnnO34Zb6OXsNNLkiXnTs56Dl7HQabl6IQJ+PYePxQvI/OTZ+pzfvzvy0GQWffztVb0WhumZQ5X6NyAwKn2JLdWnpXkQyAtHl3Vpm6qBLcl2t3iOAtG5dNv1KVXIn0Ydki9vkc3nbW5UUUrgTP+TFrxinZ2KN1hZloLUNuYczRsgP/ae3FquKwuIiIb9emfB/LEpCEnGj0FiotMdbp+F02nPrrBqf8ImO5DceP6fUs5FxR4n30n336XFGtCqbbyhUZtqBdBOtwTlyPrQNomKTn5+xeKIMJDy6/L0kCoO4Xa912Wp6RFrj9GpdjB/ZH0W2XDN1eROFIouDHTAVCslusNbk/EclHnvgS3VKXWf6IXMfRXZ/XO+cVWZw+iS+Rgs4tzqr7GH5QDXx31cgQw5RbYu3eCqbumMwLyUCmKYHYyKNp0bQBplFksWbt3gommuPXZn+utCZNRyNkl1Mr6d1cftHsS5srClX4QYtzReVo78kvvdFmuceKauWxB7yhAh852ktemF+IPt05gOyiUgGQPUfnm+Mnxb+dcWHCBEWqlceSrC2WKPOVkqLba8RMvOaKXwGg1kii4CcFnXoAE2++Vh+9Icis/kN7o+gkj8Kvlsgh77VYZxrqrgc0uchXF0ltiLxv+LxV5TH5oZiFwnmmIb92pzdA5l7ndp2kCuJJJYrmjMP9vi4EB4t2oEZ8yPsSiOUIKznapsmakaIHGaakU/vw5jjQukBSr8fkJcaxOQjz+P1aO9rLpE4PZrNHtu711Fp10nohTQU29uHsmo/KUNMoR47FYUbpLv3FKyuejjfIbONtJryA1ywmo70mPoQrfF1GOj2J2CFn5tC/9Vah0T9RBWfbAXylxWOZ7frnMcyGDblKf8091+KWe7QiogAJHfxsPi4uqJ27YtjG+aisAbqP1uf8ebsmBdc+UIab8TZ++7Je1z/D81QM1nJBbmrlDM9ZGKseLxdtPh/TXECSnFhxdXVHDC7R62hzA+W/I75LO1i0EAu2ndaGyxvbDPy5iw2oPCIudJf3b5ufFJBDkEu3AgF5P+ZWjxK8Luo0+nJrCtFQ2h3vNdgusWJb+lB0tQ1tiHrg0Ga9VUUuKrfIlLNzZ6Svk5YAvRI1Dnk//m05H//qferuADEc7XXscXxSLjbWo9iUhxN5cCIToPcf1IfEy230v3Ifds0tw3F1v24Djr9QKOo55P1MaF3wNbWriAZPf4DVTl1nYYjla66NRpQBr3q8eXHaVkxGe736nPjac6fqMtKXngNPOg8Tl61C5eLDKrvIVD/yn7u46Cnjsb/G5fINY9pepEnXX04vR4NnAHr6jse/xCyBO4FsLq2EEZNmXMq2H3KW2JMcyubLBzqh0jKJYfzpLTgnLRMftp1JeGlMMXKPlqFge/Ah76EnOYw/eUEbnd4WuRYUL2FNcih/4HTUdah7vxD3Rhn8xI4++WW2w+SU2vsx6okp2zM1R5EcDm/r6pIBVk52O5zkUJBzwt2c3YyP/nAX5m9UhUQmid3ttXETPvN2R776/S53WIbV+2XrTzFeCpG/cU4Lv4FD1HojMX/wdbioFa0+MaVGKAZOzyBH7fPvwZGao8hpOPw37fUzRHxpzpfJhjWVDHwoqATP+dmM+ZsOIeW6B/G0ue9Wtgg90w7ba5V/fnob3jgK5A5+A/ODJD9rE9SlXY/vBqgCoog8ie8GeyDnSQr2ITB10HQM6liNN9Y/jkTIYzVGKKb1utGa81OwHGPlT2LEdbh7klJzFHW48kfWnJ/hdyFL/hxGuxruPhFPy0TnB65F/dpiFD/Slv0FlGwS/re9NOq3Wvzi25x5dru9DOJb96jp6HXkKYz5NEii6YD1+OpnelLxeX/Lxnlt+Avv7PZKVnKuqHH4Vt5sDNFtqnV39cK+9beF/IHdtqe6vtSaQU7Z4Pv9OLJx/u2xM/L3xXyzPhO5S3IEP0REREQxkuDdXkRERESxxeCHiIiIXCUu3V7bt2/HyZNyZi0iIiKixMKWHyIiInKVuLX8HD16VJUQERERJQ62/BAREZGrMPghIiIiV2HwQ0RERK7C4IeIiIhchcEPERERuQqDHyIiInIVBj9ERETkKgx+iIiIyFUY/BAREZGrMPghIiIiV2HwQ0RERK7C4IeIiIhchcEPERERuQqDHyIiInIVBj9ERETkKgx+iIiIyFUY/BAREZGrMPghIiIiV2HwQ0RERK5yTlZW1vfqdkyMGTMG27dvx8mTJ1UJERERUeJgyw8RERG5SlxafjZv3oyGhgZVQkRERJQ42PJDRERErsLgh4iIiFyFwQ8RERG5ShIFP8Mw8+UylJWp5eWZoqQ9G4n5o9ZhzdUj1bqDAevx1Zwabfl2gCpLFtMqMLvyEGa/uRyZqqgt5S05e/s+u57Et+o989WdT6oyBx2fwJoxb2B+R7WeaAqW4375/qmsQJ4qImfnT5+LfqsewkVqnYiSJviZiKfLHsRVnz2P4uJibXn+s6vwYBIFQL9a8jtUvjke+Wq9JVMHTcegjtV459MNqsSmywr8789ycd7fsnHhnGyct0OVU8K44KdvYPDshfCo9cTwGM4T75cL56zEeTnjggdApx/HO0dTMGjUQkxVRURE7UUSBD+yxedmZHzwPO4q3azKgM2lS/ERrsXkEj38yZ/3OCorRYDhsCyeplVJGj+++g3cdnkztq+/D4tVmd33/Xrju8atODdZg55FBZib3x1zb52AOlVEbekxnPu+F7i4G4IN91y8/SlsP52D20Y9gR+rsoRRMQEvyPdPfgF2qiIi3HgHStc8iUW+ZRpuUncRmSV+8HPPLbjWcwiVpsBHtxmbPmtGyiU9tLXKWU8gP/9RsSzG+02ioPodtf4opi7SqiSJSRjbMwVf7n8RM0+rIgffpydWewIlqbSMoMEPsAEz3/8AX3a8DveH6n4lSgT/zzQs+k1/4IMlmDbmMbEswQfeLNzMAIgcJPw8PxOfKUP+CWurj889T6NsNPB28W/xqioCcrHgzakY3CCCnymVqsyQj8WV4s+g7FGs6vI4ZgwxEhpqsTp/If6o1mQr0oxeVVhw63HcLurnqvIvty3GLbOq1JrelTU2faeotwK+PRWMx1sleagT+5j6uX47aF97k+2xgmz1+b896/DGmuCtPtJ/7qzBNxdvxQXPj8c5qsyvFHdWjkPatgV44djtmF1sPAOgpqw7XrcEg3rdbLUGVGGtw7fpzHm7MXmILeBq2oqlquVGv7/e9ljTccxaqhfJXB/T8aB6JeZOKVErhkiOfzIK35yBgalqFV58WNoP6yrUqtLS8ZvJfKDROc7badkkZM8uxqVqLVA19s+9TxylcO1CDC7KRM2fbsP/jFyHnnocL5jqCJ4J4r7OH2DXC4/ja1WGLk/gml9eh+byQtR8pMoE2dXWf1CKWhPv2e1P4ZO/O3edfl+4B18Prsf5c0aF/BY0ddA63HZ5dYvvyWC08wnxOq/uhvtLrkeaKre+lup1bAis12h+/8hcH9N9wV5Dg/11t2xLCaeO7pf4Q/mtyGn6AL8bPwfvqtKIDL8LV9x3BU4tnI2vRv8eOcYfnncH9k96Dd+o1YueEvd1tpbpjx2AM+W/wVHxgafVQTn2NwxDz4Hi+GvKsXttplang6jeoOrJnJ+eA0+i+vZPkLqqCOn61nDmwxfx+VMH1JrhJ7jcVEdsVDzuOXyp1oz7O8jHHi9CvyL/J4exv7MjB/e8OgXX/fvvmPbwP1WZ9GM8uuanuFgERCULqlWZTl5bbs5uxkd/uAvzN6pCco0Eb/mZiD7izfnZNj3wkW9WS8LzwVNo1u6JTG7x7zAjY4uppSgLY+35OKl5mKECJa1eWS0uGjI1si60ihW4RbU+rZZ/dzLYUevaYgt8ZJJzfldx4Tq6K6qLjF3akBkicIAISGT3QHcs3eZFdvFuFBaoClrSqB5kaF1QYllbnYvRtiRSefHSAxu9jl5P3Rkpo7srfwE+lC10IbR4/FqQpC6YvjrAwBJznUiPvxS9c+T/HuSOmKyVRGYZauYW4n2x7Nou350ykNHX9cUf1OhSkP1LEdygTN3/FGoac9Dz/idwgaoRLhkk9R9U59/fnz4ABk3HNT9tXavN4iPyZOWgfxd9PSo54zC7pDeqSoO9loqt3tyyKu19cKfxd+fr7mrpPSiDKfm6QwSxaltiWY3bQ783SrcCYn/3z3N47Sf3E2dBSO2FG1vVD+jB5ff9Hpc1vIjdt/9GLOVo8AxAz6d+ou6PQOdhyErfjN3lNUD2MFxxlwysXsRR8SZLv8a0PW9nXCaCFogARdunqN9h4K9x+UR1vySDKxXY6Mf1G1TXZCPHIVlaPraf2Fy1qrf/Qy/Si+Yifbiq0NZuHISrRPx3aK858AGumnE9uov/PVeJ+/UiRV5b5P8puGpI+x46Q84SO/gZ0RUZqMcREZUPK3kNN3f+CM8XF+Nt8XeOk0fg0BYUHhmE+FqFqlC577T4QOuMK1SJoUq23hjfTBe9o3Wn5fYPN2U5Ch1HoldHsd8jy1RBK8lvxaaWmLqNe9EoPnjT1RPNGyu+QYs6q03fcndOWSm+6+ViqPHhLwKkoeITv6bsLORWtHD8mfMKkS1bqkwtR3WzFoqgyoOBY0v1goiPvwR7tYuqF1Ubnb79x55snXl/ufGab0DjARE0pXWOLPjp8gS69QCOl5uCq2OPo0oEYBcNKnZMuj6nvl7dasGxXeIsi/PtaU0QZW1Jq5u1TrzPnAJM2fJoanFbtEPUE6ejS4SB6LTbMTA1sPWublaBf93pvSGCq9UiMEsbcnvgKLKlu0UoKzTtw7vWa2zkaspNrS7/QJN8kp0zcb5eED7xwp5a+w//yoHX0bBJrZq35/H4Wow0r5brAdKwu3x1Lho9AB28O1Brag36croIzMRf2WXTr1QlimypMrUIffOvz3FG7P8CGWmEa/IfUF5eHnT5QyQveY9OYu+n0XBQrQs3PfskfnNVNd7+QHy+ezppQZDfq/hYnnPx9dn4ck3uktjBj3hDp3hP4SCGYfhVKWj+bJMIeIaha2fxlj1hepdH6Mt9220tLk5qsdPSvVKF/5Y9eemXhj1iK2IdO4tvWM04GSLXR/ck/iM+tM/9bINDl5dJw2Frd4D61qx3NegtHI373rV1GVSjQQR5aRniTiFzRG+kiee+13Iu2kjI45+MvF7iw756hy2oWYo67XXqpg1jj+b4d06RrQDRdHlFp/mEtVvq67/f5tBCFNoFfXqJ9041Tpq6wKSvT8gzmIn/cmq1+aIe54pA97vClq4yYrviPXmRR39PRKVpL3Zazqf1febTVI8v1E1dCV4Xr7lzN1Rwef1zHfZpFey9UXdMBoUZyLS3SuFPeKCoCEXRdnmZNHxiBCyt5P0cXiPYEc4ct3djGWrQZOmSOoCv5G9Pey5Wwc9PkJotHn/gX/5uNk0NvhZvxA7p/u4tzck6a71Nr+Hz2yPs9lr6AIrk+QyyPBD1dw/Z1fUkbmxYgmkT/4JDqtTu1UfkyGF2eblVQgc/wy7N0Ft4RgzXmjTrj8sIvQc6+W67jTFHywD8YE42friuFS0TBd20vAmta0mbL8VYzPkziSwH6fI4ZTeJ5fhlvo5ew00uSJd5PjnoOXsdBpuXohAn49h4/FC8j85Nn6nN+/O/LQZByWIyMmXSij14trksQ3yQiOBvtO39Y8lJa8e+aTCF18MztTwhrTtr1e9Ny69xuTxNyaKHHO31U+BvjwXk+BCZJXjOj1kzTsnGHq0rzERrGXILY46WHfhPay9WFYfRKP6TyZ1GPoRlCUhCTjR6y4GWMO10/C4bQv91g1N+kbHchuPH9HoWcq4o8T76zz59rqhWBdMJxdr6F8wX9fLiL7vZHN4/bdjyd7acL0eMev+tt+BsqsMZ8Z9MgjbyfSzL9Bi1VJnFstvr4Cl40RHX/SwHn/3+Mfzu/1PlQvf0jtp1IlgLELlTEgU/ZioQkt1ircn9iUg+8sSX6Ja6zPJH5DqO7vq83jmvyOL0SXyJFHRucVbdx/AD8aXmu6tGhhim3JIg3Q42jl0AKleiRdMGmEaRxVp4F7hojl8mwc6udEjGjVDILqdW0ru5/KLZlzZXlLj4/6DFuaJytPfkl94YfpMuuBG5qUDNrvgE2Vpgk9obeSFew+DdW8HI0V7iwrxiDm5UJW3p/B9dobXOxIbezeXvvgrSvRVPsez2enc7PpOx7KGteNnSJ/lj9OkuYp/PxP2qxCDzSOXgmdfUXHHkLkkU/KSgUw9g4s3Xilu6ib2749Dethlb+aslcsh7LdaZhrrrAU0u8tWHpzZE3jd83qrymOxgz0LhvBBN6qc3QOZe53adpAriaSnWrRfPJWec88gWg5ZwakogliOsSq4HmkxN5oJ+IclFb2NUjn1IexzsXL0VjanXY/IS49gchHn8fq0d7WVSpwez2SNb93pqrTppvZCmAhv7cHbNR2WoaZQjx+Iwo3SX/uKVFU/HG2S28YhNRuG9erJ9RZxyyYyE6oEl1pGLmfMq/EHtolV6crytTlAxG+3VMq1LynMFPGr0lD5cPXav7EVPyeHsNaj2tegcQMNmOWKsCFfYk5uTQjVe3lgLdP8pHv1/VJF4te559afo7t2FlwO6wPQ8UinlultgHvRG7pDQwc/m4+KC2rkrhm2cj0rxd9l9tD7nz9s1Kbj2gTLcjLfx25f1uv4ZnqdisJYLclMrZ3jOwlj1eLlo8/mY5gKS5MSKq6s7YnCJXkebGyj/HfFd2sGihViw7bQ2XN7YZuDPXWxA5RFxobu8f9v8pIAcdq6G9lpyHiytHiV4XdRp9OXWFKKhtDvea7B9EItt6cOX1Ta0IeqBw9n1VhW5qNwiU86ObzhzuLQE6JWoccj78W/L+fhX71N3B4jhaK9jj+OTcrGxHsWmPJzIgxOZAL3/oD4kXm6j/5X7sGtuGY6r+3UbcPyFQlHPIe9nQuuCr6ldxSX/9AdY7dR1Fi4ZpPpeHzU9QRRdk3JOHuM11nK7TNu1BvEyUVq+/6w5PWOxytSdJb4A3CqHzDvk/TgF1LEc7dWCb56ajeoafUi8zL3peeXn2C+HxKv7I6GPxJJD1v25PNocQpb5e4RXn8PuhTuAgLyfsziEPRL/3yJM+1stuv/MmN15Cq7DLvx+4l8CWn3kJLnzNxkdYRnoOkLdJNdI7EkOR8zEaw90QqVlEsP401twTlomPmw7k/DSmGLkHi1DwfbgQ95DT3IYfzKIGZ0eeoI5SmxhTXIof+B01HWoe78Q90YZ/PC9QolJ/mbkzeju/QjP3zO/jdInKFEkdrfXxk34zNsd+a7qk12G1ftl608xXgqRv3GOeaQGUVyMxPzB1+Gi1rb6ECWgYSX52tw/hzYx8HGjBM/50ZsmU657EE/fo4ok2SL0TPvtpf3np7fhjaNA7uA3MD9I8rM2QV3a9fhugCogisiT+G6wB3KepGAfAlMHTcegjtV4Y/3jiHMvD1HbkT+LVFaGB6+rx9vFxb7UCXKXBA9+hJd/i+K1h7R8H99PWzxwFT57uy07wtqe/ovaKeh1eZBZdXeMwoV/q8K3P5Pz/tTgWwZBFBZjrqhx+LZxKy54/TFVbtPxCdx0eTO2r4/u97yIEpa8poigp7iN0ykosST8D5sSERERxVLit/wQERERxRCDHyIiInIVBj9ERETkKgx+iIiIyFUY/BAREZGrMPghIiIiV2HwQ0RERK7C4IeIiIhchcEPERERuQqDHyIiInIVBj9ERETkKgx+iIiIyFUY/BAREZGrMPghIiIiV2HwQ0RERK7C4IeIiIhchcEPERERuQqDHyIiInIVBj9ERETkKgx+iIiIyFUY/BAREZGrMPghIiIiV2HwQ0RERK7C4IeIiIhchcEPERERuQqDHyIiInIVBj9ERETkKgx+iIiIyFUY/BAREZGrJFHwMwwzXy5DWZlaXp4pStqzkZg/ah3WXD1SrTsYsB5fzanRlm8HqLJkMa0CsysPYfaby5GpitpS3pKzt++z60l8q94zX935pCpz0PEJrBnzBuZ3VOttSHttxHvj/nmTVUkUjPeXsSwpVXe42PC7cMWq36PfqodwkSpqlzKvwZ8fvgNrJl2D4arIyfCRRVgj6v15pEeVkJskSfAzEU+XPYirPnsexcXF2vL8Z1fhwSQKgH615HeofHM88tV6S6YOmo5BHavxzqcbVIlNlxX435/l4ry/ZePCOdk4b4cqp4RxwU/fwODZC5FYH62P4TzxfrlwzkqclzMueAB0+nG8czQFg0YtxFRV1CoFy3G/CELunKbWW6UUd7YUHC0qwNz87mJZgA+bVFmyUcHK5RPVOhHFTBIEP7LF52ZkfPA87irdrMqAzaVL8RGuxeQSPfzJn/c4KitFgOGwLI7JB27b+fHVb+C2y5uxff19WKzK7L7v1xvfNW7Fucka9BgXp1snoE4VUVt6DOe+7wUu7obvVYnd4u1PYfvpHNw26gn8WJW1hZ1TZNDSHS/MWqpKKCY2vYbPb/8Ndt/+HL5URe1SnRfH5f+nvNikFTjb1KBHxccbxN8BuU7iBz/33IJrPYdQaQp8dJux6bNmpFzSQ1urnPUE8vMfFctivC/f09XvqPVHMXWRViVJTMLYnin4cv+LmHlaFTn4Pp1NtRQDaRlBgx9gA2a+/wG+7Hgd7g/V/UpElGTOycrKCv7ZF4UxY8Zg8+bNaGhoUCWtM/GZMuSfsLb6+NzzNMpGA28X/xavqiIgFwvenIrBDSL4mVKpygz5WFx5E1D2KFZ1eRwzhhgJDbVYnb8Qf1RrshVpRq8qLLj1OG4X9XNV+ZfbFuOWWVVqTe/KGpu+U9RbAd+eCsbjrZI81Il9TP1cvx20f73J9lhBtvr83551eGNN8FYf6T931uCbi7figufH4xxV5ie7BcYhbdsCvHDsdswuNp4BUFPWHa9bgkG9brZaA6qwNr8AO9WaIXPebkweYgu4mrZiqWq50e+vtz3WdBzGt3iZi2E6HlSvxNwpJWrFEMnxT0bhmzMwMFWtwosPS/thXYVaVVo6fjOZczI6x3k7LZuE7NnFuFStBarG/rn3iaMUrl2IwUWZqPnTbfifkevQU4/jBVMdwTNB3Nf5A+x64XF8rcrQ5Qlc88vr0FxeiJqPVJkgu9r6D0pRa+I9u/0pfPJ3567T7wv34OvB9Th/zqiQ34KmDlqH2y6vbvE96UQ/l2rFgfn1tNe1v9aOr6FJo/l95qPeHw1O7zOdfbvO25F+iT+U34qcpg/wu/Fz8K4qjcZFT/0eOf4/Opz58EV8/tQB7bb9PruG8t/gqPaBdyXSl/0al58sx+61mbjivgHooNWwbk/rPjPdB+8O7J/0Gr5RqwZtvwjcln9/BrVfh5fCst/2YMRMvPbAtUipeRvFj1hOAiW5BG/5mYg+2c34bJse+MhAyJLwfPAUmrV7IpNb/DvMyNhiainKwlh7Pk5qHmaoQEmrV1aLi4ZMjawLrWIFblGtT6urxboMdtS6ttgCH5nknN9VXLiO7or4IuMkbcgMEThABCR6N8LSbV5kF+9GYYGqoOVh6EGGnh/RHWurczG6sgJ5qookL0p6YKPX0eupOyMVQS5Gi8evBUnqwuarAwwsMdeJ9PhL0Vu7AHuQOyKahNtlqJlbiPfFsmu7fHfKQEZf1xd/UKNLQfYvRXCDMnX/U6hpzEHP+5/ABapGuGSQ1H9QnX9/f/oAGDQd1/y0da02i4/Ik5WD/l309UgYXVhzS7eiUazLgMZ4DeRiDm7sde3qZvVTj1uJGrEugxTztqLpJgt4b4h9Q7zvHPOJJvcTZ0FI7YUbW9EPqAc3NajWuqD05Yv0O5GusnO/nK7KF+7AGbEugw+jnlysgYiQXYR+912BUwtVnfIadBgoghMjV8jX3fUbVMsTF4q2rYvxhaq//0Mv0ovm+o7NF/hABFCmOpI8znYV+AjDhlwl/kKF7D7iakTtSWIHPyO6IgP1OLJRvAlLXsPNnT/C88XFeFv+AZ88Aoe2oPDIIMTXKlSFyn2nxQdaZ1yhSgxVsvXG+HBe9I7WnZbbP9yU5Sh0HIleHcV+jyxTBa0kWzZMLTF1G/eKi4oH6eqJ5o29HmmizmrTRWPnFHlhycVQ48NfBEhDxSd+TVlga1DctXD8mfMKkS1bqkzf6OtmLRRBlQcDx6rRPREffwn2aoGRF1UbI7+YRkO2zry/3HjNN6DxgAia0jpHFvx0eQLdegDHy03B1bHHUSUCsIsGFTsmXZ9TX69uteDYLnGWxfn2tLOuL6f3RsUErBZBdtqQ2y1fADRLd4tQVmjah3f/qZVE4Upc2Fn8V/OJJe/my+mz0RAqQSUkGUiZHv/qJ5Dt7h0uvVJfj4gXRxf6c4K++dfnIgDz4ILuqmD4j9BJvJkaNvtbjr55arO2v/RrfqIXhGvyH1BeXh50+UMrBvvFyuZtn+lfsGs+NvUuUHuQ2MFPj05I8Z7CQQzD8KtS0PzZJhHwDENX8eHRfOKgqhS5L/dtt7W4OKnFTkv3ShX+W/sLvzTsEVsR69gZF4k/tZMhcn10T+I/4kP73M82OHR5mTQctnbpiA/2F8S3W/3btt7C0bjvXVu3TzVkHmBahrhTyBzRG2niue+1nIs2EvL4JyOvl/gUrt5hC2qWok57nbppw9ijOX69BSKaLq/oNJ+wdkt9/ffbHFqIQrugTy/x3qnGSVMXmPT1Ca1TEv/l1GrzRT3OFYHud4UtXWXEdsV78iKP/p5oL4K9N+qOyaAwA5mm1kPdn/BAURGKWtXldQBfnRT/yRaWpyIMFoLx/tvWhfUPHL09ylYY7+fwhgrCul/s7z6zOdPQUrOSzdIHUCTPZ5Dlgbb57hHaxvm4S44wZpdXu5PQwc+wSzP0Fp4Rw3GVuM7VH5dtPT20bx76bbcx5mgZgB/MycYP17Xi06Ggm/jgV11L5vlQZDeSL38mkeUgXR5nzjjb8YfOMWmvLkiXjfM56Dl7HQabl6IQJ+PYePxQvI/OTZ+pzfvzvy0GQe3LZRmyPUx281rfP5actDiQ3VpaV5EMgLR5d36PK6ZH00pzFrxajqPi0NOH3YXzVdH504chXYTqp/7Vvrq8qH1L8Jwfs2acko09WleYidYy5BbGHC078J/WXqwqDmt5Ffa8Cd8SJDk0cegtVFrCtNPxu2wI/dcNTvlFxnIbjh/T61nIuaLE++g/+/S5oloVTCehL+pl25pM8Hd4/8S55e+bp2br+Tm3v6gFEzJHJzkCoGxcIGNGzwD0VIFbz4HA0YVRdNslQbcXtV9JFPyYqUBIdou1JvcnIvnIE1+iW+oyyx+R6zi66/N657wii9Mn8SVS0LnFWXUfww+qge+uGhlimHJLrN1bwTh2AahciRZNG2AaRRZr1u6tYKI5fpkEO7vSmjQdjZBdTq2kd3P5RbMvba4ocfH/QYtzReVo78kvvUGzxFumgu20LrG4ooX33m1J8O6tYORoL3FhXjEHN6qS1juAhkkqAEq3/bVsqtMSnqPL3YkPvZXHmqy925xvFIlk6PbSJtiVg2yeZsJzO5NEwU8KOvUQb8Wbr9Wz74WJvbvj0N626Yv91RI55L0W60xD3fWAJhf56sNTGyLvGz5vVXlMdvRnoXBeiCb10xsgc69zu05SBfG0FOvWi+eSM66FmXJ3iI86UwKxHGFVcj3QJL81++kXklz0NkbD2Ye0x8HO1VvRmHo9Jof66YIwj9+vtaO9TOr0YDZ7ZOteT61VJ62XCBz0dftwds1HZahplCPH4jCjdJf+4pUVT8cbZLbxsKiAxSmROGIq8M0pbF2AumiVnhxfYh3dGFRMRnv9BJcv83cZaVQScWDOTA2+1lqFioJPl9HGvjkuP8c648JQvxvRntzTB3qud3fkqwl1qX1I7Hl+5Dw+w0/h+Xvmo8czZbhZfDFq/uB5VF7yoHYbprkXQgUe/lFb+jw/mbb5evTHnvTN9eO4LYc5eSRtrh/jC6hWR58bSA6Rt0+uGLDdOM/zk+04h45NwXLcL4IBmf/jZ5vjxlJHv69u7CGMTrfOk2OdL0V2J6xC5pszkLvPP2+KfS4XM/+8LhEcv1FXrRksc8Q4HP/OEeJYe+2Nwzw/NtpcPuYnbJ/nJwfHbXP1ONHm+jHmAWqUc/78Ny6T8wDYHmupZzhYZhpN5hfRPD+eD/D/rn8cUQ9y0gS+VgGvuVZq5zT3lH1+J+v8POG9z3SOdR3fezGa58c+744gh4kHDGHXiGBpVRHS1Zrkr2sadu4wb4/h/Olz0XOgc0gcML9QZ9u21LGeMR1f0HmIasqxe/o/1Ep7IX9h4EFcK08f5/ppVxI7+NEmmOqESsskhvFnD4ba1iS8NKYYuUfLULA9+JD30MFP/GkXDFvwQ8klrOBH/sDpqOtQ934h7nXKGyJX0QMfORze1tU18SH0K8puf5McCnKalQevS8GhtcX47cuqkJJeYnd7bdyEz7xua25chtX7m4HLi/FSiPyNc/h7NBR3IzF/8HW46PQHWM3Ah4w5ipyGwx/6t5af1P5MxC0i8IH3I7zFwKddSfCcn82Yv+kQUq57EE/fo4ok2SL0TPtNP/vnp7fhjaNA7uA3MN+5J0+foC7tenw3QBUQReRJfDfYAzlPUrAPgamDpmNQx2q80eruLmof1BxFnivgseT8XIn0u2Q3Xnsa7i67u2Sis/6j2sX3zG+jgTXUVhL+t7002m94GVOMSs346A93Yf5GtRpjZ7fbyyC+dY+ajl5HnsKYT4Mkmg5Yj69+picVn/e3bJzXhr/wzm6vZCXnihqHb+XNxhDdplp3Vy/sW39byB/YJfdxzPkJ8nthRIkqOYIfIiIiohhJ8G4vIiIiothi8ENERESuwuCHiIiIXIXBDxEREbkKgx8iIiJyFQY/RERE5CoMfoiIiMhVGPwQERGRqzD4ISIiIldh8ENERESuwuCHiIiIXIXBDxEREbkKgx8iIiJyFQY/RERE5CoMfoiIiMhVGPwQERGRqzD4ISIiIldh8ENERESuwuCHiIiIXIXBDxEREbkKgx8iIiJyFQY/RERE5CoMfoiIiMhVGPwQERGRqzD4ISIiIldh8ENERESuck5WVtb36jYRERFRu8eWHyIiInIVBj9ERETkKgx+iIiIyFXiFPx8jfXv1KJGLou+VmVEREREZ1+cE55lEFSH3IOZyJ52gSojIiIiOnvi3O11AVb+qwNw8beYrEqIiIiIzqa2yflJ/Ra56iYRERHR2cSEZyIiInIVBj9ERETkKnEPfpZ+cb66RURERHT2xb/lp+o8eNGIwjnfqQIiIiKisyf+wU9lCvrelIV1GUe0eX/2MAgiIiKisyj+P2ya34w9jzagfk0WRi1WZURERERnSdxbfiYPOwMP0rCDgQ8RERElAI72IiIiIldh8ENERESuwuCHiIiIXIXBDxEREblKnIOfrzHuR2eAgxfiMVVCREREdDbFKfj5GuvfqUXNO3XIbUrH/GkXqHIiIiKisyv+8/wQERERJRDm/BAREZGrMPghIiIiV2HwQ0RERK7C4IeIiIhchcEPERERuQqDHyIiInIVBj9ERETkKgx+iIiIyFUY/BAREZGrMPghIiIiV2HwQ0RERK7C4IeIiIhchcEPERERuQqDHyIiInIVBj9ERETkKgx+iIiIyFUY/BAREZGrMPghIiIiV2HwQ0RERK7C4IeIiIhcBPj/AU3Z3uiuOIS5AAAAAElFTkSuQmCC;" vertex="1" parent="167">
                    <mxGeometry x="605" y="64.99941176470566" width="575" height="510" as="geometry"/>
                </mxCell>
                <mxCell id="189" value="" style="group" vertex="1" connectable="0" parent="167">
                    <mxGeometry x="1328" y="159.00285714285747" width="518" height="258" as="geometry"/>
                </mxCell>
                <mxCell id="133" value="" style="shape=image;verticalLabelPosition=bottom;labelBackgroundColor=default;verticalAlign=top;aspect=fixed;imageAspect=0;image=data:image/png,iVBORw0KGgoAAAANSUhEUgAAAgYAAAECCAYAAACFRh8rAAAAAXNSR0IArs4c6QAAAARnQU1BAACxjwv8YQUAAAAJcEhZcwAADsMAAA7DAcdvqGQAAABhaVRYdFNuaXBNZXRhZGF0YQAAAAAAeyJjbGlwUG9pbnRzIjpbeyJ4IjowLCJ5IjowfSx7IngiOjUxOCwieSI6MH0seyJ4Ijo1MTgsInkiOjI1OH0seyJ4IjowLCJ5IjoyNTh9XX1cnHfkAABFUElEQVR4Xu3df3BU1f0//me//2gnPwgk/Ag/JD806QaTQhSJRPGdsdgwQJg28O60tOqO6Mynb+3Y6jhMFf8Q7TBObZ23fnzPCJ1VW+v0DalDlIFKnXwEg0QqUFBSoglBfoRggJAfo/zV7znnnnv33rt3d+9udpNN8nzMLNl793L37q97Xvec1znnW/Pnz/83iIiIiIT/T/8lIiIiYmBAREREYQwMiIiIyMLAgIiIiCwMDIiIiMjCwICIiIgsDAyIiIjIwsCAiIiILAwMiIiIyMLAgIiIiCwMDIiIiMjCwICIiIgsmTmJUvXLWLJyFrr/sBa95/U6pQ4zH3kCRXlA764V6D6sV4+ln+/FpsYb9YLQ+RdsfmijXhgP5uGFX92BEpzBzt99iK66lfjlolzg9If4QdMZvQ1lpMo78PbyKfjkz7vw7AW9LlmzFuBPP6lC79638Nhxvc6XXDy1YSVuEV8Zw0BqjieGZeo7elV9X1/T68ZE0u+ZX/xt0thgjcFIvbIcm+8uFrff4B9X9bpxbF+f8SKGL0+AF0OjYADPbnsLP/iduO1lYZVO/G3SaBlngUELel9agbbNGVJbMCFcxZUB8WfgCrqMFUSUEfjbpLExqoFB/pK1CK6rQb5epgz01RUMiz+9ffKMREQZI8pvU51Xg/Uo08tEIzVqOQZl9wRROwcYPNGMHW2X9Fpt9jNY8MBiZOtFw7AtxyCcW2CwP6apvIRSz9yD3PW7ESjpRPvmh5F4cbcFP3v/RyjSS8AXePfu5Tiil8IexIq//hq39kXLMdCPT9GLQv9Hv8FLT23VSyb38w3gH1u+i9179aI269l/4sHbrYbdUcltuL/xx1gzXy/YmW2etjbvs7X2bY02Ukd7sG6fzdKLEdtEab9VxzD1GH6/7TPsE8uqvbm0WywPYI1qjzUMH9mFn7Yk+mkbbboz5f/tqxKvZZ5eD3S525HjHb99X7bjcLePJ3T8Ec8pRbbpG88R/m54vxdm+7VTxOtMRLycB/V4+D0N8/h+xBB+D0+jMuH3LMbnFO8z9/ueuV9nRE5AIs/pRxnqg7UoxCDa39mBg316NVGSRqHGIB8164ygoOdAKDIokAW6CAqGRYEumwjUbVenftAUbkKIfEw7fBS94s/MwAZj2bIB08QveejjpsSDAplYKAtpWeiqPAJ5+wQ3v7pFb+DfolcfBv7H3Ie4NX2BvNt/jUeefVBvIemgwPF8u1Hwf97ELL2FZAQFEAFDeH9bL67Az36uN0gDIyiQJ1Vne7I8GTtPerm45SdiW4iTodp2Fz4ZmIc1GxZgmd5Cntjf1oW+sc1b2HlabPOrlXjK/kL9yq3CL8WJFub+xLFlLVqJFyr14wmS//ft5bBe6++PDKBkefjY0nP8Vbjy5xjHLwsb13N6tenLz8koNPU2fz4mvnwr8ac6WxApC0tdMFn7EtvJq9G00YWlLPiM5/zQqB4fEEFeAkGBZWAKvhfnM0/kc4r3mft9z9RzquDIfE7xOueL194YGRDFfU7fOrAn1Iz2oRwEVgdRX65XEyUpzYGBjGQbEMjuQWsohD0n9WpLHWbWloowuSkFOQPbcFmeaUoWiqLJpnohZoqfb9/xFr3CL3GF/70bPa7EN+KPSVyZH3nIddX/yv+qZMW8iv8IF/rixCkrRbqPup7vh+thvwArnCFe4dVPccS2vwtPfRd/fEUvCHdufANNTU1Rbm/gybv0hr7MQ6W4+h8+cix8Aj9+TBT44uRWOs8q8E3OYGEA+zrFhrlT9ZWWODGLq1m5jf3K6LUmWVCIoKLW64oyPseVlj62krLk9uUurPa1d4tvUC6mTpdL6Tp+21X28dOq0JxZYH6Tc/HUErFfceUZ82pSFF7fE59T115bQXvhM7wqCpysRVW4X6+6v1ZcQYvX+GrCNSrJu19+FuI5d1rHL4JMcVzILcKypIKpXGdtkvmZLzED0AQ/p5ifud/3zHzO/bYakzN4TAZw86siC/w4z5mYSzi4PYTWc+L8sDSItUvYYEvJS19gUFCDtbJ6a6gdzaE9Iqb1MLsOBbLrYfs2vWJkBloOYQilmFatVwi5ARF49J9Av6Pbow/L/wM3TnEX0qm0FRfcVX7iBNIv/hQ1nop59d9zUZycpizFg3911iTY7d9yLxobG6Pc7sVzH+gN/ZiVK4KrKK6Igl/fNbnbQPe1yKssfQIUEYYMECJzGM7I8hCYmhsRaMQn/q+jwBzA2SviT1L7EtyvSRSuPxVXdKqAGZXjd5k1D98RMUJXR2QNgd2yQBGyPPZlZLNPwVz1ZdFBXueZiM8tfXIxd6q+G+Eqzno1O8QV5TM3A9BEP6dYn7nf90w95wD+1e56TpUb4FHgx3zO5HS8F0LziUHkVDQgeA+zDig5aQsMyqoDyNH3R835FvSJkjXcnGA0I/S2Po1reo1vN80QV+8D6PtcL4/U8jfxyPunsMl2WyViFqeN+KPu9iiDA2O7f2LFcv2wJmsHZFOECg7M/SXRvOGbOGH9XZxM7VedqKxSfdfjFVbeBnDlK33XzapZyGSZefwl02QNg6wq/zHett/s7d2JUNXnrn396o7wd8C3ATzbJr4nuVVYY1X1G1fXOH06XLsxQl2X3UHA6H5OywpkApHRlOZ4zxw5DqNoThVqCvR9ogSkLTCQkWso1Iqe7AAagmtH6Qvagv6O4XBzgmpG6MTlZJopPr8ort5zUXCTXh4JGRRsXIo8R+5AMd71TJfYit0/1NtsOaCO4daNkcFBePwEvZ/SHzmCg9Q2JZhXfLZCR7cXj+TqxtN475o1hsdvFIy2PBDHLYlBh/QVrHM/tmaKBBiFpvhpLjcLzDtQkuKBelRg5Pf9T8PnZNTMyGRQ93tm3FL+W/Egk7wbKnJUkncoxERESk6acwziJMWc/xIyeSdrep2xrOi8gyRd+9se9OrmBNWM0HVU/FSTYFbrLxz5lfisu25WtQ//2J5gs8Te9XhJBwexApQjD+ngoGCe1bSQ0qYEVTsQecJL6kSn2s9z8Z2ACt1s/FTXGtvEl8bq8hEdfy6Wlbr/nw8XBozEWivnQNJ5BzbOJoNojL7xWdNs3WME1Yau76deuL3f/v1JZVBgfTfM6vkRfU5uPt+zaE0GoyJOkjdRAtIcGEixkmKMhMHs2xrFz8mQu/4JFImf15BeTpyxz5mBlzGtZBjdLcnmL2zE3o/E2UBciUf0HEiw2v7C+Yvi31zceJe5H9l10aMp4ed7Xc8VDirCTRry/+7FIr1k2IKb5b76zjiSFFMmpSc8I+ksa9GdjmSs+xtlN7Az+LuZ3KULw3ACoXdXMS8R+0opn8dvFiZWcqZ76OBEGO3ijgTCRrEv8b1wZMWrBDxZlR2rul8UnDIZ1JYMJzPp10x17SulvAvWVDLf/51WsOH3c/LD53umm9yS61kwEmaSt+yu6JXkTZSYUZ0rQQ7E0XDDWTRvPyjCBZNzjIKhj5/HZ8frsOCBCvSZYxV4jnOg9R/C0ZdcOQR6TAPPxxLlngvBNY7Bole9cgUM3U3FVk8B97gD8rFPF4r/W3AAW229DiLGJ/AcN8E91oF4qZ5jIqSOPBHa+8ZbZGa1HlPA3iUtXm1CxP7s+zG5+qDL/e4sMPv928YxcB+X17580cGHjypuX8fvCmbkFbPRb112UTOq5I39uMf9t/VztwowZ2Ch9tU+T7w/RfiXa9wAz/EmXK/JsY16DOo5Zfe/hGqCXJ+Rg/09ibpd5DgMcXntK8pnHv9z8v+Z+33P4n8n/T+nH+q8WjGE1mhJ3kQJysxJlCijmCe6iALfPEGn6ASXDO+ClTJK1O+JGezIvAh+fkSZYhSaEmi8M7LdPbrU6ep+opimT1VX95E9WHQXQyLKKAwMKC4j230eKl0jCRrttV4nfCIbPcZ/iXvAqco7jKr5FHZZJKKRY1MC+eLZbioTvMa4CphNCeNElByDtHR5JaIRYWBAREREFjYlEBERkYWBAREREVnSEhgUFxfj+uuv10tEREQ0XrDGgIiIiCwMDIiIiMjCwICIiIgsDAxGhZzb4FTEBEmjx5i0aZM4BvOW8LHIeRDkdLmNcpAaOZStMX3uC65Bj/yRY8UbU+/KyX7kWAThfRMR0VhiYDDhyaDg17h1ipyMqRib9W1kEy6ZQ9kO4MpXasWIGNMFA8OXjb9ERDR2GBhMdMv/AzdOkbMv/q9rhsYE6WFt4xfeRm2AVZMgaxo2LNBTD5uMaXgxcAVdxgoiIsoQDAwUOZ95EPXlenEC6j+f2imZjfkTruKs53S54ZqEZQU+5uDXQUdvnznFsEFOJxsM1otPh4iIRktahkSW4xj09PTgm2++0WsyWEEN1q4OIAc9HvOZ12HmI0+gKE8vCkMfP4/P/tail/ySOQY/Qt5Hv8F2PIwHbzfnHJDV+8vDV/I/34tNjTPwjy3fxYV1p7CqVK93byepbW/UC0LnX7D5oY16wWb5m3hk41L0NxXjj6/odemkxsSfir/ruQvUHPZIdlpmGbDVohCDaH9nBw726dVERJQ2kzswKK9HcGmhKO3b0bz9IC7p1abc9Tvw7Za16D2vV1S/jCUrS5MIDozAoEjevXoAW3+4HhfMtv8+W4FuL+ytgl5vB/P/ibL32X+K4AIqgNi9V26s92/9H9vzefIINEYqyiQ5dsNHduGnLc5agfjyUbOuAYFsoOdACHtO6tVERJQWkzYwkNXUDRU5GDzRjB1t7pAgGl2DgEM4+tLTuKbXxqcLaisoMBgF/MVwIa0Dg/6PfuNIDnRuF659cCQQ2mobjGBBi1ljcCeeDD2KavekiaaBw3gx+Bz260VfZE7Bkiv4/bbPsE/1XliJ73QmExA4ld0TRO0cJPh5ERFRoiZljoEsZGRQIK9AEytkWvD1ZX03Cf0n/p8VFMTizge48NR3sdkKHm4RgckAvvjAlTPw+UX0i4K44Ca97Mt+PBdsRGNjlFuiQYHgzCmYgqki6HDnDiSj470Qmk8MIqeiAcF7mHVARJQuky8wKKhBlbjy9GX2M1iwaTeW2G6BEv3YGJk1e4b4Nxe3bnSOS7Bp41LYUiHG1pUB7NN302JOFWoK9H0iIkqpSd+UgHOtCL3nTDlUZFDwwGJkdzWh7c1teqXMOxDBwbTkmhLc1f/RmhK6YyUKRmsyiGaUmhJUkuF8veDpDHbqhMRksCmBiGh0TNruipfadiB0oEdcfdYiuK4G+Xq96brKCmRjGN0t4aAgIyTVZBBN6poSXmt6Cz/43S58MmAkGf7gd2J5r+yJIAMC+ViyQYFMPjSCgsSbfoiIKFGTexyDk3sQeqcdg9kBNLj6y1/7SmYDZKGgss5YoRIPx74pAXvX48NOoKjxn1ixXK/LMI6cghENYiS7K8oeCbK7InskEBGNhskdGEh9B7Ej1IoeFKLEPsDR4Ydx9ONhZN/2hM4veALfbl2B9gwYqu/IQ8XY+hEi8wz++iZm6W3GhpFsaPI1uFEM+UuqxKcix5fgGAZERKOFAxwRERGRhTUGREREZGFgQERERBYGBkRERGRhYEBEREQWBgZERERkmVSBgewtcf311+slIiIicmONAREREVkYGBAREZGFgQERERFZJtXIhxNtREY102MJMPTx8/jsby167VgzZpIs0ktSzNkiR00qj2seXvjVHSjRM0Z21a3ELxflAqc/xA+a5MRRTubMk3JyqZ+22OaRSINl+liM55qij3MAn/x5F56V038kyJgB1DbO9dUD2PrD9Uh4V3rmUEvnX7D5oY16IXEpOy4h1e+ZlJLPvPIOvL18nl4Qony//MnFUxtW4pZc/bqm630PHMPvt32W3mnSadxhjQGlRf9Hv8Hmu4vVbeyDAmkj/qiPZ/OWA+jXa1NhX99V9Xf4svE3c1zFFVUmXcXZJAs4wxd413zvkix88cpy/X34Df4R522Shf6m9/dikV72cuGp7+r9FePdTr0yJWK9ZzIg/DH+VBdtnvLEyODh7Q0LsEwvRzguAgE1M6kxa2lKfXUFw/KveLEMCsiNgcE4NvDmCrRtXpFBtQWThS48fM4caUxJ/VbaawskM0hxzHBJMaXjPRvNz9yfAZy9Iv+ONEikyYCBQYbLX7IWwXU1yNfLlIH01VfmFca6MBjR1NeTzSR5zy4MoFf8iajlKqjB2mAQ9faZZmnSYY5BBiu7J4jaOcDgiWbsaLuk14ZzC0y9u1ag+7BeUOow85EnUNDxPM4UPBHOQ/iqEUtWlorHh9H9h7XoPW9sjeqX9Xq3TrRvflicKhNhtOXnffQbvPTUVr3Ow/I38cjGpcjTi0Z19XIc0UuO/Zz/T0f7tGduQCJt2Pq5+9Oc+2C2M5u69r6Fx47rBWnWAvzpJ0X415+PYepPwu3aZ2v1/3O3/7rbnC1GrsNreimVjLb8i67Pxu1BrPjrr3GrbZZt2ZTk/fnrbfvcn09kDoiT+/sRtujVU1hVkHyOQTxmDkI09jwCf595FbL0YgTPNn+dH3AlRo5BCvMRop13aPJgjUFGykfNOuPH2XMgFPHjNJsQ2v5wCEN6naey/8K8vudx9ONhZIv7C1ZCFPRN4kohCwWVdcY2OiiQwYXap3pc6D+EowkHBT7pghm2PITNWy7ijle36A3C8m7/tSjwYbVxb/1oAEWN/8SK5XoDQRYMMiiQAYO1v6O34Gc/1xuMEbM6+Qei4FftuVF8Z1UVroiA4JOBXHF/JdZAnNT3ipN6bhGWzdIb6RO/LGiMducPjStaWZCkKSjwa9GrDwP/Y3vvm75Qn9sjzz6ot/AjnAMiP2NHXoO6xQpM0mtfyy7Hey4DAWPZuNmbC+J+5hc+w0/1/9t5Wiyrzy+8rx8kkQgoA5e3l08RQaW5H3Gc88X3pdEriIyv470Qmk8MIqeiAcF7yvRamkwYGGScMtQHGxDI7kFrKIQ9J/XqJGTnXcAZM/8gLwvDu8IFfXaBUUOQGxB/RRDQY9U4bEOPCCSQV4G82XpVqt00A3niSL74wHZFuXc9XvK6wpfZ5rZC4cIHn6JfXEEV3KRXiCDjDvESImoRXlmecG3AnRvfQFNTU5TbG3jyLr1hSuUi68oxK/s9K/cqdlpXermYOt24d3+ZkUG+07r6PIOdR8SnaQ8exsiRh76L3Xv1gvTK/6oEw7yK/8DYHdp9+K3n56hvL9yntxvv5mGN6lGx39aD4gwek4Hl/Co8leQHcKltB0IHeoA5tWzKnIQYGGQS1b5Xi8KhdjSH9qBDr05a11HbFf8wvo6oZ63Dt6fpuxEu4GuzqSHVPr+oCvdbNzqv/D31nXFWD8sAQlxBmoX+rLtuFkHGF/g0BU0C+7fci8bGxii3e/HcB3rDFOvqsFX5erZt52LuVH03QiYmk23FhT59d8y8jsc9P0d9e+x1vd04VzlfNUH9qz38S1dU3ks4sEzKyT0IvdOOwewAGoL14pKFJgsGBhmkrDqAHH1/dLSgt7VTXNotRmG1XoUNKLwtyxVUpJgq3P+CbhUcnMKm9+Utdve0aApn5Iqy8SLEtc0ENoBn22TTQhXWVOpV+koRp0+PaTOCIpuG1GcYvq3ySlmhlFtWIBM7cnHLT36Mt39lu8XKY0hKIaqWsN5gsmBgkEFk214o1IoeFaGvRU2BfiCNrptu1DXOXLkbSzbJWyNmdjWh7c1tan362MYVaPpCLN+IVUkEBz0XRfgyZYY4bY3c2DQl+GMUAEDJcvPkfwdKRjTgTYqYSaQy2dPKB0j12ALJmBxNCUZXS5m0astTsN0ciY+JKq9HcLW4WFE1mJG5TjRxMTDIOB3YE2pG+1AOAqvT3W3IqB2QPRaMxEN9S3tQ4CIHv1HBwQzMite04HLh/EXx7424OQWJhmPVlBCf2Y7sTHob86BAMJpyBvCP7cmPYuhmfKaJfxec0tGUYIxfkTXN1v1iBLoui53lToWtg1HiUtFk4EF1k14qwu1zrQhtPwiGBJMLA4OMdAkHt4fQeg4oXBrE2rRV4XXi6/5wIuJokV3g3D0GFi2UXQ0v4oI9ic0Pnejm7qkguy+Oda+E1EltgZRKRiGeixvvMnsgyO6II2xKMHNQ1kX2UhlbeoyDEST12RlX+/PwvZGMpHjhM/z9tKxJWpmSY5Jkd8WGihzVXTH03ogznWgc4jgGGU5G7g03nEWzFbVvQJGs7lf33cxxB4xxDIouG00C131/BxbeBj12gf7/ZnPB7Gew4IHFyNZ7CHONdeCbv3EMVN9ze+ERMda97tfuc0z9iP2N+TgG5nwKXvS4A7pPe6/q6677qkP3Y7d1T1TVwVH7v+ux79OUgOhnHAP3vAWyh8inC8XnYRtbIOLzsfE1LsUYjmPgZM45oBeF8DgGPj5zvWSKGCPBNo6Be0wEO/f4CJ5jLXiOiRCHTIBeHcDQgZH1iKLxjYHBZGYGBRE5BTqwyEvjAEdjaVQCgxQyg4KInAKzkBrrAY7G1ugGBkQTH5sSJrNZ01RNQW+7O6egBV9f1ndp7E2fqmoKHN0aFXP8eyKi1GFgMJlduKxGTpwZ2GAsm6pfNoZcTmeXRfJPz8VQIgc5squ8w6hqzoQui0Q0YbApYbKLkmMQOf+CX5Fj3nu2IY+6TD0un6LkGESMxZ9i7vyByFyQsZGpx0U0ETAwICIiIgubEoiIiMjCwICIiIgskyowOHXqFJsRiIiIYmCNAREREVkYGBAREZGFgQERERFZGBgkQo4jHkz3jIdERERjh4FBAvJL56q5yQ9xchEiIpqgGBj4VobFcirSLz/n3ORERDRhMTBQylAfr4mgvASFGMTZzuTCAjl9cjBYL56JiIgoczEwUHkDtaLQ70FX1CaCfNRUFQLnjuFgn15lV/0ylmzabbu9DNfM6LjUdkw8QyFqg2tRU6BXEhERZZjJHRiU1yO4OqDyBppDe9ChV0couAlzs4Ge0x5byEmIAkfRtnmFvj2P7v5SBCKCgw7sCTWjfSgHgdVMYCQiosw0aQMDVbW/tBCDJ5oR2n4wZt5AzKTD80/jsze36QWpBb2tneJvKaZVG2vCLuHg9hBazwGFS4NYuyRfryciIsoMkzIwKLsniIaKHPQcCGFHW7ycgSSSDi9cxpC+66XjvRCaTwwip6IBwXuYdUBERJlj8gUGBTWomqPv+6GSDntwLEYAkbvenl8gbg8sRrZ+LK45Vcw5ICKijPGt+fPn/1vfT5ni4mL09PRk9IRFsilB1hrgXCtC70XLLshHzboGBK5G30YGBYGSYXT/YS16z+uVMu9ABAfDu1ag+7BeZyNrLGpFcCKbMeLXWBAREY2eSZtjcKltB0IHesQVey2C62pECOAhVtKhsgHTSsSfrj3hoCAmGWgYQYG/ZgwiIqLRNWkDA+XkHoTeacdgdgANHmMMlFUbPRaij3TYia/7xZ+SheEeCLLromdTghwroQGB7EG0vxPCHo6eSEREGWhyBwZS30HsCLWqMQZKHF0Iy1Aiq/tjJh22oPelJvRCdk/U+QW1l3H0D4cikg/zl1SpXIXW0A7vsRCIiIgywKTNMYhLjnGwFKIgjzG+ARER0QTDGgNP5kiHXQwKiIhoUmGNAREREVlYY0BEREQWBgZERERkYWBAREREFgYGREREZGFgQERERBYGBkRERGRhYEBEREQWBgZERERk4QBHCanDzEeeQNHlJrS9uU2v0+TkSStLgf5DOPrS07imV4+dB7Hir7/GrVP0Igbwjy3fxe69enEcWFa3Er9clIvhI7vw05YpeOFXd6BEvI5P/rwLz17QG9nNWoA//aQKWXpRvmZz2/sbf4w18/VqoWvvW3jsuF7IFDGOH5V34O3l84zV0ukP8YOmM3ph4hgXnxNlsHn6PHEGO3/3Ibr0OWSi/l7ShTUGE9ZW7P5hMTbfLW5NX+h149lVXBkw/p6NFRTIE8Dv3tK3cADxWpNe9+djGDZWZZY4x4/j5vpd+ES9DxNTxn9ONK7s67uq/g5fNv6SPwwMUuXww2jbvAJtGVFbMDGYP+revvgl4bJAkbjSFlfYrePzqmC8Hz9NHLLW5u1f2W6NtpqqDGEd44YFWKbXGfQFxMAVdBkrKAkMDJQy1AeDqHdMu0yZZQBnr8g/sX7wUWoTxo3xfvw03qmmHNhqrWTNzfw7Mis4qLzD0dwU01dXVM2T++Iif8laBIP14sxPXphjUFCDtasDyEGP5xTLuet3I1CiF0xdthwDM7fAZH9M0XkJ8Mg9mP0MFjywGPj4eXz2txa90r9Zz/4TD96eq5eA/o9+g5ee2qqXbH6+F5saZ0TPMVCP36gXpC/w7t3LcUQvmdzPh86/YPNDG/WCaQt+9v6PxOs1jU5ug5GPcFW1K76m13nSVfa9MdquzdwGk5HjoE8sVh6A0YZpPVe09T75Pn7k4qkNK3HLlehtpjGP32qDteUvKNHW+2X+f5PH+2C9R6YY75WPz8mXeM+pHi/Cv8RrPltry28YOIbfb/sM+/SiErGvaO+V/oysj8B7u9ifkx/m80R/r5HwPiMZeR+Jf6/V6yvtFu/jANbYvhuJv0678Pd/J0SAMNXjc/JFXgzWohCDaH9nBw726dWkTO4ag/J6BGVQMNSO5oigQBboIiiYJgp02USgbs+ju18/bDKbELweU1rQ3yFi1rwK5M3Wq7TrKiuQjU6cSTgokImFp0QhDVHo6jwCcduO/8SK5XoTv5a/iUcWfmLtY/Pdv8E/rt6IVe/vxSK9iWQEBc7n23pxBX72c72BooMCGTBY+9uNgv/zJmbpLVJKJuTp6k7jBDtPnIB0FaO8JXGVI0+CRgEdvmLCopX4U50+gV/4DD/dKwvkefieuU6erFYlERSMxfGLY3xMtd/n4pba8P7vbxxBUKBeh/j/jvyI06i0Hb8sJN7WBb25zc7T8vWuxFNp+XIItsLROq4/X8H3It5X8V78xH6l/CG6cqvwS8d2IvBZBbxq7kfcdp6W/891/PI5xWu6BaLAsrbdD9Q6q7zjf05+DODZNuO7WFlprDGZTVP/ah9ZUDBi8n0U3w2Yn7v47WSJ1/mC63j9WlZ3pxEIjTiRsAN7Qs1oH8pBYDVri90mbWCgqpKWinjxRDNC2w/ikl5vqW5EUd4wuptGnjNw7fgJDImfaUFlnV4j1SGvTFx7dB0VP98E/fw/ceuUyCvxC08tT/zKfO96vOS46t+K3X+XyYo34mZboV84Q5ywrn6KI47n+y7++IpekJbPQ574033Uvr+N+OMP1yNc1tyH3zY1oSna7YX79HY+WAl5b+H3R+S7KAtmfQKSt0RPHuKk/j1xxdi111a4i0DgVbHvrEVVuF+vks8rny9r0Z2qUDBOVrJQTeyKasyO3wxu5t9hnKB11WzX3mRqCkRQtEQUoBFZ3yIAsZZFACACH3mlaL/6f61JFMCuACWlpk+NLBzla/d6Xx3HLz4H+XnMnx9+z+TrcV2ZvtZqBFjfCYQL8/trRYAYUdsgCvAm27Lfz8mP46dV01pJmf09zMWyUnFMp48l8Xm65WLuVPFnBG32jp4lx4+p5Fnn8fok3reHxPfI8b6NyCUc3B5C6zlxflsaxNol+Xo9TcrAoOyeIBoqctBzIIQdbREhgZIbkF0PT6D/vF4xEuefxhnxq8ouq8N1ehVm16FAlKK97a5ujz4sWnhjRCGdUp9fhLvyo+ei+DVPWYoH/xrj6l8UNvL/FTWectUk2L2Oxxsb0Rjt9tjrervRZ1xlncFxV9W1kQQ5BXNtL3xfy35xgjOuNOXV/vCR/Sk4CY9MIscvg5Kdp8UJevmPjW6QomBMqsp+1jx8R5RBXR0eha2pcr6qRo5MIhXHKo4BU0VBZqxILdW+7HFV78F9/J7vmduFAfTquwZx5S4K/OHOMzGrthP6nOLS76E9iPHzmfhkBL3xX1N07tepc4WS+MzNoGtnMt/TGDreC6H5xCByKhoQvIdZB9LkCwwKalA1R98fRQPtnY7mBNWM0H8IPYeNZf8exKwC8afvjO0qfGQWvXoKm9633TYuVVf+drJ2QHV7lMGBud2rW/Sjpo34o2qKMIIDY3//TLx5Y4yUTJNXfq7qfHmzjx9gEVeB78orRnn3GF4dYTtuKiR2/OYVuxSlalZVi7v29as7nFe0+qr8yld6OaoY2+ROteUmpJCsHZDNAio4iHL8CVDNIa73wnHcs3IxU/yJ14vG/+ck29Nd24ibuxreqLkINyeowMOjAJXNF+59xWq6sHIgRNA40jyFmPx8z1St1gA+eTeZfIIEzKlCjTy/TnKTLzDoO4gdISNClNVHoxYhHj4qri7M5gSjGWGooyWJZoqtuCATZQrmpaTdXgYFq0pls0Q4d2DzlgMRNQbKK8utbd4VcQ5Kf+QRHNjGT1D7ycWtG+3BQQqbElKs67I8+bmq862bu5p9Hl6QiWinz3i0R4+NxI5fFjqiYBsQxz8gCqmIbl+CKljd+3FV4+qr8qnT9XIy0tq17AweM49d54bIRLhEgwOzkJTV4vb3wnHcugZhZkH0wlby/zmJ4HNb5DYRNTsXzuBfYpdG9bzRjOB1hW+NEWG7RS3wRUGsggLZLOIVNKZS3O+Z+K2JoCldtXJmDbJqVg4xEVGatDkGl9p2IHSgR0SItQiuq4G7delan0wYnBau+pdU3oG+n7Bt6Pl42GhOUM0Iw+g7nnhPBMmo1r8Zi0Z8Jb4FN8sOFZ27E85NOPKQDg5iBSgyf0EHBwU36XUZ3JSQSFWukawnr7Q/1O3Rur1+DCVy/FZexLsf4jGZwCaCm4cSSnzTdGEYs81YtYM72+IN/qreU0bmdKjgIP57dL98PQPd2KcKIt1mH7ca2+hDn1U6L2Y1eXJNBrHoJETZnKCaEUaYdCiTSWXthQwKksr4jyWJz1w3RcmkRXutgupBopIbxbJXYBtXPmrWBVE7R5xTYzQrT0aTNjBQTu5B6J12DGYH0ODq02okDJZi3vd1wqDsWrhyFoY8L6X9UfvMq0BhXQWyu/agN8n8hQtP7Ua3OFndutHdc2BvgtX2nVDnqNJbwvuRXRcjmhJkLwjnc1lBhb1JQ/zfR559UC8YZt11s9jXAPo+1ysymUqMktXOsa8o5dWjkaxnXNUY+QaicFyefDV1Svg8fvNq0LoC0/kGZjJlYkRwpAMjZ7W0uMqzalGMbdz7N4Orv6epmlp+Tu5gTRX48caLMJMx28xCUbeL5xZhmXn8qvrb1ZRgFtARNUi5eKrRVnD5/ZwSoYKveVijarFGkHSY1qAgyc/clqRrv8nvrDpOuZzwscruig0IZMvuiiHsOalXk8JxDBSjTytE1Oj4gjjGKOhE++aHATmuAcJjFXiOc6D17lqBbkcOgR7TQCYdRjyWKPdcCK5xDGQ3RI9cAeXqAWy1egq4xh2Qj/0PsE783/6mYluvA/f4BN7jJkSMdRBlTIRUM6p6o40DIAqpiJO4SVbpOv+P0W9bL5jMrPVoJ05ZUMiTssf+/Ih9/FGOSXPPJxDz+KMep/kejaDLoqONPPJ9MKvjLRGFT2Kfkx8R70XUz83O6z2QTS/2sQnk8ZxGpTjeme5++RH79H5PY35OSTD3l/z8Eu7X6JLgsUV83lIKAw71epMcx0D2SmuoGPIcu4bAwICIJjFdiI94IKUMYAQGyQVQ6RAv2KXMNbmbEoiIJgTddn/kGAthGjEGBkRE45rZwyQzus3S+MfAgIhoXJI5GTJDXw/BnKK2eyLmGBAREZGFNQZERERkYWBARERElkkVGMgmjuuvv14vERERkRtrDIiIiMjCwICIiIgsDAyIiIjIwsBg3NmAok27scCc3GksBH9rTZP826BeF+FOPBnSUymHnhRLaXbXk3hDHdNvkfzEzbZjVrc38ORd+qG0sU1DHWvKaev1NeGNjWl4NwtqsDYYRH25Xs6E7xkRjQkGBpQYWUCtKsapd41pkh8P6fUu973wKKpxGC/KqZSDz2G/Xp+o+14QhWGKAos7N74hCtZYgcN+PBfU0z+/e0qvSzdzGupmnCpqiB4cfPAc7pXb/fdhYPGjKQ8O8kvnImeoHYc4yxzRpMfAYMIyrviWOG47MHO2fjhJd95ejqyBw9gZJSAw3IfKIuDUvuQDgoSZBWfj46KoHY9ex85Dw8C0ubGDIPE63+8GsqZHmdIzKWVYXJGDwS8/R+Iz0qfne0ZEY4eBQYaT04MG19UgXy/7tw3dm1egzXZr78pC0QOuk3ZEFXJsJdOdE9R6umsuZui7lKDcqVGmHXaJF0CY1Oe7FjUFetlLeQkKMYiznYmHBen6nhHR2GFgkMHK7gmiIcaV3HXf32G7SnsZ0aZRNw20HMIQsvDtWXqF1HcQx84BhUuDWLsk8fAjLWzt6Q1FYjm3Go/qZXWzNy3Yto14TAm34T+6WAY1xWiwb590ToItN2BE+0mj8noEVweQM3QWn/fpdRHyUVNVCJw7hoNRtpmw3zMi8sTAICOJk/W6IGrnAD0HQtjRFhkWZN/2BBaWncBRdZX2PLr7SxFYv0E/mpiO90JoPjGInIoGBO8p02vHkNUs0IjmbrE8oHMVzJs9Z8G9bQSzDb8RL8qqepxCs142bkk0PahgpAEzDr1o7ae5WwYcmRMcqJqmpbLAb0Vo+8HoTQQFN2Futviene7QK5wm9PeMiDwxMMg4ZagPNiCQ3YPWUAh7oiWD9R/C0ZeexjW10IL+DlHolSyMcTVXh5mNi5Et/l/PYb3K5lLbDoQO9ABzapNsupg87muoVnkWW7eEMyhef6xZhBzFuHsESYH7ey/qe7F1fSUDnOjMmiYZVIbe8y7wTXGTDvk9I5p0GBhkEtUOW4tCcaJuDu1BrFP6UEeLPlnHIk7Sj5hVwE+gKK8T7dZJ3sPJPQi9047B7AAagvUiRHEzkgqHT+6LmVSoEhRFMXk8ZoLieBXtPejClYERJgV2XcGwj+BCBRC51VgT0VXUrGkaRPs7MYJKS/ykw7H5nhHRWGJgkEHKqgPI0fdTowW9L9kSw3YBAXHy9tc3vRBVVluw2Z5eieONjbjXdqVsZ3QHbMKD2JpcFf14oBMrsxY/assvkLdHUR2v8T0e3Szy/nRj31G7JIYeF+/vi7iyzHhuayyJ8sUIZOv7fqikwx4c82iqSkyqvmdElAkYGGQQ2QYbCrWiR11JxckkT8bhh9HeBWSX1eE6vcrBSlaTNRb23Aaznf44KmMUWPu33Kva27eK0CAjk/FS4YOzkBX+w7b8AsftsRGEQzqRsvJTY1/RAjBjgKkHgdeM7ayxJOSVuPjcWs/lILA6XpKfmXTYFbNmKilJf8+IKBMwMMg4HdgTakb7kHFyH63uXf6S1V7HcdmHvnxZzK5y+z86qarEK6OOiuifak/324UvDqMNfwbmjmg0wxQ0GUThtwnmvpuLgYGT2PeBXuHiK8kvTtJhuvhOiiSiMcPAICNdwsHt8sovtd27ZLezgCjPelud7b9Wt8gTzXGT1UabUZiPLKnPotrws1DdMJK6jP14bt8poKghPUMTp0i8JD/VbJWmkQ7H4/eMiMIYGGQw68rvhpsSz96e/QwWqGSw8M3sdtZtzxYvqEFVjG6RYy70uOpm6GjTt41VYOY1yJt7zIOIglu24cuhjuXQw3obR5OHfUyEVeKqXAYRv9DL9vERZBu/Hpo4vB95G425FRJgJfnNxU2OZqkylIjPPLmRDl0myveMiCzfmj9//r/1/ZQpLi5GT08PvvnmG70mM2TqcY0ncu6ChmmH8WKs+Q9kAfuLalx8N/pcChRJBjmPLr6I5jiJm74+g1hkG/9SoDVOzxcimpxYY0AJideHXtEJepSJ0ph0SEQTAgMDSkj0PvR2RoJe8bLUzIo4OdyHNXLI5u7jsbt53vUk7vYxlkR0Rv4K2/iJKBo2JVDiZHc51QYPNf2yd3PBnXgypPv2yyGNRzD18sQmx4hogHo3Y71PunlGTWHV3TyybpFERDEwMCAiIiILmxKIiIjIwsCAiIiILAwMiIiIyMLAgIiIiCwMDIiIiMjCwIBszOmVxe2FGPMJqNn9jO2sKX/HmjWccebM6hgerjnWUMk+3/Ok5aNmXTD6ZEpERC4MDEiT4w40oFj2kY81fbAsgFcVq/ELHFP+UgRzGuoXDwHVv4gWHJhTWjfjlJzDIdXBgZpFcRDthzmgERH5w8CADHctQ3nuMA43xx44R00NPHAYOzMtIJATJKkCNvY8A2Nh/5b3cQpZmBpzpubXsfPQMDBtbkpHizRmUTyLz/v0CiKiOBgYZDg1f73HtLl+yGluff/fkqnGqHpxlEz3sxV5mTHTR5GfOxUx4wcb9fnGbCIY2SyK6rsXrBd7IaLJhIFBBrPmr3ec2DegaNNuFFUb896Hp7t9GXL0YbuOw3LK3QAaMuzkLmcHVFXmVl6AcXPmKxht72rqZFtOQ8R2rn04pkeOIJtLbNtGafu3T+UsbxHTN485I2+gVk5jfDp6E0H+kioUogfHXNMcq+/NI8/gOv1dMr9DC75fp7cwXGo7Jv53IWqDa1HjmLaZiCYyBgYZyXbijzJ//cyV4Xnv2zY/j+7+UgTUyd6m7yB2hFoz8+Qu29N/UY6T/23kKrx4aBjFqyIL6qzFj6JpFdCsmgk8trOaEBrR3K3XeVEBxKOoxmG8qLdvbNwKNDgDCRm0GFMf623++zAgjiFzgoMy1AcbEJB5A++EsOekXh0hHzfdkBN9FsW8xVi4qRHYJb8/4rarE9m3PaECzrAO7Ak1o30oB4HVQdSX69VENKExMMg45om/B62hGCf+/kM4+tLTuKYWWtDb2ilO9hXIm61W2GTqyX0Yh//7Xjz3gbFktsOX3+4qgOXEQra8gf0fnRT/M157faT7GqpVboRzkqL9eO4x27IIHuTMhafeteUpiMBjqwhGshavGUFvB2O2yXjUzJWxFNRgbbAWhUPtaA7twMFYeQM+kg57RVDQLeIe5XCTCC5FwBnYoFeYjNkYW88BhUuDWLskmUYtIhpPGBhkEseJf0/M+fKHOlp0UKBduIwhUWB+e5Zedoh/cr/v5mJRCJ/EPl1Qe7sPlSOa8tcm4rmMwjNruqvEv3zW+Vy6hiCx3hD+jlslVorw5Lhr30aBPQNzo3Y5jGc/zl6WtR9xgouuKyLoKcbdXrUT5fUIrg4g51wrQtsPxs0ZiJ902InLZlCgtOBrcYyYdoOz1knreC+E5hODyKloYNdHogmOgUEGUSdzfT+dcioWWzkHqr2/qQmVnzaiMerUyGZf+0ocF4XyvVtGHBaMrrvmimIduNgb+7iNxMpiNNjyC9RNTzE9Eq8/JpslruButc8oYy3ooOf96Y+q5w03X+SjpqpQ3/fDSDrsORY/gEjKnCrmHBBNYAwMMoi8KgvJnACVMJjKnABnzkLIVhuhCixRGB2/WRRYURP3zL72x1HpKLDGiQ/OQl3zx+kV0PXVsPj3VDi/wHELN3skQwVg9wNb1b6idKnUiZQqSBPbhQMwo8Yn9E47BufUxu0pYCYddkXNP0iclQh7oll8f+I0YxDRuMbAIOMklxNwXWUFsiOqhyV/yWqvf3oKyC3HspjV5a/jeDeQVb4spX3tFTWOgiiWP03HKAS6mSLOcY+8ySCakTVlWHwlk8ZJOoxqA6aVeDRR+UiEJaKJhYFBRkow4Wv2M7jxtiwMfdwER46bmbMgipLWjL7KuxNP3m8kB6Zn4KT9eG6fDHyq8ahjZEHxvC/YaklCO3F4IAvVv8icYZUjxQkcyxcbQWCCIx3mrm/ETBFYnvlbi14j+e0BQUQTCQODDGYlfN1wk7huc5Jdy6wxDB5YjOFdK/CZ46SucxZ8JDKOCVlIq/Z2eXsU1ZebY+Q4RGcfc6BBXJXb9+to8gg9rroeDstukvrxpqYHgWZXL4Wg7PbokWeQlnkMkmULHOc7GxXK5heKy34/Ix2WImAbwyAw7RCObn7YEViaTRKZHVQSUap9a/78+f/W91OmuLgYPT09+Oabb/SazJCpx5UYOShNI7I+fj4iEBgROYjQqhmOLoReZFt5wzR3t7/EpGIf44tM3mzAjEMvxkzclEGOMYZCssM6yyv8WuBA7Kt7OcDRwtsuoN0VCBARSawxIIPqKhefkaBHmSgdSYdENPkwMCCDytzPQnVD7CpzlaCXW401mTLd8jhw58a7USzCrpMfxaofuQ9rFmcB3ceTrC0ALrXtcPQ4ISJKBgMD0mSXRD31b6w2ddlW/+4pFK8y2t6d8xuQnZn/8Kgo8E+9G62JxhwjogHFcmTGaNNdExGNEuYYEBERkYU1BkRERGRhYEBEREQWBgZERERkYWBAREREFgYGREREZGFgQERERBYGBuOOHBJ5NxZ8v04vU7LUVMhRp5o23YknQ5k2V8LkIqd8Dq6rseYLkUM6L9n0MnL1MhGlFgMDUrMzLhDBRlG1Xo6CJ+TEGYMcZfJsjanhL8hKRhlK5JTPxw4inRM+567fjSWPPIPr9LI3BuU0OTAwoIlBTgKlRhB8A0/epdfRuMf5H4hGHwODDJe/ZK2jGnUycVchx3LfzcVA92EcHshC+e2pv26l1FOf7z3OaaOd8nHTDTnAua7JOf9DQQ3WBoOoL9fLRKOEQyJnMHnirJ0DDJ5oxo42syI1PO3yF/gvLLwtS6/vdE6jK5sHHliM4V0rZHlpkVWmau79l57GdfJ+iX7AQ6/6v8bzzdTrIrmeVx9fePthdP9hLXrP60VBHQOa0NZygzrGbL3eeD69IMkT4+oAcsQVY2vMyYGMaY3xbiN2znwDj5af9JzS2ZjW2Hy/NDk/gWtbNS10kV4wdTej0fc8BsbxiFAlilOuqZXd2w/Hnf46Nvf+3M8n3PUk3vhFNcLvhvs5ZW7Fo6i+LF5381zHtsPm9NER+3DxeG8N+ahZ14CA+OB7Yk0RXV6P4NJstL+zAwf79DohPG30UUyzfdeGXFOR27/r1/Q6x+/ignHf/P5F6Df+L9TzRX2VEc9rHJ9t+y7xXX9zm14Q1DFUoE/8Lr6us/0G9fNZxyp4nwOI0ouBQUaKdeLUgUH/sDihndAnkjrMfOQJFMF2YvERGHieLO0Fs0vcefyrX8aSlaWOE6V5krQX+uoY1MkwHFQY24ny1xVEyDbm+mAtCjEYUUBYZDPCKhiFnyqsynHSVbAahb2zgFTrptkLL10YwmOdLCCTmODICEYuRhbMJnXsxeHCVjADmFMi0Hk8pFb5p/fnDGREoPAC8Lh9OTQXO22FtvH+2IMD/bpVQoltvd6/+9gi38tofHyemioUp7Sjebszv0B9V8pEgZyXFf7O6u9exPfM53fdc9sI4aDcHgiE6d9hnj1Y1oGyvdDXxyADkvBvRW/nDiIEWWvYUCFrTloReo9zZ1L6sSkh48gTpwwK5FVy9KupcFAgtaC3tRPIW4zCOAmE6SNOirWl6urIftK89rf/i+5+iMfciV2yJiEcYFw7fgJD4trz27P0CksH9oSa0T6Ug8Bq72pVoxlBT1esp492NCeIYOHuInHd/G6UwtkUXCMKQlEIvhavcEsVUfguMwpxMyiQ9m/ZisPijSlelmgyX3h/ziDmdVtQIIllVwH+evNh8Yl4NcPIYMoWZIWOizXAjJlJNNeoqnERFAyJwj4UOyiQv4OYSYf2oEA63BTlezaKqhtFUOD8XgPb0L0rym/T8VvZhstd4s+0GyKOX02nfaAHmFM7aZsVaXQxMMgkjhNn7Hn1hzpanFc2Fy6LghXImj5GGdOz61CQJ46rT5wEHVrQ3zEsTozTnCe8/hPod9QMxHIJB7eH0HoOKFwaxNol9lPjfaiUhf6nZsH3Oo53i/ehfJlVqN55e7ko8k7heJyrbxVgDJzEPltNQ1rdtQzl4op8+CtZItjtx76T4j3LnYoYLT2R9P7C70UCVEDlYeAKnEcnp+dudAQyvshmAdksJK96XTUAXuInHXbisu2KX37Pvr4s/ri/Z6MoNyACY1zA1+7v9eGj6BV/3L/N3nZnzUBMJ/cg9E47BrMDaAjWi7CJKH0YGGSQsmrZnp6k81+KK76xN/yVVxWrNAvfnq3vjlBOxeLwiTFYiWLxyq/YSq/XPxXXtLnVWBPUKzLcxd5ohewMzE2kh0XJVBEAOd+LaIxulLIXh3mLlRMxUvmoqSrU9/0wkg4HTxxKKOnwWl8G/AL6L0dtisgukIFDKhSiyhEcE6UWA4MM0vFeCKFQK3rUVcFa1BToB/yYfYMoFGIVzGPN40rKN5lzYSRhyZyLkK02RV3li1de/QtbISfb2IXim8f76AEXcTaR2ouuK6o5YGqcagZ7DkOjuPo3bs2qiSA9jBofdcUrq8PjXfGWL0YgexBnOxNLtruuQPwCYhTMYy2yNi0BZo2Lqk0MMRGR0oqBQcaJ36bu5brKCmSLYuHrC3qFpw2Y5lVo6NqGeM0Q176SO49y5X++BX2yjTewQa8w1SGvTJywu456JyzGZeZcyGQ1d86F0YwgE/fCBZxxa+4WDxdVii2A/b2yktx19a3zDuy6vvKovld5B/p+Ejyf2/TBPpyUuQQRAcydWFYu3jMzb8Iv3RwQOyDS+x44jJ2JJjbG4PneufUdxA4Z+Ior3toYgW/Z/EJRip7F5zFzENz0d/vylzEDA+N3EknVNsRthujE1+I7Hu3Kf6Bd5hJUIM/9+6heiJniF9Z3PLmgXXVZXireE5/NMEQjxcAgI8VqU/cw+xnceFsWhj7+v+GMfl3YhwtqdzdCO33Cu60x9qiGKo8hC0V17sJf0gmQJY2OERSv+/5/GQlZLQm0p5rMnAvVXdEjWU03I5z8KLIqXjUniEcrZXOCSpjLQnWDWWDeh9/+QhzkgHyHwvZ/dFLsrRh3b9TZCbKHw6oZGE4uojHoq/jwc9vtx3P7xHEWNeC3tmaPOzc+aCRBNieaK/A6dh4Sr0ns7w3zNSiyV4L5/PtxVrbF55ZjmRmsyNc5wqYEIwCyvXdRxQl8xWdeFSvpMIrc9fK73Yl2W0a/UdiHC+qIboQ2RtBbinkxRzXUeQwl9ZjpFRyrBEjx+2i0J0CK391KmZS7x9Xbxh/ZM0P2SJDdFdkjgUYLuytmONVV6Yazji5b4e5+YRFjAEi2blGS3KZnuuzqZe/RYIoMHDz3qbuFhbnGMYj3uOC3G1m07mqm2F3kdF9+M0NfdWM0+9wb3e/23e4x5oHZ3U8xujdCPg+S666oOPYpucYViPd4ouLuz94VUZKPH0eleL9mWN0m9TaOrpuxRYwTEXUcA4P6fOHsgmd0zRuKPW6F63uteIwBIDl+K2qbL1Eovufw+G5HBA6e+zS7JOpFwTmOQbzHBY/vuhTxu9DjeAzFGuuBKA0YGBBRhjDG75j7JQfzIRpLbEogosyQZNIhEaUWAwMiygyyr37cgY+IKN0YGBAREZGFgQERERFZGBgQERGRhYEBERERWSZVYHDq1Cl2VSQiIoqBNQZERERkYWBAREREFgYGREREZGFgkAg1qY+PGQ/lfAGbdnhMtCLHUd8tHtvtmGiIiIgoUzAwSEB+6Vw1H/ohTmhCREQTFAMD38qwWE5/+uXnI5gPvQW9L61A22aPWQuJiIgyAAMDpQz18ZoIyktQiAyZ4MVvkwYREVGCGBioQrZWFPo96IraRJCPmqpC4Nwx7wle5Pzqm4zcAXVbWaofMIVzC4ybR/6B3seC79fpFWFynnjH/+k7iGPngMKlQaxdkq9XEhERjdzkDgzK6xFcHVB5A82hPejQqyMU3IS52UDPaY8tZKLhA4sxvMtoIlC3XZ36QVO4CSHyMe18C/r6geyyOlynVxnqkFeWBXTtQe95vUroeC+E5hODyKloQPCeMr2WiIhoZCZtYJC/ZC2CSwsxeKIZoe0HY+YNRE86rMPM2lJRaDelIGegBf0dw0BeBfLstQmz61CQB/S2b9Mrwi617UDoQA8wpxbBdTVg3QEREY3UpAwMyu4JoqEiBz0HQtjRFi9nIEbSYYxCOxnX/rYHvchCQWW4OeG6ygpkoxOXowUecg77d9oxmB1AQ7BeHC0REVHyJl9gUFCDqjn6vh8q6bAHx+IGEKmwDZe77M0JRjPC0MdNGFDL8RSiijkHREQ0ApMvMOg7iB0ho31eJu/Fbp83kw67oucfpNhAe2e4OUHVSAyj73iL8aAXR56EnxoQIiKi6CZtjoGv9vlYSYfS+S8xLP5kTbf3JNB5B8k63ITufqM5QTUj9J9Avy3p0M7Mk8C51rh5EkRERH5M2sBAidM+X1ZtXIlHH+lQV/3f1ohcvSZ3/RMoEuHCkF5OnJGEmF3WiMKyLPS2Po1r+hE7M09CJU++N1r1GURENNFN7sBAUk0LrehBIUocAwaVoWQO4o50OPDm8+IKvxQBPUbBvL7n0dZ0Qj+q2cc5UGMcZKHoAb38yDOu7onAteMnMJRXipl5UZIOdZ6Ev+RJIiIi/741f/78f+v7KVNcXIyenh588803es04JNvulwKtscY3ICIimmBYY+Bp9JMOiYiIMgFrDIiIiMjCGgMiIiKyMDAgIiIiCwMDIiIisjAwICIiIktakg+JiIhofGKNAREREVkYGBAREZGFgQERERFZMjIwkBMERZ3x0FKHmY/sxpL1G/SyTfXLUechICIiougyMDAwJi/qOcZphImIiEZbxgUG+UuqUIgedEWd6tiHww+jbfMKtL3kPWUxEREReRvVwCB/ydo4TQT5uOmGnIyZvMhfkwYREdHEMWrjGMhCtnYOMHiiGTvaojQSqKmOs9H+zg4c7NPrbHLX70agRC+YuprQ9uY2477MLVhZatyX7I9pxj460b75YQzodYYNKNrUiJn2/1NQg7WrA8hBD6dfJiKiSWEUagzyUbPOCAp6DoSiBwVC2fxCYOgsPo8ICoxEw8C0QzgqmwjU7Xl09+uHTWYTgtdj2kB7p/i3FNOqjWVL9ULMxDC6W2yBRN9B7Ai1irCgELXBtagp0OuJiIgmqDQHBmWoDzYgkC2vuEPYEzNvIEbSYXUjivJEod2UgpyBw0fRK/7MDDh7M+QGSoH+E+g/r1dYOrAn1Iz2oRwEVgdRX65XExERTUDpCwxkNXywFoVD7Wj2UQ0fK+kweqGdjG3o+XgYKFmIXL1GNiNMKwGGOlqiBB6XcHB7CK3ngMKlQaxdwqwDIiKamNIWGJRVy7Z5v4ykw8ETh0alHf/a8RMYsjcnqGaETpz5W4teEVtOxWKU6ftEREQTSdoCg473QgjJ9vnsABritc+XL0YgexBnO0dp5ILzLejrDzcnqBqJrqOuZEQ7Z55EiImIREQ0QaU5x8Bf+3z0pEPDtb5hIG+acxRDlXeg7yesBb2tnbo5wWhG6G139l4IM/MkBtH+Trw8CSIiovEtzYGBFKd9vqAGVXFGOjSr/ud9v85YMfsZLFg5C0NReh74opIQSzFt/ULM7D+EnsN6vZ2ZJ6G6K3p3oSQiIppIRm0cA0kOcNRww1k0bw8HAWpdxVD8cQIcYxQY4xBAjkmA8LgDnuMcaL27VqDbVfib2w99/Dw+88gvUGMvTGl3HC8REdFENqqBQSTZdt+AuV/GGPSIiIiIRs0oNCXEMNpJh0RERBTTGNcYEBERUSYZ2xoDIiIiyigMDIiIiMjCwICIiIgsDAyIiIjIwsCAiIiILAwMiIiIyMLAgIiIiCwMDIiIiMjCwICIiIgsDAyIiIjIwsCAiIiILAwMiIiIyMLAgIiIiCwMDIiIiMjCwICIiIg04P8Hb/ZEiT4lGxsAAAAASUVORK5CYII=;" vertex="1" parent="189">
                    <mxGeometry width="518" height="258" as="geometry"/>
                </mxCell>
                <mxCell id="188" value="HTML componente hijo" style="text;strokeColor=#3A5431;align=center;fillColor=#6d8764;html=1;verticalAlign=middle;whiteSpace=wrap;rounded=0;glass=0;labelBackgroundColor=none;strokeWidth=2;fontSize=17;fontColor=#ffffff;" vertex="1" parent="189">
                    <mxGeometry x="296" y="210.99714285714253" width="212" height="35" as="geometry"/>
                </mxCell>
                <mxCell id="137" value="" style="rounded=0;whiteSpace=wrap;html=1;labelBackgroundColor=none;strokeColor=#FFFFFF;strokeWidth=2;fontSize=14;fontColor=#000000;fillColor=none;" vertex="1" parent="167">
                    <mxGeometry x="615" y="77" width="499" height="33" as="geometry"/>
                </mxCell>
                <mxCell id="138" value="Importacion del decorador &lt;font color=&quot;#0000ff&quot;&gt;Input &lt;/font&gt;de @angular/core" style="rounded=0;whiteSpace=wrap;html=1;labelBackgroundColor=none;strokeColor=#B09500;strokeWidth=1;fontSize=17;fontColor=#000000;fillColor=#e3c800;fontStyle=1" vertex="1" parent="167">
                    <mxGeometry x="174" width="282" height="83" as="geometry"/>
                </mxCell>
                <mxCell id="139" style="edgeStyle=orthogonalEdgeStyle;html=1;entryX=1;entryY=0.5;entryDx=0;entryDy=0;fontSize=17;fontColor=#FFFFFF;strokeWidth=2;" edge="1" parent="167" source="137" target="138">
                    <mxGeometry relative="1" as="geometry"/>
                </mxCell>
                <mxCell id="142" value="" style="rounded=0;whiteSpace=wrap;html=1;labelBackgroundColor=none;strokeColor=#FFFFFF;strokeWidth=1;fontSize=14;fontColor=#000000;fillColor=none;" vertex="1" parent="167">
                    <mxGeometry x="638" y="201" width="254" height="22" as="geometry"/>
                </mxCell>
                <mxCell id="143" value="Tener en cuenta que apartir del selector del componente seran recibidos los datos configurados" style="rounded=0;whiteSpace=wrap;html=1;labelBackgroundColor=none;strokeColor=#C73500;strokeWidth=1;fontSize=17;fontColor=#000000;fillColor=#fa6800;fontStyle=1" vertex="1" parent="167">
                    <mxGeometry x="209" y="124" width="282" height="83" as="geometry"/>
                </mxCell>
                <mxCell id="148" style="edgeStyle=orthogonalEdgeStyle;html=1;strokeWidth=2;fontSize=17;fontColor=#0000FF;" edge="1" parent="167" source="142" target="143">
                    <mxGeometry relative="1" as="geometry"/>
                </mxCell>
                <mxCell id="145" value="Inicializacion del decorador&lt;br&gt;&lt;br&gt;Puede ser solo @Input()&lt;br&gt;O&lt;br&gt;@Input(&lt;font color=&quot;#0000ff&quot;&gt;{ objeto de configuracion }&lt;/font&gt;)" style="rounded=0;whiteSpace=wrap;html=1;labelBackgroundColor=none;strokeColor=#BD7000;strokeWidth=1;fontSize=17;fontColor=#000000;fillColor=#f0a30a;fontStyle=1" vertex="1" parent="167">
                    <mxGeometry y="238" width="334" height="132" as="geometry"/>
                </mxCell>
                <mxCell id="147" style="edgeStyle=orthogonalEdgeStyle;html=1;entryX=1;entryY=0.5;entryDx=0;entryDy=0;strokeWidth=2;fontSize=17;fontColor=#0000FF;" edge="1" parent="167" source="146" target="145">
                    <mxGeometry relative="1" as="geometry"/>
                </mxCell>
                <mxCell id="146" value="" style="rounded=0;whiteSpace=wrap;html=1;labelBackgroundColor=none;strokeColor=#FFFFFF;strokeWidth=2;fontSize=14;fontColor=#000000;fillColor=none;" vertex="1" parent="167">
                    <mxGeometry x="634" y="386" width="246" height="33" as="geometry"/>
                </mxCell>
                <mxCell id="149" value="" style="rounded=0;whiteSpace=wrap;html=1;labelBackgroundColor=none;strokeColor=#FFFFFF;strokeWidth=2;fontSize=14;fontColor=#000000;fillColor=none;" vertex="1" parent="167">
                    <mxGeometry x="878" y="433" width="135" height="33" as="geometry"/>
                </mxCell>
                <mxCell id="150" value="Nombre del @Input y tipado" style="rounded=0;whiteSpace=wrap;html=1;labelBackgroundColor=none;strokeColor=#BD7000;strokeWidth=1;fontSize=17;fontColor=#000000;fillColor=#f0a30a;fontStyle=1" vertex="1" parent="167">
                    <mxGeometry x="55" y="404" width="268" height="49" as="geometry"/>
                </mxCell>
                <mxCell id="151" style="edgeStyle=orthogonalEdgeStyle;html=1;entryX=1;entryY=0.5;entryDx=0;entryDy=0;strokeWidth=2;fontSize=17;fontColor=#0000FF;" edge="1" parent="167" source="149" target="150">
                    <mxGeometry relative="1" as="geometry"/>
                </mxCell>
                <mxCell id="152" value="" style="rounded=0;whiteSpace=wrap;html=1;labelBackgroundColor=none;strokeColor=#FFFFFF;strokeWidth=2;fontSize=14;fontColor=#000000;fillColor=none;" vertex="1" parent="167">
                    <mxGeometry x="1013" y="480" width="60" height="33" as="geometry"/>
                </mxCell>
                <mxCell id="153" value="Valor que se coloca por el tipado" style="rounded=0;whiteSpace=wrap;html=1;labelBackgroundColor=none;strokeColor=#BD7000;strokeWidth=1;fontSize=17;fontColor=#000000;fillColor=#f0a30a;fontStyle=1" vertex="1" parent="167">
                    <mxGeometry x="271" y="490" width="256" height="49" as="geometry"/>
                </mxCell>
                <mxCell id="154" style="edgeStyle=orthogonalEdgeStyle;html=1;strokeWidth=2;fontSize=17;fontColor=#0000FF;" edge="1" parent="167" source="152" target="153">
                    <mxGeometry relative="1" as="geometry"/>
                </mxCell>
                <mxCell id="155" value="" style="rounded=0;whiteSpace=wrap;html=1;labelBackgroundColor=none;strokeColor=#FFFFFF;strokeWidth=2;fontSize=14;fontColor=#000000;fillColor=none;" vertex="1" parent="167">
                    <mxGeometry x="1472" y="212" width="114" height="33" as="geometry"/>
                </mxCell>
                <mxCell id="182" style="edgeStyle=orthogonalEdgeStyle;html=1;entryX=0.989;entryY=0.379;entryDx=0;entryDy=0;entryPerimeter=0;strokeColor=#33FF33;strokeWidth=2;fontSize=17;fontColor=#0000FF;" edge="1" parent="167" source="156" target="181">
                    <mxGeometry relative="1" as="geometry"/>
                </mxCell>
                <mxCell id="184" style="edgeStyle=entityRelationEdgeStyle;html=1;entryX=1;entryY=0.5;entryDx=0;entryDy=0;strokeColor=#33FF33;strokeWidth=2;fontSize=17;fontColor=#0000FF;" edge="1" parent="167" source="156" target="183">
                    <mxGeometry relative="1" as="geometry"/>
                </mxCell>
                <mxCell id="186" style="edgeStyle=orthogonalEdgeStyle;html=1;strokeColor=#33FF33;strokeWidth=2;fontSize=17;fontColor=#0000FF;entryX=1;entryY=0.5;entryDx=0;entryDy=0;" edge="1" parent="167" source="156" target="185">
                    <mxGeometry relative="1" as="geometry"/>
                </mxCell>
                <mxCell id="156" value="" style="ellipse;whiteSpace=wrap;html=1;aspect=fixed;labelBackgroundColor=none;strokeColor=none;strokeWidth=2;fontSize=17;fontColor=#0000FF;fillColor=#33FF33;" vertex="1" parent="167">
                    <mxGeometry x="1130" y="391" width="15" height="15" as="geometry"/>
                </mxCell>
                <mxCell id="158" value="Los @inputs se llaman como property bindings o cpn sintaxis {{ Nombre @input }}" style="rounded=0;whiteSpace=wrap;html=1;labelBackgroundColor=none;strokeColor=#BD7000;strokeWidth=1;fontSize=17;fontColor=#000000;fillColor=#f0a30a;fontStyle=1" vertex="1" parent="167">
                    <mxGeometry x="1526" y="44" width="256" height="80" as="geometry"/>
                </mxCell>
                <mxCell id="159" style="edgeStyle=orthogonalEdgeStyle;html=1;entryX=0;entryY=0.5;entryDx=0;entryDy=0;strokeWidth=2;fontSize=17;fontColor=#0000FF;" edge="1" parent="167" source="155" target="158">
                    <mxGeometry relative="1" as="geometry">
                        <Array as="points">
                            <mxPoint x="1529" y="153"/>
                            <mxPoint x="1462" y="153"/>
                            <mxPoint x="1462" y="69"/>
                        </Array>
                    </mxGeometry>
                </mxCell>
                <mxCell id="161" style="edgeStyle=orthogonalEdgeStyle;html=1;entryX=1;entryY=0.5;entryDx=0;entryDy=0;strokeWidth=2;fontSize=17;fontColor=#0000FF;exitX=1;exitY=0.5;exitDx=0;exitDy=0;" edge="1" parent="167" source="160" target="158">
                    <mxGeometry relative="1" as="geometry">
                        <Array as="points">
                            <mxPoint x="1732" y="299"/>
                            <mxPoint x="1732" y="254"/>
                            <mxPoint x="1912" y="254"/>
                            <mxPoint x="1912" y="84"/>
                        </Array>
                    </mxGeometry>
                </mxCell>
                <mxCell id="160" value="" style="rounded=0;whiteSpace=wrap;html=1;labelBackgroundColor=none;strokeColor=#FFFFFF;strokeWidth=2;fontSize=14;fontColor=#000000;fillColor=none;" vertex="1" parent="167">
                    <mxGeometry x="1461" y="285" width="112" height="27" as="geometry"/>
                </mxCell>
                <mxCell id="181" value="" style="rounded=0;whiteSpace=wrap;html=1;labelBackgroundColor=none;strokeColor=none;strokeWidth=2;fontSize=14;fontColor=#000000;fillColor=none;" vertex="1" parent="167">
                    <mxGeometry x="609" y="386" width="438" height="33" as="geometry"/>
                </mxCell>
                <mxCell id="183" value="" style="rounded=0;whiteSpace=wrap;html=1;labelBackgroundColor=none;strokeColor=none;strokeWidth=2;fontSize=14;fontColor=#000000;fillColor=none;" vertex="1" parent="167">
                    <mxGeometry x="627" y="431" width="438" height="33" as="geometry"/>
                </mxCell>
                <mxCell id="185" value="" style="rounded=0;whiteSpace=wrap;html=1;labelBackgroundColor=none;strokeColor=none;strokeWidth=2;fontSize=14;fontColor=#000000;fillColor=none;" vertex="1" parent="167">
                    <mxGeometry x="644" y="480" width="438" height="33" as="geometry"/>
                </mxCell>
                <mxCell id="190" value="TS componente hijo" style="text;strokeColor=#3A5431;align=center;fillColor=#6d8764;html=1;verticalAlign=middle;whiteSpace=wrap;rounded=0;glass=0;labelBackgroundColor=none;strokeWidth=2;fontSize=17;fontColor=#ffffff;" vertex="1" parent="167">
                    <mxGeometry x="787" y="526" width="212" height="35" as="geometry"/>
                </mxCell>
                <mxCell id="157" style="edgeStyle=orthogonalEdgeStyle;html=1;entryX=1;entryY=0.5;entryDx=0;entryDy=0;strokeWidth=2;fontSize=17;fontColor=#0000FF;" edge="1" parent="167" source="155" target="156">
                    <mxGeometry relative="1" as="geometry"/>
                </mxCell>
                <mxCell id="187" value="" style="group" vertex="1" connectable="0" parent="1">
                    <mxGeometry x="-3439" y="3335" width="2280" height="390" as="geometry"/>
                </mxCell>
                <mxCell id="168" value="" style="shape=image;verticalLabelPosition=bottom;labelBackgroundColor=default;verticalAlign=top;aspect=fixed;imageAspect=0;image=data:image/png,iVBORw0KGgoAAAANSUhEUgAAA44AAACuCAYAAAB5s1M/AAAAAXNSR0IArs4c6QAAAARnQU1BAACxjwv8YQUAAAAJcEhZcwAADsMAAA7DAcdvqGQAAABhaVRYdFNuaXBNZXRhZGF0YQAAAAAAeyJjbGlwUG9pbnRzIjpbeyJ4IjowLCJ5IjowfSx7IngiOjkxMCwieSI6MH0seyJ4Ijo5MTAsInkiOjE3NH0seyJ4IjowLCJ5IjoxNzR9XX3GB3/LAAB/yUlEQVR4Xu29b3AVVbb/ve7zxp8FnASIEtSYQDAakFyCaJB/MymJQuFAOUGnlJlHUgJV15EXjpZFOTgvhLG4U/55oeWtAm6F+SlOeSFaMFDgxKnchwEUHYSBgThocsPEMQnGEI6kHF7dZ629d3fv7t795/xLTnLWp6o5dJ9O9z67d++9v3utvfa/lJeX/y8wDMMwDMMwDMMwTAD/j/pkGIZhGIZhGIZhGCMsHBmGYRiGYRiGYZhQWDgyDMMwDMMwDMMwobBwZBiGYRiGYRiGYUJh4cgwDMMwDMMwDMOEwsKRYRiGYRiGYRiGCYWFI8MwDMMwDMMwDBNK/qzjOPcNqFtRCl3/uRr6vlbHBPUwZeNzUFEM0HdwOXR9pg6PJE+2wguNM9QO0vEubNmwSe2MBsrglV8sgunQDftePQqd9Svg6doEwMWj8FBLtzonR8xeBO83lAEkz8BrO8/BEXU4mARsXrcC7ro8DGmLQ8rpB1jb+Cismhj//JxQOgvefqwGxqndVNLPZIcl6j0bOnUQftpWpN7BJJx85yBs7VUnMQzDMAzD5ClscUyHNxtgy33TcHsJ/nxFHRvFHOmXP2JoYAz8GMZM7zn46au/g4dw23dRHWNGkCtwOSk/v2LRyDAMwzDMKGAUCMc26Ht9OZzYkifWxjGB6rQmL0OnPDB8nD0qxMtDo9XaNdrTP4yQhe39Xzzq3hrL1LdjC7Iqu3/rIlirvrOwBmj6+oViZBiGYRiGGVXkXDhOrlsNTQ/Ph8lqn8lDvrkMQ/jBHVommxxpOyhFtrW9cwaGyheNMfFIrtTKFdn+rQfhZLIMVhnEo0MSvrpMH57Bm5L5sLqpCZbdrvYZhmEYhmHyhJzOcay6vwkW3gzw3fn9sPfEt+qo4qYXYdYTd8N4tSsZ0uY4OnMbJfp3CjEvstI49zGx5hBUT++A9i1PYRctVbbBz/74E6hQewBfwoH7GuCU2nNYD8vfex7m9QfNcVTfF6ldZPCjl+D1zTvUnoX3fkn487Z/hUOtaldRuvUvsP7ehNpDhmFupZifV652dKz5kGLOX5GYp/XVQv1cOX9yl9qz5wZahMynNN4zzfmXkelX8z2n0Lyz/hpXGjtbfwfPnFU7KaTfmsvmIoM5hd7ryTly7lLt/Z2mcyzEuSFzLn3pTzPvTUTdOxTvPE0bzzxB77PylkVxnQr43Ftm03lGKk19elkhtPci1fmLofUmwzAMwzDMCJEji+NkmP+w7Pz0HG/2d35I8KFoHELBRy6oYjvYob60cFxU/d8pPjsNffgxpXqd3LdZB5OmA1z9pCV10UiBb0jEkSgT8xhpOwl3bt+mTohP7fanAP7DugZuLV9C8b3Pw8at69UZhBKNrvsdgpJ/2w2l6gxCikZAQelcb8el5fCzJ9UJOUCKEep0K0tKqxQPJErcQiIBdz2G5wIKDN3ism4WLFFn2C6e4jt1zEeQ9UZ9nSLx0w8wrnYFdvTBPve1U0mY3rACNlsPIVb65T2frr3i3BO39OcUyvx4uhZQgDjX2w41TrqE8PXk2TtnsPDh70nDsidFo/t+rw3UwCuz1QkjhRJoQM9OpMt6DvR8NXFG51VdtNNul0Wf9c9bZo9CZ6IGnk7TGjqlxD1QsKSERovSm7944Q/NsP/8dzBh5kpour9KHWUYhmEYhhlZciAcq2BZ00qoHt8Dx5qb4fDf1GGbepiysBKgsyULcxZ3wgD5eU2fg91AjblzYAoMQf/ZNnUgLuth+dIZBkveJngrDcveqQ0eq+Gb/yWC6RTP/KEjChvKgIyqXac99/vxGtD7nFNvxF945a9wSrte7+Z/hbfeVDvI4k3/F1paWgK2/wu//IE6MRZlMLucRNYZx1Jz9ozorI+rLHMEocItxpJwpANPTEwE1O/xmV0DdyWScPJANuYPppZ+YW3SrFJH2ruwBCVg4g3qQBxQtCzFe3a2atatTLDyw2O1OtJ21N5fUl8jo+PqlrLec7AdhS+U6wIzHtMnYTlLdsER1/0Ouq1p6TJ7kbDudZ5I/fkuqa6Acfg7P7StqEnYeoLKGz5nXdRSECDXoEDAeYTLkop5KPKsPMS91IDKazHwoESnZbHNpBx8e2IvNB/vAbh5Ibv6MwzDMAyTF2RXOIr5OQth6tV22N98GC6owy5uqocSWlqjfac6kBnJtk/hKlTCpLnqAJKoRmE6eB4GXct6xKDhhzCjyCvisskO6O1X/7Vo7YZB/Kho/J9Q62HPJezUFi2A9e+5LZE6f9r2/0JjY2PA9v/Cr/8/dWIcShMovgO4jMJQ/dfCOz9Szm9LreO8tgo73h7RkjYppt93TEUhTUUwWeLmbDZEFhKdHwlYUklCzx/kKC3hi3QO4HMky5tuLc4Ectm0AsY0lIkBhnREqBC0RpJw+Rv13yDUHF4vnRd0gYl5JoLXFMEtKYptUdat+Zv4Oy2LbcZi+2+Hofn37fDd+GpY2bQM2PbIMAzDMMxIklXhWDW3Giao/w8bX7dBPyovx11Vuqn2HfsVXFNHYnPbjVCMHdH+L9R+pjTsho1//B94QdseRE3rZhO8pZb1IPEoz/sLLG9QXyvIukiurkI8WtdLw302NiicPrxILpw1jgVGWMD8He68JM/TTy6tTgROub1dr4ujBNwyET9MItdLyDleF8oohAgil14Sj1baTO6buiC0NpPYtF18pdvo55UUaTUsaIyZXcdQmEEZLLXzKAGb68zC2pe3xnmR8Yh+TtLCSPew3Gj3XZRusNkNAjQVaurY7sgwDMMwzMiRVeFIc3Oam49BjxghXw3zS9QXOaUNBi8MOe6qwk21AwbScYP94hIM4lVKblP7mUCicdMCKHbNXZwGB4zTNXfAoR+rc7YdF2mYt8kvHp31I9V1Kn/iEo/ZdVVVwgU766usTnNDmTtgTF6T3+nf1WKJKWdzB7NRUTcnJjKy/KUVKVcTe2J+pikSqksQqi0ysEwSth6QAtDnNhrFDROF+BMuoeJ5roC7wB/MRs5rJfdeLV1kDVTfp0rkc0IB7SzqL4/T39AcWcq3jOaG3r4Mmn5UDROEB4dhrjjDMAzDMMwwkoM5jhfgcPN+aL86Aap/ZAgr//XfRSdu3A31cl+g5j2mybUPDkOfclcVbqqdp7GLmgaW2+iczC15pT+4U1gv/7wnRbfX1jXwuhKPYQL21AYlHkvKbNfVrLqq2vPr3J3mXIou6SbpmReprIQpMwLpN7o6qnmP6SDzowKWBLpOJuVcUsO8vGy5zZIIEuIxQwGbGcq6SHMStWfpF6pyXitcPJNyJFMiHVdpGQTH4Kqt1mxM1eJrIZYxWjAV4B/HoHnPx8CSkWEYhmGYkSYHwpH4Fj7e0wzH/gEwdUETrHa5WMmANuPvacTuoCSx5jmoQDl5Ve2njrzmlOo3YNL0IehqS3f+5CZo/Qg7gJU/8Uc+TdEttPfrS/hvAmb8wLoOLc1hcFV9stVzL0d0Oi6z9LetUKv2JNvgTrpWf7criE7WEPPCUp8jlwlyXp7mjkgRMhuKYMjdJ4/HCKQfzl6ETrznXQst61wZvEIujMl0fgC5jZ6R13vM7dq5pH6RHfRGnlMGq3SLIObbBmEF0wIDxYKiuHrdSJUYi+MyG4nMj3HJM7AvJUEb1/p6hZLpFtLkUhvHVTXNwD2yzAJMr9PddJXQxXR/3p76s6flOFbOnCCW42j+g3GmOMMwDMMwzLCT03UcCRo5X3nrV7DfNWruXqPx6ie/gXNn62HWEzOh31qr0bjOo2LwUzj9umcOo1rT0fhdqtCSHI0z1A7hXsexdrtprqKkq2WaHenUu+4ifffXOfi3JcdhhxY11bc+o3HdSO9aj/hTjWtCZg/fen4W+np31DGP4QIqXQjVjofg9RJpqYWjAPS3tGyCZwmNKGKln8TMLxbB9Ii1CmOnn8SuLVRkRNQj1ZiOyq701i4UYm6Fy+qqu0VK1G9Qe4T3eQTmBeK+nv9a/vvFw5Rn6bsK+9Nl4b6m5zx61gcANuAzsddadD0jC/ms0rFUmq8ny27KUVUpwNiPquHqcVNEaoZhGIZhmJEj58KRGZ04Swp4OvpWJzmLi8LngtGefkZHiUGX4Jc4cxpTEH2qDPgW7WcYhmEYhmECyZGrKjPakcsfGObI9SahT/03nxnt6Wc01NIqQx3dPoutmAfKMAzDMAzD5BwWjowR2SH3R79c2yjdAPN9SY7Rnn5GQ4n9cZVl7jmOpXIuZ9bW/mQYhmEYhmECYVdVJhDzvLg0526NAKM9/YyOeY5jWvMv2VWVYRiGYRgmZVg4MgzDMAzDMAzDMKGwqyrDMAzDMAzDMAwTStaE47Rp0+D//J//o/YYhmEYhmEYhmGYsQJbHBmGYRiGYRiGYZhQWDgyDMMwDMMwDMMwobBwZBiGYRiGYRiGYUJh4cikRGLNIajb+CJcp/bHDuth+Xv/Ay/88X/gZ0+qQ2lQu11ew9oyuVZcaNmR93/xKLxdT0uP0LIVj+L+CthcKr/PK2Yvyt+0pYv4TZjnjWW4k4DN6yj/H4VXPGuIjhgNu2GjKI+tUKsOjTgjkWe5uOeTrfJdf2835EuRjlMfrG3EY+tmuddFLRDi/XZVPkRZSQ9xH/s5FCZjspzlbRuWeZnNFlYdNDrLv9U2qGdstRtZK8eTYf7DTdB0f5XaH32wcGTyjmyK09Ktf8leh1l1wMPE4KkN02DLfbhtOw6D6tjwcgUui2UNr8BXhbooPq3TiBX9yAi3JHx1WX5e/kYcYCIZiTwrlOeUeX0gO4GLYK3aNyMFav53EstgdjlA54lzcEQdMVJaBnckknDyWLc6wOQHI1/O1lahMLt4BrbmW/uaR2X2SNtBeOjV38FD75wBqI1Tf+Qx31yGIfrEijS0zohLyW1wy/jvoP2zC+rA6IOFI8MIdsChH0vR99ab6tAo4Uj/FfHZ1x+8EL41+u3expjlL1coIRqYX6phGRqQzyHvaF0Dr9Ngxn0NcEodGnFSyjPHOhjUYfSVb9Ooey6e05sNcqDox2sgX/qRceqDQmVJfQ1Mh244e1YdCGDtwhoYl+yCIxk81F0t2HHGzvNP2/g5jBmwLVhKAw8XzOJMt7TRFixwLU+AgHPsNsfaooVXeJl17hd1Pec3mM/x1rWhIr73HPwUxeMQ3n9Vji2h0W2ANw9oM7Xp1qBibgbfq+ZWw4SrX8EX/erAKKSAhWMVLGtqgmW3q12GGROoSi95GTrlAYfkGXiNRgHVtu9iAu56bGRHb/MbJVgeBPjwVPzOX+cAnVvAFt80CMoz2YlZDHCCOh9mqMOwCo7a5ZpGuYfKF0W6bBXGcwqpDwqOBCypxLru4kXYpY6YkVbJoY7u7FgYmDHDkuoKGGcceJCi5OnKLlcbGzRosLZxEUxX//dBrpGP1QCcUla7Vw/CySQKr1DxGFxmLY8BaHXS9dCrR83vAArWDbVB/QHZHq4q74Z91nVau2Fc7YpI8fjhRfwsL8+Z1TFeG9ANz1jfq032gSIG0HuT0Icf2RlwrILpNwN89/cv4Ft1RFAyH1aPIj3yL+Xl5f+r/p8RtI5jT08P/POf/1RH8hh6SD9C1Q89cKz5MLgNxvUwZeNzUFGsdpGrn/wGzn3QpvakK2U1tMCJtlth1hN3w3h1vO/gcuj6TO3c9CJ+NxP6/3M1fF+P51u1xOCncPr1X8E1tRuPdVDxQiMAXr/nhr0w555x6ngHtG95CrsGFvK8cZTebxqhbkWlOu5JGyHS56Tdfy3JdQ/o91Nov0F+3xucDi3fCO/17Lz1pcdDSvm2DX72x59Ahdrz8yUcsK0vNLfxeZhXJHaQJPx527/CoVa1i9C8xQedrPTR1WKwUpJb66YFMGj6ThB932wiKtaJKBx36i5a1BCsgLsS1BBQQ6L2L2MFfCwBb2PjZT2pIWzEvI2guCY2Vhamc8TIqXYdSRJOvnNQufpQg7sIpnj+lhq7p2uvqHRpUKPaoDUGFzGtLXL015seL53YcD4TYWnQoestHZDpkukBLd25QZQ1eBe27CkT5ceqhtxlTJWdfv95gx+9BK9v3iF3VBm0q7Irx2FHiGWM3LrX3+t0AFzXUsQ5J2vQs667LMusKkfUmQrqjOnIsmCV6xxAcxsbZ6gdpAOfxYZNaoeQz2jG+Zfg6I3Pi/pD5NXXj6i/87zv3mdlk5t6wa4PDgBs0N5P5x2R72Vg5xY7YZS3neK9CO406nWCuCd17jx1i+m99L7LxrpFoNJJg2Kuus2AqDuKIt/hoLonbvq9aQ+td0LqMwuZHi2Pveeod6PPlA6rzhf3Adj3zmVYKtJOz+8M3CLqfzzZcN8wRJpIJO1MCkFjlRPvc7LTEFjOHMKeuS8PPHjvG5lnirB7+jG3VYQrr9WxQOzndRTfe+/1tDbYld7gexNBZTaobARh/Y59HRWwynu9gPcn8N4aMp/1+ji1vkY6+O9pIMX8yZTJdath5cyrBt2BkvL+JlhIovL8fth7wiUr847CszjevgyaSDRebYf9hoeXWPNzgJblcGKL2g52wPh7noNZD9SrMxTTUZgJYSjPO/3JEExZsRem3KS+F4yDiieUyBTXa4G+4rthzpp16vvUmLLiEMypOg+nxbV+A12DlVBtmAtI6a1bASjmzGkj8VaHIm0IxaT1O9s78VovuNNPAlmKQv089WXKkCCn62EnWOUZbV9Co7zn17+Cc/o9SCiqfbGlJLY3wVvCNW8a7PiIKiASinJfbrrLnuOiuqXlS3XMjXfeInXinWul49pKwlZ1/NU1dnwEMG/TX2A5Nu7Dh+WS4YFG6h6rgM/fUSNzalTRmTNIjZhqKK3RO2sugz7CRw2NqpTtUT68VrpQQ0CdLOp02Ne7UG6ny3INE6ONuO86D7dUGwa6XjYasJSp/Am8sOlO+HKbVTaSUNFoKBue86j8Ft/7vDMH13ZRnQYHOtQxIzIw1Pp7AUWKuhZue+AR1z1J1K6/95LzLuH7AHi/jVvXqzOyzFnsVMTpiI0ElovqfS/Bn8MGomc+BYsuvSSeYTH+f2MjYP69C13YcZrxA5VvSjQCCkv3Naneyt1gEiRq4GntPX/tVBKmY0dWWgWc0Xk6LoWi/j7Jzpg9lwn3qdqmTp9zjuH98dQt8p7uEX+nw+dc58NJi81WgdnlUrQkKmBJmNUAEXPTIt1PI6ySMdLvrYeCiKrPCNkppwEr55zXBmrSnL9dBEsfnAgfimdVBkvXLYY7Og7K55uONYjKD4oZ25LlaycUoeWMiG5P4pczaRWTQsb6Hv+GnpsnuElK5YwQZS0Jn7d7yjSKD+G+GjVvVoDpexBFEgpZY3sk5initTyusNLFGnuUlWWGAC3BZVa6r6IQjNP2YXu9qjwJJw+cM3onmN+fMhSYJNDLYHZgmZTWUOM7FdnXGEtMhttunQDwj06f7iAu/KEZ9p//DibMXJn3gXMKSjiS2m9aMFUo+uY9H7tNxYrk7tXQ97XaIT5rQYGGYqyq3iPQhlAAOede++Aw9KFQLJntEZidKBp371Q7O6EHRRxMn4Ovehq4rG5t0HcMe4PFM6HYJVYRIbocC+C1s+fhKqbtelEhroOp94wTlj7dApncjaKWhG69ErU3vQhlWFP1HfRbIdNibiNUFLvzjLj2wVPu/C4ASrcuhwrqFGoWit7Nb2BnMQHzHt6mjjwOL7e0QEvQ9srj6rxMSMAtE/HD58ZGjak2qnj2ovh+SokstdY8oX16p773HGwXHZAa1fBiA1mHDU1QA5kqVuOMnRTX9VBcDMdI4fDitjL1bj7kFho2HmHx5kk8D6uEm1IUck8+AvOK/Jat3s0Nzj6Km0WVNGiiDbqgMN1DgujeR1TwqcXwy2ZDWbW25l/iGcNBULkefoqLLsFRyyJblIBBLf+Kb5RuDKU/uBOK8Vna59Fg1oc0iDUD7rQGAZpeNuep2l5uUuelhG75x855e5eYixTcAcwGnnu2ncFnlIA7qq0WUT07TydzV0uAlVDVTdGCUHZeMw+KE5X+mMSsz6ZPwut6fhuJqPTqPLxWxxk7X8dhbbHdFlxFcEuE8DbhSv/ZM3ASLzedBIaL8HIWrz2JyewauIue3zu6lakbnqEBSxSwq+yynWI5QwKD4twwEfMyCZdhVuS8xCX1i6WHT5B117qWFrCLBC5Zd/dRfiQmyoESncAyq37jZRTqNEihpc3vWorivaEMBfmfAn6/cy37GZG1TgwcSDFv9Q8sxMCIygfhEWD8zWF9DTkIoKfbtYVGOY3TBigRH1dYZ0qMoDjfntgLzcd7AG5eCE0Pz0epmZ8UjHAkM/DKmROg53hzimbgNvh+QP1XZ/A8DLoETwd8TwKzxO3T2NduiUbJtW/oDSmF671iLwZXL7S5rW69A5og1Bj4u/s8Zc0TQnHuHJiCH0PfuF1ISdQO0Bs26VYhkK+bPRPG428a0N1bMyBRTb5a3jwrRNZD7UxqwE96ApXsgF6aLF1SpsL6/xaebWyExqDtmd+KszJhbSO5KWGDc8DTmTIISbI+yFFdNbppqJBlhyABE2/AnYCR03QJnlsyBrnyVzjlsjJ1AMU7sYSGzZVLgE2MhrS0p+o6WjtnhuGebixx81ePdb3360v4741QKiyTf4JfNxnKqrU1/RrPyD2yc4Z1XD7MUXO950no/0L9V2PqjdRJMqGd3/ysOU/V9myzOi8VIsVWDvDdU0Z9HTfJ8tlXXhBkiYiYoypRltEIy3TWguJEpj8eceszMQ+XLHZZWQrAYy3LOEqkN/3q2U3ENkIekISWs5jtSUyEuDPNW/YMftppjVvOLKFvaM+WlNCzT8BddQDbleXSPC9RWueGTjniPRxpiaXpElS+vfljEVxmi+hRiN84+4KVLtyUVU8Xj9b78WFMDxuyhL//GFmvgz15RNm14ioEvZ+hfY0kbN2ppdu7hbzzwW2ALkap/+MZsMghsYPi/O0wNP++Hb4bXw0rm5ZBPtoeC0M4lsyHmpvV/6OguXYvHII6bbPnJ+YIsfyE554+19isMgTfB1XkxZOysgyGm3q4fhJ+eAVtQVIJop0hN0O11qO1hc2jzArCtcgZsZOuQcEjrKGEdDq8I4/ZQI68h40eMumxHkpL8KO/OzQqqBQ3M+BBT5l1zfPLA+y5TReP+t0k85RTe8gFfgYssl1+18PypdFifqxCrp7SfRI79aqu8ltIUkGKk+gOe0yrZBaIW58JF01lLbPr7liCepSRzfYkJF91gZ9KORNCP9Qy5R2ARdFzgFyVHcuqCIiD13CsvCHcYFnzoqZLxCizXq+fs0dh30XN7RVFMQXE6WwNmQuoYVlAX1Pu6vlGeBvgEaNYv67KuH6JgwyK03PG7OkYzFSoqcs/u2NhCMf+j2Fvs/QfnrogZOFNK0ALuZdq8+vSn9cXj+RubS6f2rxBZYaNwYEciDtltVXWzMJGWo9EMA1rrpi+/dgKXpIDV1Vr9C/GiF0m5GIZADnybnDTYTLEa+k203OJnql3rrC1WS6ui0fWVXX2ItlhoHKeQqCPEee2G0VQHJqfKgX58zAPPIGMcuKqmr84c9rIcoOdXI+FJCWU+6JvbpqHuFbJbJBSfUZzfVWdTR3++NbYsUE22xNvZMx45UxZCgM8GKzlb0LR5g+GtrliyaAE3NUg5/353Zbdoji8zFpruIYRMefSxrHQigBRet+hNCG82LLf7qfhqppqG+AV0Tlicl0NSsAe6PybOhCGKw5Lqh6Sw0PBuKoSUf7D0j1zCLra3O6lsbipHkqw9fe6pnrJpstmWu6kn502z8WEdTAJWzHLHdboUqvmPUai3GF1rvUPYc/IMB/TgDw3O5ZPtytdhrR2i+A4Kc8hcxGvoz4crqrpkYQjHdhAGIIpuNyvVAhr92gxNgQ07zES5b6kIRtnZ/Q2FOO9RzENP4QZRQBdp/WondlDiMKiO6E25B2J9x6NoKsqBWKi6JTUYRgm16PsoKyL3oEkXTQSuXBVjYl896LmwKXnshnt0k4WAtWpN15buvOFzXfKSlCcINJ0yU+pPtMgK5kQj153UB/SEpUJ1hy1+IJd3jM1F/GY7YlNeDnbRc/BFCgJE2YMbGMTUs6i/laJPZ9LrTZfUbrQyuWvHPEjo9GSWLXzubcbPqfb+OZSmvI2qswGuA7j39nzFVX51a2utMmItORqK9NJz0bkLV7TO5cyyO1aiPKM6uIUXVXztg2YDGFBcXSsOCzwj2OBcVjygYISjoIQ/2EplnRRJSOBRruq4nmNd8P4wU+hJ0zEzX1DXKvvWKrLcRhAETdDBLlpwdcrFXaKAD3j7/m5J4JqI4q9Dui2LJ1KYNrBcmiJjSfuRtHrjhMn86wSJs2V+/Qb9WVALKzgQRVPvIHVlsN1D7zhiUTrXLMsG+66X1xCsacHnckENdfMDgaSHsI1rWgBrN+ejTQNPzIgBDYq+qi3cndx3MGwIaGRvNoau0Mg5lRiaXWXINURsEf8aJSR5h6IHQcr8IIngiE1Fv4IbOqa2r1HLygs/m0BFF85Dq0pR++NhxV8Z96mVle5Lt3a6kRVffO/ZPAmzzl5wagVjUTcgaQRxLKCLNTedx+WRSKVYCbK2oHPzXEBRCHoFYGqc2tcR0106pGgqKrW3LQo91MrqEpgUBwTpvTHJFZ9RnWhN8CKEoTU6ZcH7IGy6XZQGhLTzhIZ6eEIz7jWGLk2Yfx5chbx2hOLiHIm8hXL6oN6GcL8oPrBJcbiljM12GkKimOh1in0RYrV7kmC3y9+3BFi7Xl9J7AMopDzlgOfm2uMMrvr2BkYStTABk38y/l/6u9ogX5fupQLLz5LGXFWuaSa8hbLK4lMv5srpZlEZ8QaidkizTaA3FppOZacuqfffjdURwTFIaw4LCJ45x+iJObIUpjrOAqqYFnTQoDjzXBYMx971xmk9Q8HqlE8TnIimop1HL21sit6KmK5vapdyZAvqmg85LqIXiueb21G6zxvWgz41mc0rZPo+g0y7YOz8e9oSRDtXPe1aD3IFrh+43NQcsG7jmP0GpkWsdIXF++aa8LlTkU3DFw/DTGue+dfI9JZYy9s/UjtngLzucY1IbOACD0euc4UVfYk7uJUvv7OiS9CoHU91WaJ9Znay+BtEX5bn1vpvpY4r78GGwLAhsvdIInfoTo0gove9a4s4qQvHHuuhIkciRTjmqEBawT63Bk9eNdc1PGvv6iuqQ22m9ZojJe+LIGdR319LzfY8RFlyF3GfASWj8wIW9tVvsMqP2nJHcwb+SxouRNy61Xvvp1vwfXGsNYHKr+Na5pZHTMb6lSaOovuZyHeZdXZ9b27hOn5GJ578Lur3vOA91G+w+FrzBFx6sd46ffXOw7+PIuuz/zX0/PUxpNnlF/7SvC3i7UW8TeJ52etwaeuqe4l88i/Rq2VNtP9jHWj4RkY89VYzlKpr8PLWfT3ijjlLOyd8OB9lsZ7upC/2bg2o/d9i5u3Jny/0/Tuugl+b/x5a35O1nlWPa0O26jvY/U1ovCnyYX1Thme93AMNor1GYvaYX+YBVGtLX/Vo0fylQIWjukjhKMmJI0o0UVrJbrFXToEL6jPMMzYQQiSknBByIwllGg0DFJJcepfJmW0ErujmzVkh5LWKozTgadAJGHiYPjTn7/EFeSjHfE7LfGtjuUH8cosM9KYDVSjncJzVWUYhmGYfKChTHg7DJ7/b99AgQxIxKRNHgbFYUYT4UFxRhIus6ODlILijCJYODIMwzDMSGAF3Jr5Q/ccx4bd8DC5GRfokhxZQUQjNbnJuZGRNce25YxJB31NwfyCy+zoQATkbD4cGRRntMHCkWEYhmFGhE3w1n3vQhcFy9LXx9y0AOCjl/zRVRmGYRhmBOE5jgzDMAzDMAzDMEwoLBwZhmEYpgComjoZ/v3R+9UewzAMQyS/vwaP/8d7ao8Jg4UjwzAMwzAMwzAMEwrPcWQYhmEYhmEYhmFCYeHIMAzDMAzDMAzDhMLCkWEYhmEYhmEYhgmFhSPDMAzDMAzDMAwTCgtHJiUSaw5B3cYX4Tq1P3ZYD8vfk2uo/exJdSgNardra7FleK24LKlfAe//4lF4uz6Be2XwCv7//V+sgM2uFcXzhNmL8jdt6SJ+E+Z5YxnuJGDzOsr/R+GV2fLrEadhN2wU5bEVatWhEWck8iwX93yyVb7r7+12L+A/gsSpD9Y24rF1s2CJ2i8k4v12VT5EWUkPcR/7ORQmY7Kc5W0blnmZzRZWHTQ6y7/VNqhnbLUbWSvHk2H+w03QdH+V2h99sHBk8o5sitPSrX/JXodZdcDDxOCpDdNgy324bTsOg+rY8HIFLifl51eFunJ46Sx4Gyv6kRFuSfjqsvy8/I04wEQyEnlWKM8p8/pAdgIXwVq1b0YK1PzvJJbB7HKAzhPn4Ig6YqS0DO5IJOHksW51gMkPRr6cra1CYXbxDGzNt/Y1j8rskbaD8NCrv4OH3jkDUBun/shjvrkMQ/SJFWlonRGXktvglvHfQftnF9SB0QcLR4YR7IBDP5ai76031aFRwpH+K+Kzr1/0EI1Yo9/ubYxZ/nKAPnIqNtOoo2pYhgbkc8g7WtfA6zSYcV8DnFKHRpyU8syxDgZ1GH3l2zTqnovn9GaDHCj68RrIl35knPqgUFlSXwPToRvOnlUHAli7sAbGJbvgSAYPdVcLdpyx8/zTNn4OY4bSWbCUBh4umMWZt70IFriWJ0DAOWrw07lWtPAKL7PO/aKu5/wG8zneujZUxPeeg5+ieBzC+6/KsSU0VhugYZ/va9OtQcXcDL5Xza2GCVe/gi/61YFRSAELxypY1tQEy25XuwwzJlCVXvIydMoDDskz8BqNAqpt38UE3PXYyI7e5jPUgD5d2aXl2VHoTNTA0xEuK50D1FEsYItvGgTlmezELAY4QZ0PM9QBWAVH7XJNo9xD5YsiOw6F8ZxC6oOCIwFLKrGuu3gRdqkjZqRVcqijOzsWBmbMsKS6AsYZBx6kMHO3F8GDBmsbF8F09X8f5Br5WA3AKWW1e/UgnEyi8AoVj8FlVtahiwBanXRRW2Z8B1CwbqgN6g/IAbxV5d2wz7pOazeMq10RKR4/vIif5eU5szqm3AZgHq/C/IpFbxL68CM7A45VMP1mgO/+/gV8q44ISubD6lGkR/6lvLz8f9X/M2LatGnQ09MD//znP9WRPIYe0o9Q9UMPHGs+DG6DcT1M2fgcVBSrXeTqJ7+Bcx+0qT3pSlkNLXCi7VaY9cTdMF4d7zu4HLo+Uzs3vYjfzYT+/1wN39fj+VYtMfgpnH79V3BN7cZjHVS80AiA1++5YS/MuWecOt4B7Vuewq6BhTxvHKX3m0aoW1GpjnvSRoj0OWn3X0ty3QP6/RTab5Df9wanQ8s3wns9O2996fGQUr5tg5/98SdQofb8fAkHbOsLzW18HuYViR0kCX/e9q9wqFXtIjRv8UEnK310tRislOTWumkBDJq+E0TfN5uIinUiCseduosWNQQr4K4ENQTUkKj9y1gBH0vA29h4WU9qCBsxbyMorqlVvqZzxMipdh1JEk6+c1C5+lCDuwimeP5WiLbaKypdGtSoNmiNwUVMa4sc/fWmx0snNpzPRFgaopDpAi392UWUNXgXtuwpE+XHqobcZUyVnX7/eYMfvQSvb94hd1QZtKuyK8dhR4hljNy619/rdABc11LEOSdr0LOuuyzLrCpH1JmKY8GRZcEq1zmA5jY2zlA7SAc+iw2b1A4hn9GM8y/B0RufF/WHyKuvH1F/53nfvc/KJjf1gl0fHADYoL2fzjsi38vAzi12nilvO8X7ENxp1OsEcU/q3HnqFtN7GatuEah00qCYq24zIOqOosh3N6juiZt+b9pD652Q+sxCpkfLY+856t3oM6XDqvPFfQD2vXMZloq00/M7A7eI+h9PNtw3DJEmEkk7k0LQWOXE+5zsNASWM4ewZ+7LAw/e+0bmmSLsnn7MbRXhymt1LBD7eR3F9957Pa0NdqU3+N5EUJkNKhtBWL9jX0cFrPJeL+D9Cby3hsxnvT5Ora+RDv57Wjj33gcoIOM+tywwuW41rJx51aA7UFLe3wQLSVSe3w97T7hkZd5ReBbH25dBE4nGq+2w3/DwEmt+DtCyHE5sUdvBDhh/z3Mw64F6dYZiOgozIQzleac/GYIpK/bClJvU94JxUPGEEpniei3QV3w3zFmzTn2fGlNWHII5VefhtLjWb6BrsBKqDXMBKb11KwDFnDltJN7qUKQNoZi0fmd7J17rBXf6SSBLUaifp75MGRLkdD3sBKs8o+1LaJT3/PpXcE6/BwlFtS+2lMT2JnhLuOZNgx0fUQVEQlHuy0132XNcVLe0fKmOufHOW6ROvHOtdFxbSdiqjr+6xo6PAOZt+gssx8Z9+LBcMjzQSN1jFfD5O+5RRWfOIDViqqHURvjEXAZ9hI8aGtVo2SOBeK10oYaAOlnU6bCvd6HcTpflGiZGG3HfdR5ucRrOvKDyJ/DCpjvhy21W2UhCRaOhbHjOo/JbfO/zzhxc20V1GhzoUMeMyMBQ6+8FFCnqWrjtgUdc9yRRu/7eS867hO8D4P02bl2vzsgyZ7FTMUwNespYLqr3vQR/DhuInvkULLr0kniGxfj/jY2A+fcudGHnZcYPVL4p0QgoLN3XpHord4NJQNZz7T1/7VQSpmNHVloFuuEZ9d7QcSkU9fdJdsbsuUy4T9U2dfqccwwWF0/dIu/pD9zjsmrg9uGkxWa3+tnlUrQkKmBJhNu9mJsW6X4aYZWMkX5vPRREVH1GyE45DVQ557w2UJPm/O0iWPrgRPhQPKsyWLpuMdzRcVA+33SsQVR+UMzYlixfO6EILWdEdHsSv5yRKHhUCRnre/wbem4eT5GUyhkhyloSPm/3lGkUZ8J9NWrerADT9yCKJBSyxvZIzFPEa3lcYaWLNfYoK8sM3i7BZVa6r6IQjNP2YXu9qjwJJw+cM3onmN+fMhSYJNDLYHZgmZTWUOM7FdnXyD5L6hfLwfIUBkqyw2S47dYJAP/o9OkO4sIfmmH/+e9gwsyVeR84p6CEI6n9pgVThaJv3vOx21SsSO5eDX1fqx3isxYUaCjGquo9Am0IBZBz7rUPDkMfCsWS2R6B2YmicfdOtbMTelDEwfQ5+Kqngcvq1gZ9x7A3WDwTil1iFRGiy7EAXjt7Hq5i2q4XFeI6mHrPOGHp0y2Qyd0oakno1itRe9OLUIY1Vd9BvxUyLeY2QkWxO8+Iax885c7vAqB063KooE6hZqHo3fwGdhYTMO/hberI4/BySwu0BG2vPK7Oy4QE3DIRP3xubNSYaqOKZy+K76eUyFJrzRPap3fqe8/BdtEBqVENLzaQddjQBDWQqWI1zthJcV0PxcVwCsLpkygPcu3e6LYy9W4+5BYaNh5h8eZJPA+rhJtSFHJPPgLzivyWrd7NDc4+iptFlTRoog26oDDdQ4Lo3kdU8KnF8MtmQ1m1tuZf4hnDQVC5Hn6Kiy7BUcsiW5SAQS3/im+UbgylP7gTivFZ2ufRYNaHNIg1A+60BgGaXjbnqdpeblLnpYRu+cfOeXuXmIsU3AHMBp57tp3BZ5SAO6qtFlE9O08nc1dLgJVQ1U3RglB2XjMPihOV/pjErM9EfeP5bSSi0qvz8FodZ+x8HYe1xXZbcBXBLRHC24Qr/WfPwEm83HQSGC7Cy1m89iQms2tQFND9dCtTNzxDA5YoYFfZZTvFcoYEBsW5YSLmZRIuw6zIeYmRosW6lhawiwQuWXf3UX4kJsqBEp3AMqt+42UU6jRIoaXN71qK4r2hDAX5nwJ+v3Mt+xmRNVMMHEgxb/UPLMTAiMoH4RFg/M1hfQ05CKCn27WFThkJaAMwzeSK24lp9onYXBMjKM63J/ZC8/EegJsXQtPD81Fq5icFIxzJDLxy5gToOd6cohm4Db4fUP/VGTwPgy7B0wHfk8Ascfs09rVbolFy7Rt6Q0rheq/Yi8HVC21uq1vvgCYINQb+7j5PWfOEUJw7B6bgx9A3bhdSErUD9IZNulUI5Otmz4Tx+JsGdPfWDEhUk6+WN88KkfVQO5Ma8JOeQCU7oJcmS5eUqbD+v4VnGxuhMWh75rfirExY20huStjgHPB0pgxCkqwPclRXjW4aOuWyQ5CAiTfgTsDIaboEzy0ZRsSILH4GWSOyxZW/wimXlakDKN6JJTRsrlwCbGI0pKU9VdfR2jkzDPd0Y4mbv3qs671fX8J/b4RSYZn8E/y6yVBWra3p13hG7pGdM6zj8mGOmus9T0L/F+q/GlNvpE6SCe385mfNeaq2Z5vVeakQKbZygO+eMurruEmWz77ygiBLRMQcVYmyjEZYprMWFCcy/fGIW5+Jebgx5lXHw2MtyzhKpDf96tlNxDZCHpCElrOY7UlMhLgzDex5Bj/ttMYtZ5bQN7RnS0ro2SfgrjqA7cpyaZ6XKK1zQ6cc8R6OtMQuHTgoyrc3fyyCy2wRPQrxG2dfsNKFm7Lq6eLRej8+jOkiSpbw9x8j63WwJ48ou1ZchaD3M7SvkYStO7V0e7eQdz6oDUjJAptlYgfF+dthaP59O3w3vhpWNi2DfLQ9FoZwLJkPNTer/0dBc+1eOAR12mbPT8wRYvkJzz19rrFZZQi+D6rIiyflYI3Gerh+En54BW1BUgminSE3Q7XWo7WFzaPMCsK1yBmxk65BwSOsoYR0Orwjj9lAjrz7OxfDhpjfgR2MwJHT0cp6KC3Bj/7u0KigUtzMgAc9ZdY1zy8PsOc2XTzqd5PMU07tIRf4GbDIdvldD8uXRov5sQq5ekr3SXznVF3lt5CkghQn0R32mFbJLBC3PhMumspaZtfdsQT1KCOb7UlIvuoCP5VyJoR+qODwDsCi6DlArsqOZVUExMFrOFbeEG6wrHnBAXYkMcqs1+vn7FHYd1Fze03RCmdZQF9T7ur5RmAboLni5vr99iOD4vScMXs6BjMVauryz+5YGMKx/2PY2yz9h6cuCFl40wrQQu6l2vy69Of1xSO5W5vLpzZvUJlhY3AgB+JOWW2VNbOwkdYjEUzDmiumb3bwkhy4qlqjfzFG7DIhF8sAyJF3g5vOcEAuOSKAhcedakzgtXSb6blEz9Q7V9jaLBfXxSPrqoodA9FhGG3i/rYbRVAcmp8qBfnzMA88gYxy4qqavzhz2shyg51cj4UkJZT7om9umoe4VslskFJ9RnN9VZ1NHf741tixQTbbE29kzHjlTFkKAzwYrOVvQokrWsSSQQm4q0HO+/O7LbtFcXiZtdZwDSNizqWNY6EVAaL0drA0IbzYst/up+GqGtgGRLni5pbJdTUoAXug82/qQBiuOCypekgODwXjqkpE+Q9L98wh6Gpzu5fG4qZ6KMHW3+ua6iWbLptpuZN+dto8FxPWwSRsxSx3WKNLrZr3GIlyh9W51j+EPSPDfEwD8tzsWD7drnQZ0totguOkPIfMRbyO+nC4qqZHEo50YANhCKbgcr9SIazdo8Vq3mMkyn1JQzbOzuhtKMZ7pwmJRhHxjeZijNAIa8MPYUYRQNdpPWpn9hCisOhOqA15R+K9RyPoqqpbhEeVuFfWRe9Aki4aiVy4qsZEvntRc+DSc9mMdmkndzXVqTdeW7rzhc13ykpQnCDSdMlPqT7TICuZEI9ed1Af0hKVCdYctfiCXd4zNRfxmO2JTXg520XPwRQoCRNmDGxjE1LOov5WiT2fS602X1G60MrlrxzxI6PRkli187m3Gz6n2/jmUpryNqrMBrgO49/Z8xVV+dWtrrTJiLTkaivTSc9G5C1e0zuXMsjtWojyjOriFF1Vw9oA8QydvLY2MfXEsuZnxR3cxGQIC4qjY8VhgX8cC4zDkg8UlHAUhPgPS7GkiyoZCTTaVRXPa7wbxg9+Cj1hIm7uG+JafcdSXY7DAIq4GSLITQu+XqmwUwToGX/Pzz0RVBtR7HVAt2XpVALTDpZDS2w8cTeKXnecOJlnlTBprtyn36gvA2JhBQ+qeOINrLYcrnvgDU8kWueaZdlw1/3iEoo9PehMJqi5ZnYwkPQQrmlFC2D99mykafiRASGwUdFHvZW7i+MOhg0JucPU1tgdAjGnEkuruwSpjoAdLY5GGWnupdhxsAIveCIYUmPhj8CmrqndOy3yQTSSsPi3BVB85Ti0phy9Nx5W8J15m1pd5bp0a6sTVfXN/5LBmzzn5AWjVjQScQeSRhDLCrJQe999WBaJVIKZKGsHPjfHBRCFoLcDpzq3xnXUVIcwMKoqvsOxIl5aQVUCg+KYMKU/JrHqM6oLvQFWlCCkTr88YA+UTbeD0pCYdpbISA9HeJojefqRaxPGnydnEa89sYgoZyJfsaw+qJchzA+qH1xiLG45U4OdpqA4FmqdQl+kWO2eJPj94scdIdae13cCyyAKOW858Lm5xiizu46dgSEURhs08S/n/6m/owX6felSLryi3ZPpFM/AlLdYXklk+t1cKc0kzjzlO1dEtQGa1V7fxCAM/Q3t56rtuP1uqI4IikNYcVhE8M4/REnMkaUw13EUVMGypoUAx5vhsGY+9q4zSOsfDlSjeJzkRDQV6zh6a2VX9FTEcntVu5IhX1TReMh1Eb1WPN/ajNZ53rQY8K3PaFon0fUbZNoHZ+Pf0ZIg2rnua9F6kC1w/cbnoOSCdx3H6DUyLWKlLy7eNdeEy52Kbhi4fhpiXPfOv0aks8Ze2PqR2j0F5nONa0JmARF6PHK9IqrsSdzF6YD7Oye+CIHW9VSbJdZnai9DMUZuOPrcSve1xHn9NdgQgE+wid+hOjSCi9ggGN0S46QvHN+9dIIaqAwxrhkasEagz53Rg3fNRR3/+ovqmtpgu2mNxnjpyxK2cDeBHR9RhtxlzEdg+ciMsLVd5Tus8pOW3MG8kc+Cljsht1717tv5FlxvDGt9oPLbuOab1TGzMQ2m+J+FeJdVZ9f4Ppmej+G5B7+76j0PeB/jrDFHxKkf46XfX+84+PPMd80Y19Pz1MaTZ5Rf+0rwt4u1FvE3iednrcGnrqnu5Sz54Z7vbqXNdD97HpmO4RkY89VYzlKpr8PLWfT3ijjlLOyd8OB9lsZ7upC/2bg2o/d9i5u3Jny/M3ogNPi98eet+TlZ51n1tDpso76P1deIwp8mFyFtQOw8zACxPmNRO+wPsyCqteWvevRIvlLAwjF9hHDUhKQRJbporUS3uEuH4AX1GYYZOwhBUhIuCJmxhBKNhkEqKU79y6SMVoajk+ZGdihprcI4HXgKRBImDoY//flLXEE+2hG/0xLf6lh+EK/MMiON2UA12ik8V1WGYRiGyQcayoS3w+D5//YNFMiAREza5GFQHGY0ER4UZyThMjs6SCkoziiChSPDMAzDjARWwK2ZP3TPcWzYDQ+Tm3GBLsmRFcS8JpObnBsZWXNsW86YdNDXFMwvuMyODkRAzubDkUFxRhssHBmGYRhmRNgEb933LnRRsCx9fcxNCwA+eskfXZVhGIZhRhCe48gwDMMwDMMwDMOEwsKRYRiGYQqAqqmT4d8fvV/tMQzDMETy+2vw+H+8p/aYMFg4MgzDMAzDMAzDMKHwHEeGYRiGYRiGYRgmFBaODMMwDMMwDMMwTCgsHBmGYRiGYRiGYZhQWDgyDMMwDMMwDMMwobBwZFIiseYQ1G18Ea5T+2OH9bD8PbmG2s+eVIfSoHa7thZbhteKy5L6FfD+Lx6Ft+sTuFcGr+D/3//FCtjsWlE8T5i9KH/Tli7iN2GeN5bhTgI2r6P8fxRemS2/HnEadsNGUR5boVYdGnFGIs9ycc8nW+W7/t5u9wL+I0ic+mBtIx5bNwuWqP1CIt5vV+VDlJX0EPexn0NhMibLWd62YZmX2Wxh1UGjs/xbbYN6xla7kbVyPBnmP9wETfdXqf3RBwtHJu/Ipjgt3fqX7HWYVQc8TAye2jANttyH27bjMKiODS9X4HJSfn5VqCuHl86Ct7GiHxnhloSvLsvPy9+IA0wkI5FnhfKcMq8PZCdwEaxV+2akQM3/TmIZzC4H6DxxDo6oI0ZKy+CORBJOHutWB5j8YOTL2doqFGYXz8DWfGtf86jMHmk7CA+9+jt46J0zALVx6o885pvLMESfWJGG1hlxKbkNbhn/HbR/dkEdGH2wcGQYwQ449GMp+t56Ux0aJRzpvyI++/pFD9GINfrt3saY5S/bWCON+mYadVQNy9CAfA55R+saeJ0GM+5rgFPq0IiTUp451sGgDqOvfJtG3XPxnN5skANFP14D+dKPjFMfFCpL6mtgOnTD2bPqQABrF9bAuGQXHMngoe5qwY4zdp5/2sbPYcxQOguW0sDDBbM40y1ttAULXMsTIOAcNfjpXCtaeIWXWed+UddzfoP5HG9dGyrie8/BT1E8DuH9V+XYEhrdBnjzgDZTH8gaVMzN4HvV3GqYcPUr+KJfHRiFFLBwrIJlTU2w7Ha1yzBjAlXpJS9DpzzgkDwDr9EooNr2XUzAXY+N7OhtXnP2qJ1XcjsKnYkaeDrCZaVzgDqKBWzxTYOgPJOdmMUAJ6jzYYY6DKtAe1bUUSlH0R/RUSmM5xRSHxQcCVhSiXXdxYuwSx0xI62SQx3d2bEwMGOGJdUVMM448CBFydOVXa42NmjQYG3jIpiu/u+DBiwfqwE4pax2rx6Ek0kUXqHiMbjMWh4D0Oqki9oy4zuAgnVDbVB/QA7grSrvhn3WdVq7YVztikjx+OFF/Cwvz5nVMV4b0A3PWN+rTfaBIgbQe5PQhx/ZGXCsguk3A3z39y/gW3VEUDIfVo8iPfIv5eXl/6v+nxHTpk2Dnp4e+Oc//6mO5DH0kH6Eqh964FjzYXAbjOthysbnoKJY7SJXP/kNnPugTe1JV8pqaIETbbfCrCfuhvHqeN/B5dD1mdq56UX8bib0/+dq+L4ez7dqicFP4fTrv4Jrajce66DihUYAvH7PDXthzj3j1PEOaN/yFHYNLOR54yi93zRC3YpKddyTNkKkz0m7/1qS6x7Q76fQfoP8vjc4HVq+Ed7r2XnrS4+HlPJtG/zsjz+BCrXn50s4YFtfaG7j8zCvSOwgSfjztn+FQ61qF6F5iw86Wemjq8VgpSS31k0LYND0nSD6vtlEVKwTUTju1F20qCFYAXclqCGghkTtX8YK+FgC3sbGy3pSQ9iIeRtBcU1srCxM54iRU+06kiScfOegcvWhBncRTPH8LTV2T9deUenSoEa1QWsMLmJaW+Torzc9Xjqx4XwmwtIQRWC6soQoa/AubNlTJsqPVQ25y5gqO/3+8wY/egle37xD7qgyaFdlV47DjhDLGLl1r7/X6QC4rqWIc07WoGddd1mWWVWOqDMVx4Ijy4JVrnMAzW1snKF2kA58Fhs2qR1CPqMZ51+Cozc+L+oPkVdfP6L+zvO+e5+VTW7qBbs+OACwQXs/nXdEvpeBnVvshFHedor3IbjTqNcJ4p7UufPULab3MlbdIlDppEExV91mQNQdRVrdYyboHY+bfm/aQ+udkPrMQqZHy2PvOerd6DOlw6rzxX0A9r1zGZaKtNPzOwO3iPofTzbcNwyRJhJJO5NC0FjlxPuc7DQEljOHsGfuywMP3vtG5pki7J5+zG0V4cprdSwQ+3kdxffeez2tDXalN/jeRFCZDSobQVi/Y19HBazyXi/g/Qm8t4bMZ70+Tq2vkQ7+expIMX8yZXLdalg586pBd6CkvL8JFpKoPL8f9p5wycq8o/AsjrcvgyYSjVfbYb/h4SXW/BygZTmc2KK2gx0w/p7nYNYD9eoMxXQUZkIYyvNOfzIEU1bshSk3qe8F46DiCSUyxfVaoK/4bpizZp36PjWmrDgEc6rOw2lxrd9A12AlVBvmAlJ661YAijlz2ki81aFIG0Ixaf3O9k681gvu9JNAlqJQP099mTIkyOl62AlWeUbbl9Ao7/n1r+Ccfg8SimpfbCmJ7U3wlnDNmwY7PqIKiISi3Jeb7rLnuKhuaflSHXPjnbdInXjnWum4tpKwVR1/dY0dHwHM2/QXWI6N+/BhuWR4oJG6xyrg83fUyJwaVXTmDFIjphpKa/TOmsugj/BRQ6MqZXuUD6+VLtQQUCeLOh329S6U2+myXMPEaCPuu87DbTgahqxQ+RN4YdOd8OU2q2wkoaLRUDY851H5Lb73eWcOru2iOg0OdKhjRmRgqPX3AooUdS3c9sAjrnuSqF1/7yXnXcL3AfB+G7euV2dkGbL4xumIjQSWi+p9L8GfwwaiZz4Fiy69JJ5hMf5/YyNg/r0LXdhxmvEDlW9KNAIKS/c1qd7K3WASkPVce89fO5WE6diRlVYBZ3SejkuhqL9PsjNmz2XCfaq2qdPnnGOwuHjqFnlP94i/0+FzrvPhpMVmq8DscilaEhWwJMLtXsxNi3Q/jbBKxki/tx4KIqo+I2SnHLCz7pzz2kBNmvO3i2DpgxPhQ/GsymDpusVwR8dB+XzTsQZR+UExY1uyfO2EIrScEdHtSfxyJq1iUshY3+Pf0HPzeIqkVM4IUdaS8Hm7p0yj+BDuq1HzZgWYvgdRJKGQNbZHYp4iXsvjCitdrLFHWVlm8HYJLrPSfRWFYJy2D9vrVeVJOHngnNE7wfz+lKHAJIFeBrMDy6S0hhrfqci+xlhiMtx26wSAf3T6dAdx4Q/NsP/8dzBh5sq8D5xTUMKR1H7TgqlC0Tfv+dhtKlYkd6+Gvq/VDvFZCwo0FGNV9R6BNoQCyDn32geHoQ+FYslsj8DsRNG4e6fa2Qk9KOJg+hx81dPAZXVrg75j2BssngnFLrGKCNHlWACvnT0PVzFt14sKcR1MvWecsPTpFsjkbhS1JHTrlai96UUow5qq76DfCpkWcxuhotidZ8S1D55y53cBULp1OVRQp1CzUPRufgM7iwmY9/A2deRxeLmlBVqCtlceV+dlQgJumYgfPjc2aky1UcWzF8X3U0pkqbXmCe3TO/W952C76IDUqIYXG8g6bGiCGshUsRpn7KS4rofiYtgEIaaB3HiGTp0JHsHMCm4rU+/mQ26hYeMRFm+exPOwSrgpRSH35CMwr8hv2erd3ODso7hZVEmDJtqgCwrTPSSI7n1EBZ9aDL9sNpRVa2v+JZ4xHASV6+GnuOgSHLUsskUJGNTyr/hG6cZQ+oM7oRifpX0eDWZ9SINYM+BOaxCg6WVznqrt5SZ1Xkroln/snLd3iblIwR3AbOC5Z9sZfEYJuKPaahHVs/N0Mne1BFgJVd0ULQhl5zXzoDhR6Y9JzPps+iS8rue3kYhKr87Da3U4ddc4rC2224KrCG6JEN4mXOk/ewZO4uWmk8BwEV7O4rUnMZldA3fR83tHtzJ1wzM0YIkCdpVdtlMsZ0hgUJwbJmJeJuEyzIqcl7ikfrH08Amy7lrX0gJ2kcAl6+4+yo/ERDlQohNYZtVvvIxCnQYptLT5XUtRvDeUYdv2p4Df71zLfkZkrRMDB1LMW/0DCzEwovJBeAQYf3NYX0MOAujpdm2hU0bitAFKxMcV1pkSIyjOtyf2QvPxHoCbF0LTw/NRauYnBSMcyQy8cuYE6DnenKIZuA2+H1D/1Rk8D4MuwdMB35PALHH7NPa1W6JRcu0bekNK4Xqv2IvB1Qttbqtb74AmCDUG/u4+T1nzhFCcOwem4MfQN24XUhK1A/SGTbpVCOTrZs+E8fibBnT31gxIVJOvljfPCpH1UDuTGvCTnkAlO6CXJkuXlKmw/r+FZxsboTFoe+a34qxMWNtIbkrY4BzwdKYMQpKsD3JUV41uGipk2SFIwMQbcCdg5DRdgueW5BjROKqGitxpUAhnw40mlCt/hVMuK1MHULwTS2jYXLkE2MRoSEt7qq6jtXNmGO7pxhI3f/VY13u/voT/3gilwjL5J/h1k6GsWlvTr/GM3CM7Z1jH5cMcNdd7noT+L9R/NabeSJ0kE9r5zc+a81Rtzzar81IhUmzlAN89ZdTXcZMsn33lBUGWiIg5qhJlGY2wTGctKE5k+uMRtz4T83BjzKuOh8dalnGUSG/61bObiG2EPCAJLWcx25OYCHFnmrfsGfy00xq3nFlC39CeLSmhZ5+Au+oAtivLpXleorTOxR94lJbYpQMHRfn25o9FcJktokchfuPsC1a6cFNWPV08Wu/HhzHbNrKEv/8YWa+DPXlE2bXiKgS9n6F9jSRs3aml27uFvPPBbYAuRqn/4xmwyCGxg+L87TA0/74dvhtfDSublkE+2h4LQziWzIeam9X/o6C5di8cgjpts+cn5gix/ITnnj7X2KwyBN8HVeTFk3KwRmM9XD8JP7yCtiCpBNHOkJuhWuvR2sLmUWYF4VpkVZqWa1DwCGsoIZ0O78hjNpAj72GjhzmCosJpjdU+wI7GmIpGux5KS/Cjvzs0KqgUNzPgQU+Zdc3zywPsuU3DIfCzxKk95AI/AxbZLr/rYfnSaDE/ViFXT+k+Se+arKv8FpJUkOIkusMe0yqZBeLWZ8JFU1nL7Lo7lqAeZWSzPQnJV13gp1LOhNAPtUx5B2BR9BwgV2XHsioC4uA1HCtvCDdY1rzgADuSGGXW6/Vz9ijsu6i5vSpPms7WkLmAGpYF9DXlrp5vhLcBHjGK9euqjOuXOMigOD1nzJ6OwUyFmrr8szsWhnDs/xj2Nkv/4akLQhbetAK0kHupNr8u/Xl98Uju1ubyqc0bVGbYGBzIgbhTVltlzSxspPVIBNOw5orpmx28JAeuqtbon7XlaKQtF8sAyJF3g5vOMLOrhdxy0nBNy1u8lm4zPZfomXrnClub5eK6eGRdVWcvkh0GKucpBPoYcW67UQTFofmpUpA/D/PAE8goJ66q+Yszp40sN9jJ9VhIUkK5L/rmpnmIa5XMBinVZ1p0Z+rwx7fGjg2y2Z54I2PGK2fKUhjgwWAtfxOKNn8wtM0VSwYl4K4GOe/P77bsFsXhZdZawzWMiDmXNo6FVgSI0vsOpQnhxZb9dj8NV9VU2wCviM4Rk+tqUAL2QOff1IEwXHFYUvWQHB4KxlWViPIflu6ZQ9DV5nYvjcVN9VCCrb/XNdVLNl0203In/ey0eS4mrINJ2IpZ7rBGl1o17zES5Q6rc61/CHtGhvmYBuS52bF8ul3pMqS1WwTHSXkOmYt4HfXhcFVNjyQc6cAGwhBMweV+pUJYu0eLsSGgeY+RKPclDdk4O6O3oRjvPYpp+CHMKALoOq1H7cweQhQW3Qm1Ie9IvPdoBF1VKRATRaekDsMwuR5lB2Vd9A4k6aKRyIWrakzkuxc1By49l81ol3ayEKhOvfHa0p0vbL5TVoLiBJGmS35K9ZkGWcmEePS6g/qQlqhMsOaoxRfs8p6puYjHbE9swsvZLnoOpkBJmDBjYBubkHIW9bdK7PlcarX5itKFVi5/5YgfGY2WxKqdz73d8DndxjeX0pS3UWU2wHUY/86er6jKr251pU1GpCVXW5lOejYib/Ga3rmUQW7XQpRnVBen6Kqat23AZAgLiqNjxWGBfxwLjMOSDxSUcBSE+A9LsaSLKhkJNNpVFc9rvBvGD34KPWEibu4b4lp9x1JdjsMAirgZIshNC75eqbBTBOgZf8/PPRFUG1HsdUC3ZelUAtMOlkNLbDxxN4ped5w4mWeVMGmu3KffqC8DYmEFD6p44g2sthyue+ANTyRa55pl2XDX/eISij096EwmqLlmdjCQ9BCuaUULYP32bKRp+JEBIbBR0Ue9lbuL4w6GDQmN5NXW2B0CMacSS6u7BKmOgD3iR6OMNPdA7DhYgRc8EQypsfBHYFPX1O6dHSht1NjHnwuSOSgs/m0BFF85Dq0pR++NhxV8Z96mVle5Lt3a6kRVffO/ZPAmzzl5wagVjUTcgaQRxLKCLNTedx+WRSKVYCbK2oHPzXEBRCHoFYGqc2tcR0106pGgqKrW3LQo91MrqEpgUBwTpvTHJFZ9Jusbdx2mBCF1+uUBe6Bsuh2UhsS0s0RGejjCM641Rq5NmHrdGK89sYgoZyJfsaw+qJchzA+qH1xiLG45w2cggrwZguJYqHUKfZFitXuS4PeLH3eEWHte3wksgyjkvOXA5+Yao8zuOnYGhhI1sEET/3L+n/o7z1QMaxMuvPgsZcRZ5ZJqylssryQy/W6ulGYSncM0rSPNNoDcWmk5lpy6p99+N1RHBMUhrDgsInjnH6Ik5shSmOs4CqpgWdNCgOPNcFgzH3vXGaT1DweqUTxOciKainUcvbWyK3oqYrm9ql3JkC+qaDzkuoheK55vbUbrPG9aDPjWZzStk+j6DTLtg7Px72hJEO1c97VoPcgWuH7jc1BywbuOY/QamRax0hcX75prwuVORTcMXD8NMa57518j0lljL2z9SO2eAvO5xjUhs4AIPR65zhRV9iTu4lS+/s6JL0KgdT3VZon1mdrL4G0RflufW+m+ljivvwYbAsCGy90gid+hOjSCi971rizipC8ce66EhkhbDkWjcc3QgDUCfe6MHrxrLur4119U19QG201rNMZLX5bAzqO+vpcb7PiIMuQuYz4Cy0dmhK3tKt9hlZ+05A7mjXwWtNwJufWqd9/Ot+B6Y1jrA5XfxjXNrI6ZDXUqTZ1F97PQ3xffu0uYno/huQe/u+o9D+gwync4fI05Ik79GC/9/nrHwZ9n0fWZ/3rGOsiTZ5Rf+0rwt4u1FvE3iednrcGnrqnuJfOIlvxwz3e30ma6n6luNHXajflqLGep1Nfh5Sz6e0Wcchb2TnjwPkvjPV3I32xcm9H7vsXNWxO+32l6d90Evzf+vDU/J+s8q55Wh23U97H6GlH40+TCeqcMz3s4BhvF+oxF7bA/zIKo1pa/6tEj+UoBC8f0EcJRE5JGlOiitRLd4i4dghfUZxhm7CAESUm4IGTGEko0GgappDj1L5MyWond0c0askNJaxXG6cBTIJIwcTD86c9f4gry0Y74nZb4Vsfyg3hllhlpzAaq0U7huaoyDMMwTD7QUCa8HQbP/7dvoEAGJGLSJg+D4jCjifCgOCMJl9nRQUpBcUYRLBwZhmEYZiSwAm7N/KF7jmPDbniY3IwLdEmOrCCikZrc5NzIyJpj23LGpIO+pmB+wWV2dCACcjYfjgyKM9pg4cgwDMMwI8ImeOu+d6GLgmXp62NuWgDw0Uv+6KoMwzAMM4LwHEeGYRiGYRiGYRgmFBaODMMwDFMAVE2dDP/+6P1qj2EYhiGS31+Dx//jPbXHhMHCkWEYhmEYhmEYhgmF5zgyDMMwDMMwDMMwobBwZBiGYRiGYRiGYUJh4cgwDMMwDMMwDMOEwsKRYRiGYRiGYRiGCYWFI5MSiTWHoG7ji3Cd2h87rIfl78k11H72pDqUBrXbtbXYMrxWXJbUr4D3f/EovF2fwL0yeAX///4vVsBm14riecLsRfmbtnQRvwnzvLEMdxKweR3l/6Pwymz59YjTsBs2ivLYCrXq0IgzEnmWi3s+2Srf9fd2uxfwH0Hi1AdrG/HYulmwRO0XEvF+uyofoqykh7iP/RwKkzFZzvK2Dcu8zGYLqw4aneXfahvUM7bajayV48kw/+EmaLq/Su2PPlg4MnlHNsVp6da/ZK/DrDrgYWLw1IZpsOU+3LYdh0F1bHi5ApeT8vOrQl05vHQWvI0V/cgItyR8dVl+Xv5GHGAiGYk8K5TnlHl9IDuBi2Ct2jcjBWr+dxLLYHY5QOeJc3BEHTFSWgZ3JJJw8li3OsDkByNfztZWoTC7eAa25lv7mkdl9kjbQXjo1d/BQ++cAaiNU3/kMd9chiH6xIo0tM6IS8ltcMv476D9swvqwOiDhSPDCHbAoR9L0ffWm+rQKOFI/xXx2dcveohGrNFv9zbGLH85xbLcGDotqmEZGpDPIe9oXQOv02DGfQ1wSh0acVLKM8c6GNRh9JVv06h7Lp7Tmw1yoOjHayBf+pFx6oNCZUl9DUyHbjh7Vh0IYO3CGhiX7IIjGTzUXS3YccbO80/b+DmMGUpnwVIaeLhgFme6pY22YIEb0p4QavDTuVa08Aovs879oq7n/AbzOd66NlTE956Dn6J4HML7r8qxJTRWG+DLV1MfyBpUzM3ge9Xcaphw9Sv4ol8dGIUUsHCsgmVNTbDsdrXLMGMCVeklL0OnPOCQPAOv0Sig2vZdTMBdj0VU/IxgbeMi7HDGo3OAOooFbPFNg6A8k52YxQAnqPNhhjoMq+CoXa5plHuofFGky1ZhPKeQ+qDgSMCSSqzrLl6EXeqIGWmVHOrozo6FgRkzLKmugHHGgQcpzJ6u7HK1sUGDBqHtCblGPlYDcEpZ7V49CCeTKLxCxWNwmbU8BqDVSddDrx41vwMorDbUBvUH5ADeqvJu2Gddp7UbxtWuiBSPH17Ez/LynFkdY7UBJBofq4DP31Hn4Cb7QBED6L1J6MOP7Aw4VsH0mwG++/sX8K06IiiZD6tHkR75l/Ly8v9V/8+IadOmQU9PD/zzn/9UR/IYekg/QtUPPXCs+TC4Dcb1MGXjc1BRrHaRq5/8Bs590Kb2pCtlNbTAibZbYdYTd8N4dbzv4HLo+kzt3PQifjcT+v9zNXxfj+dbtcTgp3D69V/BNbUbj3VQ8UIjAF6/54a9MOeecep4B7RveQq7BhbyvHGU3m8aoW5FpTruSRsh0uek3X8tyXUP6PdTaL9Bft8bnA4t3wjv9ey89aXHQ0r5tg1+9sefQIXa8/MlHLCtLzS38XmYVyR2kCT8edu/wqFWtYvQvMUHnaz00dVisFKSW+umBTBo+k4Qfd9sIirWiSgcd+ouWtQQrIC7EtQQUEOi9i9jBXwsgZVsDTaSkiFsxLyNoLgmNlYWpnNkZe1cR5KEk+8cVK4+1OAugimev6XG7unaKypdGtSoNmiNwUVMa4sc/fWmx0snNpzPRFgajKjf0Nd6FJ+rP63ZRJQ1eBe27CkT5ceqhtxlTJWdfv95gx+9BK9v3iF3VBm0q7Irx2FHiGWM3LrX3+t0AFzXUsQ5J2vQs667LMusegbUmYqT97IsWOU6B9DcxsYZagfpwGexYZPaIeQzmnH+JTh64/Oi/hB59fUj6u8877v3Wdnkpl6w64MDABu099N5R+R7GTxYIvO2U7ynwZ1GvU4Q96TOnaduMb2XseoWgUonDYq56jYDou4o0uoeM0F1T9z0e9MeWu+E1GcWMj1aHnvPsesnQzqsOl/cB2DfO5dhqUg7Pb8zcIuo//Fkw33DEGkikbQzKQSNVU68z8lOQ2A5cwh75r488OC9b2SeKcLu6cfcVhGuvFbHAgltT7Q22JXe4HsTQWU2qGwEYf2OfR0VsMp7vYD3J/DeGjKf9fo4tb5GOvjvaSDFdiVTJtethpUzrxp0B0rK+5tgIYnK8/th7wmXrMw7Cs/iePsyaCLReLUd9hseXmLNzwFalsOJLWo72AHj73kOZj1Qr85QTEdhJoShPO/0J0MwZcVemHKT+l4wDiqeUCJTXK8F+orvhjlr1qnvU2PKikMwp+o8nBbX+g10DVZCtWEuIKW3bgWgmDOnjcRbHYq0IRST1u9s78RrveBOPwlkKQr189SXKUOCnK6HnWCVZ7R9CY3ynl//Cs7p9yChqPbFlpLY3gRvCde8abDjI6oMSCjKfbnpLnuOi+qWli/VMTfeeYvUiXeulY5rKwlb1fFX19jxEcC8TX+B5di4Dx+WS4YHGqnTR+bUqKIzZ5AaMdVQaiN8Yi6DPsJHDY1qtKwRPrpWulBDQJ0s6nTY17tQbqfLcg0To4247zoPtzgNpx9s4B7ERg07Hun9fRpU/gRe2HQnfLnNKhtJqGg0lA3PeVR+i+993pmDa7uoToMDHeqYERkYav29gCJFXQu3PfCI654katffe8l5l/B9ALzfxq3r1RlZ5ix2KuJ0xEYCy0X1vpfgz2ED0TOfgkWXXhLPsBj/v7ERMP/ehS4sVzN+oPJNiUZAYem+JtVbuRtMgkQNPK2956+dSsJ07MhKq0A3PKPeGzouhaL+PsnOmD2XCfep2qZOn3OOweLiqVvkPd0j/k6Hz7nOh5MWm60Cs8ulaElUwJIIt3sxNy3S/TTCKhkj/d56KIio+oyQnXLAzrpzzmsDNWnO3y6CpQ9OhA/FsyqDpesWwx0dB+XzTccaROUHxYxtyfK1E4rQckZEtyfxyxkJkkeVkLG+x7+h5+YJbpJSOSNEWUvC5+2eMo3iQ7ivRs2bFUS0J2KeIl7L4worXayxR1lZZgjQElxmpfsqCsE4bRe216vKk3DywDmjd4L5/SlDgUkCvQxmB5ZJaQ01vlORfY2xxGS47dYJAP/o9OkO4sIfmmH/+e9gwsyVeR84p6CEI6n9pgVThaJv3vOx21SsSO5eDX1fqx3isxYUaCjGquo9Am0IBZBz7rUPDkMfCsWS2R6B2YmicfdOtbMTelDEwfQ5+Kqngcvq1gZ9x7A3WDwTil1iFRGiy7EAXjt7Hq5i2q4XFeI6mHrPOGHp0y2Qyd0oakno1itRe9OLUIY1Vd9BvxUyLeY2QkWxO8+Iax885c7vAqB063KooE6hZqHo3fwGdhYTMO/hberI4/BySwu0BG2vPK7Oy4QE3DIRP3xubNSYaqOKZy+K76eUyFJrzRPap3fqe8/BdtEBqVENLzaQddjQZEtwWY0zdlJc10NxkUtBt6R+sbTIpjAanzluK1Pv5kNuoWHjERZvnsTzsEq4KUUh9+QjMK/Ib9nq3dzg7KO4WVRJgybaoAsK0z0kiO59RAWfWgy/bDaUVWtr/iWeMRwElevhp7joEhy1LLJFCRjU8q/4RunGUPqDO6EYn6V9Hg1mfUiDWDPgTmsQoOllc56q7eUmdV5K6JZ/7Jy3d4m5SMEdwGzguWfbGXxGCbij2moR1bPzdDJ3tQRYCVXdFC0IZec186A4UemPScz6bPokvK7nt5GISq/Ow2t1nLHzdRzWFtttwVUEt0QIbxOu9J89AyfxctNJYLgIL2fx2pOYzK7B+prup1uZuuEZGrBEAbvKLtspljMkMCjODRMxL5NwGWZFzkuMbE+sa2kBu0jgknV3H+VHYqIcKNEJLLPqN15GoU6DFFra/K6lKN4bylCQ/yng9zvXsp8RWevEwIEU81b/wEIMjKh8EB4Bxt8c1teQgwB6ul1baJTTmG2AyO9hmg8eIyjOtyf2QvPxHoCbF0LTw/NRauYnBSMcyQy8cuYE6DnenKIZuA2+H1D/1Rk8D4MuwdMB35PALHH7NPa1W6JRcu0bekNK4Xqv2IvB1Qttbqtb74AmCDUG/u4+T1nzhFCcOwem4MfQN24XUhK1A/SGTbpVCOTrZs+E8fibBnT31gxIVJOvljfPCpH1UDuTGvCTnkAlO6CXJkuXlKmw/r+FZxsboTFoe+a34qxMWNtIbkrY4BzwdKYMQpKsD3JUV41uGipk2SFIwMQbcCdg5DRdgueW5BI5mjp0yulsDQtX/gqnXFamDqB4J5bQsLlyCbCJ0ZCW9lRdR2vnzDDc040lbv7qsa73fn0J/70RSoVl8k/w6yZDWbW2pl/jGblHds6wjsuHOWqu9zwJ/V+o/2pMvZE6SSa085ufNeep2p5tVuelQqTYygG+e8qor+MmWT77yguCLBERc1QlyjIaYZnOWlCcyPTHI259JubhksUuK0sBeKxlGUeJ9KZfPbuJ2EbIA5LQchazPYmJEHemecuewU87rXHLmSX0De3ZkhJ69gm4qw5gu7JcmuclptqeSEvs0oGDonx788ciuMwW0aMQv3H2BStduCmrni4erffjw5jummQJf/8xsl4He/KIsmvFVQh6P0P7GknYulNLt3cLeefjtQFSLPvLcW6IHRTnb4eh+fft8N34aljZtAzy0fZYGMKxZD7U3Kz+HwXNtXvhENRpmz0/MUeI5Sc89/S5xmaVIfg+qCIvnpSDNRrr4fpJ+OEVtAVJJYh2htwM1VqP1hY2jzIrCNciZ8ROugYFj7CGEtLp8I48ZgM58h4xephlRAADbPicUfmxyHooLcGP/u7QqKBS3MyABz1l1jXPLw+w5zZdPOp3k8xTTu0hF/gZsMh2+V0Py5dGi/mxCrl6SvdJ7NSruspvIUkFKU6iO+wxrZJZIG59Jlw0lbXMrrtjCepRRjbbk5B81QV+KuVMCP1Ql0/vACyKngPkquxYVlNqT26wrHnBAXYkMcqs1+vn7FHYd1Fze0VRTAFxOltD5gJqWBbQ15S7er4Rrw0gUU5zc73W6Vwhg+L0nDF7OgYzFWrq8s/uWBjCsf9j2Nss/YenLghZeNMK0ELupdr8uvTn9cUjuVuby6c2b1CZYWNwIAfiTlltlTWzsJHWIxFMw5orpm928JIcuKpao38xRuwyIRduH3Lk3eCmkyu0+R657kSOLF5Lt5meS/RMvXOFrc1ycV08sq6q+MxEh4HK+bC6FmfIbTeKoDg0P1UK8udhHngCGeXEVTV/cea0keUGO7keC0lKKPdF39w0D3GtktkgpfqM5vqqOps6/PGtsWODbLYn3siY8cqZshQGWK+s5W9CidueiCWDEnBXg5z353dbdovi8DJrreEaRtw5/I6FVgSI0vsOpQnhxZb9dj8NV9VYbQBdVwZ06mxNc+A8RSbX1aAE7IHOv6kDYbjisKTqITk8FIyrKhHlPyzdM4egq83tXhqLm+qhBFt/r2uql2y6bKblTvrZafNcTFgHk/BNstxhjS61at5jJModVuda/xD2jAzzMQ3Ic7Nj+XS70mVIa7cIjpPyHDIX8Trqw+Gqmh5JONKBDYQhmILL/UqFsHaPFqt5j5Eo9yUN2Tg7o7ehGO+dGtLlSS5X4jRWsrGhzgXtZ2YFSYGGH8KMIoCu03rUzuwhRGHRnVAb8o7Ee49G0FUVOwwiOiV1GHI0IJIblHXRO5Cki0YiF66qMZHvXtQcuPRcNqNd2sldTXXqjdeW7nxh852yEhQniDRd8lOqzzTISibEo9cd1Ie0RGWCNUctfj0n75mai3jM9sQmvJztoudgCpSECTMGtrEJKWdRf6vEns+lVpuvGLs96e2Gz+k2vrmUpryNKrMBrsP4d/Z8RVV+dasrbTIiLbnaynTSsxF5i9f0zqUMcrsWojyjujhFV9VYbQCJRhlJ2De/OGdMhrCgODpWHBb4x7HAOCz5QEEJR0GI/7AUS7qokpFAo11V8bzGu2H84KfQEybi5r4hrtV3LNXlOAygiJshgty04OuVCjtFgJ7x9/zcE0G1EcVeB3Rblk4lMO1gObTExhN3o+h1x4mTeVYJk+bKffqN+jIgFlbwoIon3sBX1+G6B97wRKJ1rlmWDXfdLy6h2NODzmSCmmtmBwNJD+GaVrQA1m/PRpqGHxkQAhsVfdRbubs47mDYkJA7TG2N3SEQcyqxtLpLkOoI2NHinIrdhRV4wRPBkBoLfwQ2dU3t3qlCHTR/Y+WO6Dc8rpAoLP5tARRfOQ6tKUfvjYcVfGfeplZXuS7d2upEVX3zv2TwJs85ecGoFY1E3IGkEcSygizU3ncflkUilWAm+K6TtQOfm+MCiELQKwJV59a4jpro1CNBUVWtuWlR7qdWUJXAoDgmTOmPSaz6jOpCb4AVJQip0y8P2ANl04U4ISw3vExwhKc5kqcfuTZh/HlyFvHaE4uIcibyFcvqg3oZwvyg+sElxuKWM3wGIsibISiOhVqn0BcpVrtn/PYExdIJLIMo5LzlwOfmGqPM7jp2BoYSNbBBE/9y/p/6O1qg35cu5cKLz1JGnFWunKa8xfJKItPv5kppJtEZsUZitshb0YjcfjdURwTFIaw4LCJ45x+iJObIUpjrOAqqYFnTQoDjzXBYMx971xmk9Q8HqlE8TnIimop1HL21sit6KmK5vapdyZAvqmg85LqIXiueb21G6zxvWgz41mc0rZPo+g0y7YOz8e9oSRDtXPe1aD3IFrh+43NQcsG7jmP0GpkWsdIXF++aa8LlTkU3DFw/DTGue+dfI9JZYy9s/UjtngLzucY1IbOACD0euc6UqlghTgfc3znxV8ZORU2I9Znay0Auwqu7iLivJc7rr8GGALDhcjdI4neoDo3gone9K4s46UsVec2cr+PoHXcJWCPQ587owbvmoo5//UV1TW2w3bRGY7z0ZQnsPOrre7nBjo8oQ+4y5iOwfGRG2Nqu8h1W+UlL7mDeyGdBy52QW6969+18C643hrU+UPltXPPN6pjZUKfS1Fl0PwvxLqt3xffuEqbnY3juwe+ues8DOoxx1pgj4tSP8dLvr3cc/HkWXZ/5r6fnqY0nzyi/9pXgbxdrLeJvEs/PWoNPXVPdy1nyw+22Z6XNdD97HpmO4RkY89VYzvy/M/iZh5ez6O8VccpZ2Dvhwfssjfd0IX+zsT3xvm9x89aE73ea3l03we+NP2/Nz8k6z6qn1WEb9X2svkYU/jS5sN4pXx2mE5TOzBHrMxa1w/4wC6JaW/6qR4/kKwUsHNNHCEdNSBpRoovWSnSLu3QIXlCfYZixgxAkJeGCkBlLKNFoGKSS4tS/TMpoJXZHN2vIDiWtVRinA0+BSMLEwfCnP3+JK8hHO+J3WuJbHcsP4pVZZqQxG6hGO4XnqsowDMMw+UBDmfB2GDz/376BAhmQiEmbPAyKw4wmwoPijCRcZkcHKQXFGUWwcGQYhmGYkcAKuDXzh+45jg274WFyMy7QJTmygohGGu1+JiNrjm3LGZMO+pqC+QWX2dGBCMjZfDgyKM5og4UjwzAMw4wIm+Ct+96FLgqWpa+PuWkBwEcv+aOrMgzDMMwIwnMcGYZhGIZhGIZhmFBYODIMwzBMAVA1dTL8+6P3qz2GYRiGSH5/DR7/j/fUHhMGC0eGYRiGYRiGYRgmFJ7jyDAMwzAMwzAMw4TCwpFhGIZhGIZhGIYJhYUjwzAMwzAMwzAMEwoLRyYlEmsOQd3GF+E6tT92WA/L35Oh8H/2pDqUBrXbtZD6GV4rLkvqV8D7v3gU3q5P4F4ZvIL/f/8XK2Cza2G4PGH2ovxNW7qI34R53liGOwnYvI7y/1F4Zbb8esRp2A0bRXlshVp1aMQZiTzLxT2fbJXv+nu73eswjiBx6oO1jXhs3SxYovYLiXi/XZUPUVbSQ9zHfg6FyZgsZ3nbhmVeZrOFVQeNzvJvtQ3qGVvtRtbK8WSY/3ATNN1fpfZHHywcmbwjm+K0dOtfstdhVh3wMDF4asM02HIfbtuOi4W9h58rcFmsV3wFvirUBeBKZ8HbWNGPjHBLwleX5eflb8QBJpKRyLNCeU6Z1weyE7gI1qp9M1Kg5n8nsQxmlwN0njgHR9QRI6VlcEciCSePdasDTH4w8uVsbRUKs4tnYGu+ta95VGaPtB2Eh179HTz0zhmA2jj1Rx7zzWUYok+sSEPrjLiU3Aa3jP8O2j+7oA6MPlg4MoxgBxz6sRR9b72pDo0SjvRfEZ99/aKHaMQa/XZvY8zyl1Msy42h06IalqEB+RzyjtY18DoNZtzXAKfUoREnpTxzrINBHUZf+TaNuufiOb3ZIAeK8mih/jj1QaGypL4GpkM3nD2rDgSwdmENjEt2wZEMHuquFuw4Y+f5p238HMYMpbNgKQ08XDCLM93SRluwwA1pTwg1+OlcK1p4hZdZ535R13N+g/kcb10bKuJ7z8FPUTwO4f1X5dgSGqsNEES1J9agYm4G36vmVsOEq1/BF/3qwCikgIVjFSxraoJlt6tdhhkTqEoveRk65QGH5Bl4jUYB1bbvYgLueiyi4mcEaxsXYYczHp0D1FEsYItvGgTlmezELAY4QZ0PM9RhWAVH7XJNo9xD5YsiXbYK4zmF1AcFRwKWVGJdd/Ei7FJHzEir5FBHd3YsDMyYYUl1BYwzDjxIYfZ0ZZerjQ0aNAhtT8g18rEagFPKavfqQTiZROEVKh6Dy6zlMQCtTroeevWo+R1AwbqhNqg/IAXXqvJu2Gddp7UbxtWuiBSPH17Ez/LynFkd47YBcdoTH71J6MOP7Aw4VsH0mwG++/sX8K06IiiZD6tHkR4pzHUc6SH9CFU/9MCx5sPgNhjXw5SNz0FFsdpFrn7yGzj3QZvak66U1dACJ9puhVlP3A3j1fG+g8uh6zO1c9OL+N1M6P/P1fB9PZ5v1RKDn8Lp138F19RuPNZBxQuNAHj9nhv2wpx7xqnjHdC+5SnsGljI88ZRer9phLoVleq4J22ESJ+Tdv+1JNc9oN9Pof0G+X1vcDq0fCO817Pz1pceDynl2zb42R9/AhVqz8+XcMC2vtDcxudhXpHYQZLw523/Coda1S5C8xYfdLLSR1eLwUpJbq2bFsCg6TtB9H2ziahYJ6Jw3Km7aFFDsALuSlBDQA2J2r+MFfCxBLyNjZf1pIawEfM2guKa2FhZmM4RI6fadSRJOPnOQeXqQw3uIpji+Vuq4J+uvaLSpUGNaoPWGFzEtLbI0V9verx0YsP5TISlwYj6DX2tR/G5+tOaTURZg3dhy54yUX6sashdxlTZ6fefN/jRS/D65h1yR5VBuyq7chx2hFjGyK17/b1OB8B1LUWcc7IGPeu6y7LMqmdAnak4eS/LglWucwDNbWycoXaQDnwWGzapHUI+oxnnX4KjNz4v6g+RV18/ov7O8757n5VNbuoFuz44ALBBez+dd0S+l8GDJTJvO8V7Gtxp1OsEcU/q3HnqFtN7GatuEah00qCYq24zIOqOIq3uMRNU98RNvzftofVOSH1mIdOj5bH3HLt+MqTDqvPFfQD2vXMZloq00/M7A7eI+h9PNtw3DJEmEkk7k0LQWOXE+5zsNASWM4ewZ+7LAw/e+0bmmSLsnn7MbRXhymt1LJDQ9kRrg13pDb43EVRmg8pGENbv2NdRAau81wt4fwLvrSHzWa+PU+trpIPvnhm0J9lict1qWDnzqkF3oKS8vwkWkqg8vx/2nnDJyryj8CyOty+DJhKNV9thv+HhJdb8HKBlOZzYoraDHTD+nudg1gP16gzFdBRmQhjK805/MgRTVuyFKTep7wXjoOIJJTLF9Vqgr/humLNmnfo+NaasOARzqs7DaXGt30DXYCVUG+YCUnrrVgCKOXPaSLzVoUgbQjFp/c72TrzWC+70k0CWolA/T32ZMiTI6XrYCVZ5RtuX0Cjv+fWv4Jx+DxKKal9sKYntTfCWcM2bBjs+okqBhKLcl5vusue4qG5p+VIdc+Odt0ideOda6bi2krBVHX91jR0fAczb9BdYjo378GG5ZHigkbrHKuDzd9yjis6cQWrEVEOpjfCJuQz6CB9V1KrRskcC8VrpQg0BdbKo02Ff70K5nS7LNUyMNuK+6zzc4jScfrCBexAbNex4pPf3aVD5E3hh053w5TarbCShotFQNjznUfktvvd5Zw6u7aI6DQ50qGNGZGCo9fcCihR1Ldz2wCOue5KoXX/vJeddwvcB8H4bt65XZ2SZs9ipiNMRGwksF9X7XoI/hw1Ez3wKFl16STzDYvz/xkbA/HsXurBczfiByjclGgGFpfuaVG/lbjAJEjXwtPaev3YqCdOxIyutAt3wjHpv6LgUivr7JDtj9lwm3Kdqmzp9zjkGi4unbpH39AfucVk1cPtw0mKzW/3scilaEhWwJMLtXsxNi3Q/jbBKxki/tx4KIqo+I2SnHLCz7pzz2kBNmvO3i2DpgxPhQ/GsymDpusVwR8dB+XzTsQZR+UExY1uyfO2EIrScEdHtSfxyRoLkUSVkrO/xb+i5eYKbpFTOCFHWkvB5u6dMowgR7qtR82YFEe2JmKeI1/K4wkoXa+xRVpYZArQEl1npvopCME7bhe31qvIknDxwzuidYH5/ylBgkkAvg9mBZVJaQ43vVGRfI4uMeHsyGW67dQLAPzp9uoO48Idm2H/+O5gwc2XeB84pKOFIar9pwVSh6Jv3fOw2FSuSu1dD39dqh/isBQUairGqeo9AG0IB5Jx77YPD0IdCsWS2R2B2omjcvVPt7IQeFHEwfQ6+6mngsrq1Qd8x7A0Wz4Ril1hFhOhyLIDXzp6Hq5i260WFuA6m3jNOWPp0C2RyN4paErr1StTe9CKUYU3Vd9BvhUyLuY1QUezOM+LaB0+587sAKN26HCqoU6hZKHo3v4GdxQTMe3ibOvI4vNzSAi1B2yuPq/MyIQG3TMQPnxsbNabaqOLZi+L7KSWy1FrzhPbplXDvOdguOiA1quHFBrIOG5psCS6rccZOiut62BjkUtAtqV8sLbIpjMZnjtvK1Lv5kFto2HiExZsn8TysEm5KUcg9+QjMK/Jbtno3Nzj7KG4WVdKgiTbogsJ0Dwmiex9RwacWwy+bDWXV2pp/iWcMB0HlevgpLroERy2LbFECBrX8K75RujGU/uBOKMZnaZ9Hg1kf0iDWDLjTGgRoetmcp2p7uUmdlxK65R875+1d2KqFdQCzgeeebWfwGSXgjmqrRVTPztPJ3NUSYCVUdVO0IJSd18yD4kSlPyYx67Ppk/C6nt9GIiq9Og+v1XHGztdxWFtstwVXEdwSIbxNuNJ/9gycxMtNJ4HhIrycxWtPYjK7Butrup9u/eqGZ2jAEgXsKrtsp1jOkMCgODdMxLxMwmWYFTkvMbI9sa6lBewigUvW3X2UH4mJcqBEJ7DMqt94GYU6DVJoafO7lqJ4byhDQf6ngN/vXMt+RmS1EwMHUsxb/QMLMTCi8kF4BBh/c1hfQw4C6Ol2baFRTvOnDbCJERTn2xN7ofl4D8DNC6Hp4fkoNfOTghGOZAZeOXMC9BxvTtEM3AbfD6j/6gyeh0GX4OmA70lglrh9GvvaLdEoufYNvSGlcL1X7MXg6oU2t9Wtd0AThBoDf3efp6x5QijOnQNT8GPoG7cLKYnaAXrDJt0qBPJ1s2fCePxNA7p7awYkqslXy5tnhch6qJ1JDfhJT6CSHdBLk6VLylRY/9/Cs42N0Bi0PfNbcVYmrG0kNyVscA54OlMGIUnWBzmqq0Y3DRWy7BAkYOINuBMwcpouwXNLcokcTR065XS2hoUrf4VTLitTB1C8E0to2Fy5BNjEaEhLe6quo7VzZhju6cYSN3/1WNd7v76E/94IpcIy+Sf4dZOhrFpb06/xjNwjO2dYx+XDHDXXe56E/i/UfzWm3kidJBPa+c3PmvNUbc82q/NSIVJs5QDfPWXU13GTLJ995QVBloiIOaoSZRmNsCRkLShOZPrjEbc+E/NwyWKXlaUAPNayjKNEetOvnt1EbCPkAUloOYvZnsREiDvTvGXP4Ked1rjlzBL6hvZsSQk9+wTcVQewXVkuzfMSU21PpCV26cBBUb69+WMRXGaL6FGI3zj7gpUu3JRVTxeP1vvxYUy3TbKEv/8YWa+DPXlE2bXiKgS9n6F9jSRs3aml27uFvPN51QYoYgfF+dthaP59O3w3vhpWNi2DfLQ9FoZwLJkPNTer/0dBc+1eOAR12mbPT8wRYvkJzz19rrFZZQi+D6rIiyflYI3Gerh+En54BW1BUgminSE3Q7XWo7WFzaPMCsK1yBmxk65BwSOsoYR0Orwjj9lAjrwP7+ihCGCADZ8zKj8WWQ+lJfjR3x0aFVSKmxnwoKfMuub55QH23KaLR/1uknnKqT3kAj8DFtkuv+th+dJoMT9WIVdP6T6JnXpVV/ktJKkgxUl0hz2mVTILxK3PhIumspbZdXcsQT3KyGZ7EpKvusBPpZwJoR/q8ukdgEXRc4BclR3LakrtyQ2WNS84wI4kRpn1ev2cPQr7LmpuryiKKSBOZ6tupQ3GsoC+ptzV8438bANkUJyeM2ZPx2CmQk1d/tkdC0M49n8Me5ul//DUBSELb1oBWsi9VJtfl/68vngkd2tz+dTmDSozbAwO5EDcKautsmYWNtJ6JIJpWHPF9M0OXpIDV1Vr9C/GiF0m5GIZADnybnDTyRXafI9cdyJHFq+l20zPJXqm3rnC1ma5uC4eWVdVfGaiw0DlfFhdizPkthtFUByanyoF+fMwDzyBjHLiqpq/OHPayHKDnVyPhSQllPuib26ah7hWyWyQUn1Gc7NUnU0d/vjW2LFBNtsTb2TMeOVMWQoDrFfW8jehxG1PxJJBCbirQc7787stu0VxeJm11nANI+4cfsdCKwJE6X2H0oTwYst+u5+Gq2qetgGT62pQAvZA59/UgTBccVhS9ZAcHgrGVZWI8h+W7plD0NXmdi+NxU31UIKtv9c11Us2XTbTcif97LR5Liasg0nYilnusEaXWjXvMRLlDqtzrX8Ie0aG+ZgG5LnZsXy6XekypLVbBMdJeQ6Zi3gd9eFwVU2PJBzpwAbCEEzB5X6lQli7R4vVvMdIlPuShmycndHbUIz3Tg3p8iSXK3EaKxk9kDoXtJ+ZFSQFGn4IM4oAuk7rUTuzhxCFRXdCbcg7Eu89GkFXVewwiOiU1GHI0YBIblDWRe9Aki4aiVy4qsZEvntRc+DSc9mMdmkndzXVqTdeW7rzhc13ykpQnCDSdMlPqT7TICuZEI9ed1Af0hKVCdYctfj1nLxnau6BMdsTm/BytouegylQEibMGNjGJqScRf2tEns+l1ptvmLs9qS3Gz6n2/jmUpryNqrMBrgO49/Z8xVV+dWtrrTJiLTkaivTSc9G5C1e0zuXMsjtWojyjOriFF1V87YNmAxhQXF0rDgs8I9jgXFY8oGCEo6CEP9hKZZ0USUjgUa7quJ5jXfD+MFPoSdMxM19Q1yr71iqy3EYQBE3QwS5acHXKxV2igA94+/5uSeCaiOKvQ7otiydSmDawXJoiY0n7kbR644TJ/OsEibNlfv0G/VlQCys4EEVT7yB1ZbDdQ+84YlE61yzLBvuul9cQrGnB53JBDXXzA4Gkh7CNa1oAazfno00DT8yIAQ2Kvqot3J3cdzBsCEhd5jaGrtDIOZUYml1lyDVEbCjxdEoowoRr2MFXvBEMKTGwh+BTV1Tu3eqUAfN31i5I/oNjxsMCot/WwDFV45Da8rRe+NhBd+Zt6nVVa5Lt7Y6UVXf/C8ZvMlzTl4wakUjEXcgaQSxrCALtffdh2WRSCWYibJ24HNzXABRCHpFoOrcGtdRE516JCiqqjU3Lcr91AqqEhgUx4Qp/TGJVZ9RXegNsKIEIXX65QF7oGy6ECcEiWkpStLHEZ7mSJ5+5NqE8efJWcRrTywiypnIVyyrD+plCPOD6geXGItbztRgpykojoVap9AXKVa7Z/z2BMXSCSyDKOS85cDn5hqjzO46dgaGEjWwQRP/cv6f+jtaoN+XLuXCi89SRpxVLqmmvMXySiLT7+ZKaSbR6SnfuSKf24Db74bqiKA4hBWHRQTv/EOUxBxZCnMdR0EVLGtaCHC8GQ5r5mPvOoO0/uFANYrHSU5EU7GOo7dWdkVPRSy3V7UrGfJFFY2HXBfRa8Xzrc1onedNiwHf+oymdRJdv0GmfXA2/h0tCaKd674WrQfZAtdvfA5KLnjXcYxeI9MiVvri4l1zTbjcqeiGgeunIcZ17/xrRDpr7IWtH6ndU2A+17gmZBYQoccj15miyp7EXZzK19858UUItK6n2iyxPlN7Gbwtwm/rcyvd1xLn9ddgQwDYcLkbJPE7VIdGcPFowPpjcdKXKvKaOV/H0TvuErBGoM+d0YN3zUUd//qL6praYLtpjcZ46csS2HnU1/dygx0fUYbcZcxHYPnIjLC1XeU7rPKTltzBvJHPgpY7Ibde9e7b+RZcbwxrfaDy27jmm9Uxs6FOpamz6H4W4l1W74rv3SVMz8fw3IPfXfWeB3QY46wxR8SpH+Ol31/vOPjzLLo+819Pz1MbT55Rfu0rwd8u1lrE3ySen7UGn7qmupez5Id7vruVNtP97HlkOoZnYMxXYznz/87gZx5ezqK/V8QpZ2HvhAfvszTe04X8zcb2xPu+xc1bE77faXp33QS/N/68NT8n6zyrnlaHbdT3sfoaUfjT5MJ6pwzP2yEonZkj1mcsaof9YRZEtbb8VY8eyVcKWDimjxCOmpA0okQXrZXoFnfpELygPsMwYwchSErCBSEzllCi0TBIJcWpf5mU0Ursjm7WkB1KWqswTgeeApGEiYPhT3/+EleQj3bE77TEtzqWH8Qrs8xIYzZQjXYKz1WVYRiGYfKBhjLh7TB4/r99AwUyIBGTNnkYFIcZTYQHxRlJuMyODlIKijOKYOHIMAzDMCOBFXBr5g/dcxwbdsPD5GZcoEtyZAURjTTa/UxG1hzbljMmHfQ1BfMLLrOjAxGQs/lwZFCc0QYLR4ZhGIYZETbBW/e9C10ULEtfH3PTAoCPXvJHV2UYhmGYEYTnODIMwzAMwzAMwzChsHBkGIZhmAKgaupk+PdH71d7DMMwDJH8/ho8/h/vqT0mDBaODMMwDMMwDMMwTChZE44MwzAMwzAMwzDM2ISD4zAMwzAMwzAMwzChsHBkGIZhGIZhGIZhQmHhyDAMwzAMwzAMw4SSN8Kx6v4maHp4PkxW+2bqYcrGQ1C3Zp3a15j7BtS9gN9tfBGuU4cYhmEYhmEYhmGYzMkT4VgF028G6DnzMXyrjjAMwzAMwzAMwzD5QV4Ix8l1NTAVeqDzb+pAOnz2FJzYshxOvP4ruKYOMQzDMAzDMAzDMJmTc+E4uW51hAvqZLjt1gkA/+iEC+rISBLPZZZhGIZhGIZhGKZwyOk6jiTCFt4M8N35/bD3RIAT6u3LoGnBeGj//V74uF8d00isOQTV09WORWcLnNi9U/6f5jauqJT/J/TvFPIaHdC+5SlIqmOSdVDxQiNM0f+mZD6s/lE1TIAeONZ8OC/ELMMwDMMwDMMwzEiSI4vjZJj/sBSNPcebg0UjUlU+FeDqV/CFTzTKQDjVkz6F0+SCKrbfQNeg+trCclE1fadItnfgv5Uwaa7ct5k7B6bAEHS1aUKz/2PY23wMZeNUWNi0GuaXqOMMwzAMwzAMwzAFSg6EYxUsa1oJ1ePJYtcMh0PnLYYExZnbCBXFKOpasjBn8bPT0IcfU6rd0VgT1ZUAg+dh8Gt1wOYCHG7eD+1XJ0D1j5pg2e3qMMMwDMMwDMMwTAGSXeFIbp5NC2Hq1XbYH8PNMywoTrCoS4ed0PPJEMD0OZBQR8hNddJ0gKsX2gKE6bfw8Z5mOPYPgKkLmmB1Hc96ZBiGYRiGYRimMMmqcKyaS3MD4yKD4nx3/tNhmUd47ex5uKq7qwo31Q7o/qBNHQhnwsy7oUr9n2EYhmEYhmEYppDIqnC88IdmaKb5geOrYWXU/MDb74bq8d/BVx3DtHLj123QP+i4qwqLZudpT7AcHfc8zWYOlMMwDMMwDMMwTIGSgzmO8eYHBgfFkVzrHwIongTXqX2BmPeo/p8ybdB3rEO5q0o31b52d/RVB2ue5nfQ/vuoeZoMwzAMwzAMwzBjmxwIRyJifmDJfKgJCoqjsFxLyx6olwduehFmrSiFqwGRU2MhguRUwqQ1c2DK4KfQ85k6rmPN0xTLcZiXCGEYhmEYhmEYhikkcrqOIzG5bjWsvPUr2L/HEYni2Myr0eskutZolOswAq3JCM66i8Z1HhV9B5dDl0ccWudf/eQ3cM4wv1GsPVnU7kovwzAMwzAMwzBMIZNz4eiH5g6uhFv+vj90fUeGYRiGYRiGYRgmP8iRq2oIwx0Uh2EYhmEYhmEYhsmIEbA4MgzDMAzDMAzDMKOJ4bc4MgzDMAzDMAzDMKMKFo4MwzAMwzAMwzBMKCwcGYZhGIZhGIZhmFBYODIMwzAMwzAMwzChsHBkGIZhGIZhGIZhQmHhyDAMwzAMwzAMw4TCwpFhGIZhGIZhGIYJhYUjwzAMwzAMwzAMEwLA/w/q/Dq0g7HGTQAAAABJRU5ErkJggg==;" vertex="1" parent="187">
                    <mxGeometry x="1370" y="76.9966666666669" width="910" height="174" as="geometry"/>
                </mxCell>
                <mxCell id="169" value="" style="shape=image;verticalLabelPosition=bottom;labelBackgroundColor=default;verticalAlign=top;aspect=fixed;imageAspect=0;image=data:image/png,iVBORw0KGgoAAAANSUhEUgAAA2UAAAGGCAYAAAD7OSlWAAAAAXNSR0IArs4c6QAAAARnQU1BAACxjwv8YQUAAAAJcEhZcwAADsMAAA7DAcdvqGQAAABhaVRYdFNuaXBNZXRhZGF0YQAAAAAAeyJjbGlwUG9pbnRzIjpbeyJ4IjowLCJ5IjowfSx7IngiOjg2OSwieSI6MH0seyJ4Ijo4NjksInkiOjM5MH0seyJ4IjowLCJ5IjozOTB9XX3JIpUZAAB3bUlEQVR4Xu39C5QU5b3v/3/2Lzk7bibODAZwYuDMcNEdFNARtwa5xY1zjiw8cekcQ4R4W0cwEt1nq4mbhZDliuifJF7y2yYkAr/lJYFE2YOLHFjk/Ee2EblEI0EB0SiXmQ3RcSAwM2Y4Zv+StX/PU/VUd1X1Zbpnuqfn8n6t1UxXdXVVdXX3UJ95nudbf1VdXf0fAgAAAACUxP/lfgIAAAAASoBQBgAAAAAlRCgDAAAAgBIilAEAAABACRHKAAAAAKCECGUAAAAAUEKEMgAAAAAoIUIZAAAAAJQQoQwAAAAASohQBgAAAAAlRCgDAAAAgBIilAEAAABACRHKAAAAAKCECGUAAAAAUEKEMgAAAAAoob+qrq7+D3e/eIbfozXXXaghatbmJ7+ltW72YLbggeO6/wunzb0h2vm94Zq31Z+PfmJWp/Z+84TKzd2OX4/UpAc+4c/vqcR3JXBab2y4Q9897ib7uFvqb9A11dLhxp/p3n1uZtzEaXqhbpSb6GLZvqTqAv103iSVuUl17NXja97SNjfZa7zjV6Hd6zZreYub1+eN0qP3TNMYHdXGx7braTcXAAD4aCnr0lf08O3PaM3UKW66AG5vN4FMJoxVq+YqAllvqlr+ppZtbVStm+62rWWadJV5/743TPrCMe194C/ugR4IAtmxLZr35M3u1n8CWS5mXDHHBAqZE/Of6Vrvtl2qu0GPTnQL9GUtb+mrbr83Nrt5JXDLeSbQNu/tR4EMAAB0pXdC2fHHdJt3gkkrmfWdC9ukw+UFCGMrdOPWIyZkJG93LV/gHkOvMOFsy2GpfMSf3Yzum3reuRpiW8Ze+7mb0/8cPtlh/u3QqXRBcuI03V3bHmspOap7G49qTN003eLmIIuqC3SlbYl896ib0V+065T30Tgl83UBAAAxtJT1ur9o1Gfc3Z5Y1GhC2FzVHHpOD84anbit15c1u84tg97zmT+rMHH4uH4/gFrGksq19LJR6tyzN7Xr2r5mc6JeoZFVbhoZzRhfozITZPf1h+6eAAAgZ8UdUxYfH/PRm/rhuse0w01a8+c8oznaoh+2zdTXJ5glbdet185JPK9p281a8ra5463rXL274Q79/lLznJHe09OuM3VcTnws2xTdN+9ruqg9ui3r9P4f67YduzR16o/8/ckgWC5/f9G6547p8j9UqWbRp9y8fNkWMhfIFi528zKrXXVEV491E0bbrof1xNLV/oQNd/XSphWtmrb4clXqoDbNel5VG5bokgrzeGIb/jbVMFqN57ypBVPsaCrLLl+nPW7K5/bPTdmWk9dXXKgtjW7S8PZJZt3rR+kub7u+JrP+n6x0E47tcpjcXmz/De/x8/dr9XVHVRfabnK5+P7EpXsNufvOymbN/cwwPTS3TMm9yp//mTuecdxl8vEt+pz9/J7pHsj0vQq+I0bk85r4Lr2syutmm+Pij1tLfK/Sfad6yhuPNVQvph1PZALbbXP0+UOb9dWXbHNKcmxaQvN2XduQbB2y3SDvHtukx9d06BpvrJKvc09yHQmxMWxJbnyTGyv2YWxsm7cPQ9OPG8v2mNXV/gdjrM62+3tiUo5j7ELPib9Gj38cJye+Kh1pxp0FY7sCqct4x9Zr0dyrkeH1pRlD5y+b/G6mPf55uPnRBn2pplO//eeb9NDLbiYAAINAcVvKEt0Wb9bmY25eOhUzdWvly5q3rVkaOVNr6uwJ44/1xkdSzZivuIWsIbroOj/E+eNttqjpzAv19TnJZeyJ6zoTslpNmAvG5Ww+Vq05t/9I9w13CwVGzjbL2m25Zc32h0z4mh4eL+3YcUdyG2ZRe1IbrM/euhfICmTRZC9gNL3RVSDzuzdePWynVgetaSt2mky6RMtWrXDLWCM07Y4R2j7rOfNax2nahjs17sDDWr3LnFyNnRwZf1VTf8QPQN76Htbr7eN09Ya1SjRyuBa8ShOIgta71eZQXbL4iG5c5JYJjJ2rZYvtdoPlOsz634y09NnwtmBKqwlN0f1P6aZZcbkWbJ2tEyvccg0HVWmW87e5WD8JbcMPYW4579b9QNZj47+tdbc/4938PwLYz6o/7d1Cn22fffxrOq85+DzGvwP+GMg5FSZYBZ/XDW9K5nMdX9d5dTPV5n3Phpj7P/K/V/Y7eOa5mhr/rvSQ18LT3OwHMhuC7rlBL7jboxM7dOyUt5jHnuhPfDcYc2Zu6/aqs9oEq/pYsCqfpLvvmaRT69xyjUdVVjsnOj7NBTIbdIIxbF73ORsw0gbEnst5/w27v+Exdo/v6dCYujlamq7VcGK1CVMdeuftNKHHO6YmQMm+rmDbr5hfiBdohlvEOxYu1AX79rj54E+el25M3ygTdv2g7C9rjps93qHXYIOnH97c9szrlHk9P70iGdLyc7Mmen85KdPfTpnuzQEAYLDoG90Xz5TeTYyjMSemzc8mixtUnKOp7q7HtqRtDpb9uTbvP23C1fma701/RXPMia0NUF7rmrN2sw1WJtBdGj/BtS1ooUIKbx/wAtiIswpY1KMIai8aZ/49qP2xFqW4quW2FcQEkOvmK/GH8Mb5Wu+Frdmh8GNOog48nwgmldqv9YmWqBGqCneHbDcBL7G+1dry4kHzHk1QrbfMAs2+0uzboeciLVktS39gwpsJdFeGwpvHtqAlA1HLy/vVZvZl2LluRt1aTRtrW89Cocntf+WUL6cU62hqCLXGrdztvZeV5xR/jN3B1swtql16+1uJoP9D+1n2PpMuTNlb4rOeZFuPk38U+Lnesn/wcN+TqVNnmvfcrCPc0nX8MT3lfU9mhv4wMURD2l9OfPaHnHlcmxPbGqLKYe5ugYw5q1ydJ82HwLbUuFYpL6yYz0B8/Nm2lzZHW4pa3tKLtrBGdXXKuLPDjaFWHq8bpHT2sGQo8IpimAC2MbG+o9pogo/KazSjSN0l89n/eDjc9naTOSblGpomFGcr8HHL1EkqS2nJ6tDyhmDa7z5qW+zCLVnbXnpFu83kmMtC4c2xQTa57FF7eKWh5f5ywdi2xlCwNa9zlTm2ZbWTujk+8Bnts19acwR+t8sESgAABpG+Eco+ek87QidmrSczt0I1HY6epO44aZ84XJ+zJzHjz/dakFKfHz1xTfiozTtxT/q5lpgT4aK2gs36WBMqzIn8m93tupirBao935yctrfqAzcnkBJ+zMnbwZdDHe9OHE2GuJi2A7+KPvZea3JddV/UOPPa2loP+Y8lrNaeA+bkrmKEPuvmeNr3a0+oS2Nc1cwJXnfKePhseb/V/BsLizmE1GJZ/cFfm9d2QnNvdzOK6rTaTri7ztrNJrx5IWyKplabgJjyuTbfk3ffM8+Mhq3IdynNcwqnXCOHSh+eMJ8Br7XHjYkaPlRlatexTB+2EL+ASFxXY6v87aaX23YLJf3+G6c6ot0fXYXHlO6LQQhKW+BjlD2s6jx0NG1XSk/VKH3e/Drwg3GY2f4hs2/lQ0NdGq3UsPx0gwnSLvRlGtu27YRdf/fHBz5zb73q6+m6CAAYfAZgoY/Uk9aEMyu90FYS9rpWv2xW00LpiauqdeWTbn6xZQlYxWpFans/08iqeJDK7rMjbIvHOF0dqzC5rN62FPYhT1ao5qqRav178/6a9/jFXglnWbS/n3E8WGlagSs0tNw/yfdbrvwKfDOGmQSfthqfHfeU7N5ob+FxS7nr0PJXTYgpn6RrEt3zRukau66gK2VRFGr/k7wQFGnxC6kq19nmhxd6u5B5mfyClG359I5l7HWmH7sHAAC6MriqLxa1NaALwXWtVkl39fDE/YNWe2I1ThPiY7TylDk8FUurWrK0jMX5rzM+/iu4RQuHlNTt7SaMnZRW2evO9WLg7oZsrdC9xrUO+Sf2SX5gcIUovG59bqySudmxVt3hBT9jTF0QHMy6U4puFFJh99/nB8mMLWEtHfrQ/Ah328xffi2HfsufLZSSfI3JW3+6qDUAAH1Dvw9l88dUJ7s/emPChui88+KtAV/RBSOl0827ulFRrlltH0lDKsOl1Hpg6xna324i1YV/cjPy53c/lGouChfriHNdBmOFOqxM3QK7I7Kuxl/poB07lrJfrivlod15FdRI302xZ4qxTu+6c+1D9FLJLwJuPt/N4TGWSf410Jr1VmisZZ/gBTTbzdB1l/O6N5qT/lfTVzXMjwszocIW3i2nQOZ3CcxbQfff8daZocCHx78GWNnYUSnjwhJajuods8wY21IZUa4ZY813M8+Ww552U8xk+uJn1dDQoGcXU+gDADC49O9QNv7bXgnvpj1BUQO/8MeQCTdFKi3On2MLXjTrpW6NFdul39vzj0iRhBJLFOuYG6uiaELS8sZEAY+WpbbAyThdHV6mbq2un1Kutl3Jwh7dlrIuV/jD7Fe40mLV8jt1SUWHXl/fdfn+iJXP6/X2cl2yuDElWHabGwN3yfXZAm3/tWPHy+Y9r9accKXF4ffoVq8Azpa+cfF2WyzCjZHy2PFOZq+32daV46fUaX6Ew4Nf5a87rUAurJzlt5Zl5Fqaktt0rV1uKi8F3X8rKNCRvsCHL9lNM1wd0XtufVDAwy1TPS1SaXHGFdM1ubxDu3fk2XK4b692d5Rr8rxCXvR7umb8bZl3r+zvrtHN3j0AAAaHooYyrzy9K+3tXf/Ilu5202umdm9sS82MULnwGcP1xgZ3HTPHlrL/4X55pfMT2/bKg6e/9lMu1m72y4aH19nd/S+UlqUXeuXh22wwC423ul7Ph7r12VLwz6kpvMziy9XWMDpSHTEftsx81nWtrPPK0dvS+cFyfkn77nQ3NCHvutHadCjNuLJYGM2ZCbRPmP3zAm1ifQUMfSVni9WYMG4v9+A+q8ElIkp3GQcbjvyKgk/v2KtOGx7sNcuCUvHzavTOJteyZAtdNPrhIRindOXJzd3s/meCyCa3jWDMU+IWLjt/VPcG++I9Ns18TlK7HNpS98HzvWuQeSX5/emfBmXgC7r/hivQkb7AR8i+7cnS+267L9wz3fxCDLXY2WXMviW7cgYl7bvT3dAc2zU/08bmNOPK0pT+z80remjbEXd/hP07GAAAg0ZxLx5dSMP9C0Lbk8twCOt/CnHx6FLwL8Bsrz/W3UA3UBXq4tEDmW0tsuGkJxcWzpu9dte8SSpLGUMWXGTZXTzaze2LvIszexfJLmB3yD7tZj3S8CWN7vitvn/rQyamAQAwOAyuQh99wid09A/uLjBIPP2uvbBzd69f1U1eyf10rUzRi1X3XV0U+BiApi+epdHm55FtBDIAwOBCKCsB72LDYzq0bpabgf5rVqdmjzGn+W+fQStZNt4YJBMybotepPiW+nA3wgJLM77LM3Ga3/2wqGXxC+Go7n0sfAHnAezWR7wCH//4d636RX29vvGUmw8AwCBB98USWfDAcd3/hdPm3hDt/N5wzSt55b6u0H0xwl537psn5I0kOtzfuqKWStBt0E1aRS1PbwRdGN1k4HBjmgs0AwAAlEj/CWUAAAAAMADRfREAAAAASohQBgAAAAAlRCgDAAAAgBIilAEAAABACRHKAAAAAKCECGUAAAAAUEK9UxLfXWNsiJq1+clvaa2bPZj1v+uUDUy1q47o6mE7tfq6+Wpx83KyqFHL6se5CePQc3pw4WI3USSha6N1/HqkJj3wCX9+TyW+n4HTemPDHfrucTfZp43So/dM0xgd1cbHtme+GPTEaXqhLnkR6X5znbLYfhf9um6ZePtRod3rNmt5Xl+UgSLHzxkAAN1ES1mXvqKHb39Ga6ZOcdMFcHu7CWQyYaxaNVcRyPqllXV6cNZoc3tYr7e7ecW2tUyTrjKfme8Nk75wTHsf+It7oAeCQHZsi+Y9ebO79ZdAlpsZV8wxgULmZPpnuta7bZfqbtCjE90Cfdk+E8K8fd6s3R1uXgnccp4Jhs17B2kgAwCg+HonlB1/TLd5J3u0klnfubBNOlxegDC2QjduPaJlodtdyxe4x/o/24plX9ONi9wMzwLN3pBu/iBiwtmWw1L5iD+7Gd039bxzNcS2jL32czenv2nXKRtWOk7JHJJUE6fp7tr2WOvGUd3beFRj6qbpFjcHWVRdoCurza+sd0vQQtdndPE5AwCgh2gp63V/0ajPuLs9YbvPbZ2rGtttzmux8W/r9WXNrnPLDBA1F61w94y6L2pchbs/2H3mzyaiFsJx/X4AtYwllWvpZaPUuWdvanezfc3m5LpCI6vcNDKaMb5GZSbI7usP3T0BAOinijumLD5W5aM39cN1j2mHm7Tmz3lGc7RFP2ybqa9PMEvablSvnZN4XtO2m7XkbXPHW9e5enfDHfr9peY5I72np11n6hiZ+Fi2Kbpv3td0UXt0W9bp/T/WbTt2aerUH/n7k0GwXP7+onXPHdPlf6hSzaJPuXn5si1kLpDlMI7JGzc11k0Ybbse1hNLV/sT3tgoadOKVk1bfLkqdVCbZj2vqg1LdIkNP24b3jr0nFa3ztaCKeX+/PWjdJf3HPM+NYzWT1Z6azTc/rkpqUOvr7hQWxrdpBGsL7wOK7ke2yK2ROMO7FTblBHaP6tOe8zcquVv6nrtN/Mul/LcpmWf7+1/WHtoTFndWm9/2iLrzjb2zN/PS05keS+KMP7sOyubNfczw/TQ3DK5d7Jb/M/58QxjPbv+noR53+Xge2lElhn/ba2bIW3e0KYrvPXY7+QWfc6u/0zzuP3eby5wa13VBfrpvKF6Me0YIBPYbpujzx/arK++ZJtA/OnJoY9G557gMZ/tBnn32CY9vqZD13jji3zx5axb6m/QNdVuIiwYE+bt2yR9GBvb5j1v6F6zjbe0zc3zuf07lXlMWco24+PPQuPCjk0NL5ttnJQ/lursNK/RF4y1CqRbV3yZjsjYNG+/tV2Pn5yku2vNG2D3e0e5d3zKzOP++L/k+/XiWXO8ffeO+4lJbsxddJ3B8bXP98X3y98nmXVvHGbeV7tdTw/HjN36iBquHq3O33xfN614xc0EAKBrxW0pS3RbvFmbj7l56VTM1K2VL2vetmZp5EytqbPh68d64yOpZsxX3ELWEF10nR/i/LEvW9R05oX6+pzkMvYkc5056Ws1YS4YI7P5WLXm3P4j3TfcLRQYOdssa7flljXbHzLha3p4vLRjxx3JbZhF7QlmsD57614gK5BFk73w0fRGVyf2fvdGL0wErWkrdppz7SVatirU+qQRmnbHCG2f9Zx5reM0bcOdJgw9rNW7zEnY2MmqdUtp2GxdP2KLHmw4aObP1l13TNDBFf6YqkRrlmvBqzTBL2i9W20O1SWL03Q3HDtXyxbb7QbLdaim/s1YS9+vtP+Q2SevW+YK1U1p1falv9IJs83Kc1w7UY7btMFqgXn+JreMvW065B4sEhsCl9WPMAEx2KY5xvZ1R45/L7MB6fZnvJv/hwf7/fCnvVvo++TJ8j3x+eMu51S8qR8G35ENb0pmmei6huuKukq95H2nqnXFvJt0XvOP9cP9p802ztd8t1SheC08zc3+CbY9Sb/nBr3gbo9O7NCxU95inlvqp0ubgjFn5tZ4VGW1c/TTK2IBvtwEh3sm6dS66HLh8Wl+OLIn98llLBsiilWkwwbGie+67dnbur3qrDYhrD5UJMRTrsnz/BDkL2vHqo3SNbddIJOZU02sNmGqQ++8nSaQ2ZBnw5YNUcF2H2vWxPA23TI21AXLPL5H3j5ExvQNnaSFZ+31j1X1JP306hq9Y0KWHUc3xo5nC4ydritPbjbr6FCZuf9Tb6zgdh02r+vz4/33yhtD6AJvsM2NzeY13jNHS2Mto2PqbtDddrvecl0cixzcPGG097Psb2fIfKIAAMhZ3+i+eKb0bmJMizlJbH42WWig4hxNdXc9kb+o/1ybIyd0X9Ecc5JpA5TXuuas3WxPAk2guzR2sun9tT5U1ODtA14AG3FWAYt6FEHtRbbV5aD2h1py0qlaPtuEt4PaFG7daZyv9V7Ymh0KP+Zk5sDzXkuUVan9Wh+0pJnAVhUsV2G2uj4IgvY5P0i2RA0bpSrbanSl2bdDzyVb4oyWpT/wg9uVa80yYbY1y28Bs1pe3q82s95h57oZzp43Dqry/C+qyobRQ7sTy/ty3GbdWk0ba1viktsrPhsiy9W2K3SctFg/caG2J91MD7ZmbsXt0tvfSvxxwQtE3vfAhSl7S2mxyv49mTp1pvmcmWXCLdbHH9NT3ndzZuiPIfa7vSXRIjdE7+mpxB83hutz8T+a9NCYs8rVedJWYRmlR4OTdBtWzOfuVKy75tMNsaqC+/Z6gaBs7KiUE/TDjaFlvW6Q0tnDgvA2yuaYaJfJLOsqlG0vbY5Wk2x5Sy82m5/V1Snj5qLhsEPbDpmdKx8aaslKylzgw+8amloN8qjuTUwnlwm3sm176RU/bF0WCj/m8L2zI/k8HXoluc2h5Ynlysrb9WKwrvJy854mW7XKzrJN+yZU1Zr33bzG8PF4usEPbpOnhgKe1bFXj+d4LHLxzP4j3s/O320T7WQAgHz0jVD20XvaETpJaj2ZuRWq6XD0hHHHSftEd0I3/nyvBSn1+T/XW7alLh7wPmrzTi6Tfq4l5qS0qK1gsz7WBBtu3uxu18VcLVDt+ebkpr1VH7g5gdTw06GDL4c6wZ04mr48fPt+7Ql1B2x7P9Zxzo33amuNNz+t1p4D5mSnYoQ+6+Z4YuuLGqthdl12Gyuf1+uaoOtN+EppHcxxm1UzJ3hdM7sKsgXltWjGjq31Xmva8JmP1R/8tXltJzT3djejmLJ+T6ZoarUJWynLmO/mu+/ptIlelcPcDDP17ruh71b7+9FuxwVVrpFDpQ9PmM+A19rjxkQNH6oytetY2g94WLQlLamLsVVV5Trb3U1xypz0u7u94fBJF15ivGMSYgOdrUiZ0mUvW4GPqlH6vPn1krX4h1vGD8ZhacJPR5O2hd6T+D4mBC2fntRw7b/X6Z5v3jcbUkMBz+o8dLSw78lT31B9fT1dFwEAeRuAhT5Oq+2Euxt3ZqUX2krCXmPql81qWig9cVW1rnzSzS+2TAHLSHT/K7CUsJYQanXLiw1YtgVvpxpDoapyRHKgXOG32XNV54ww/5Z73SjDFTKXhcbQdduTFaq5aqRa/958pszn6sXeCGfZZAlYpWl5rjDn3/5Ju9fa46rmzbBJP10FvVj3RntLOyasK66Fqqx2UrKFauIkb6xacasX2jFS0f1PjpPqHq/7Z8debUwXQr1wmyYUpZExYBWt0EqW/epBKxgAAMU0uKovpvlrfq8JrjG1SrqrhyfRH7Tak5xxmtDDkvCZg0yxtKolY8tYdi1LL9SD+V7g2dP9bfZUy/ut5l/bRTM5hi18CxcSydvt7SaMnZRW2Wvd9WLI74ZsLd+9xrVS2S6NYV5gCIpCRMZG2XFIbqG8+C10Xje6ICDVjSryxapdIQ3bFS+0/3bcVfe5boCZWpKOn1Knea1De9TlNJcWywKjpD0AoI/q96Fs/pjqZPdHb6zLEJ13Xvwv81/RBSOl0827utFdqlltH0lDKrvzZ/M0tp6h/e0mUl34Jzcjf373w1ip+BSu+164UIdTtK58jb/SQTuOK2W/XFfKlPFgWZgT2Zxak3Lcph+QYq1mbpxZ11ZoQk7LxRSgm2Im3rXu2ofopZJfeNx8p5rTF+rwr4HWrLdC4zv7BC+g2fDkt6j4Jd87tDsxpqkHvFYxWwkwGY7sLbdA5o9Hy5vrsnf41XjFxh7w1pmhwIfV0qEPzY9IEY64lqN6xzw9dZlyzRhrvpuRrogF4o3xSxb9SHJj/QrdXTFu5v16tqFBDU/dT6EPAEBe+ncoG/9trwR3056gwIBf+GPIhJsilRbnz7EFL5r1UrfGiu3S7+2QiEjBghJLFOtIreJXtbwxUUCiZaktcDJOV4eXMUHkeq/4RLKwR+Gs1pYXbRGLuZGqh1XL79QlFR16PVEkpKdWq8V2UfWKi+S4zZW7zbEo1yXXB8dihW5cfLkJNrGTzsajscAbL7WfB/M+bT9k1pVSUXJg2bHjZXNsqzUnXGlx+D261Su6kyzsUVJ2LJEbI+Wx453MXttxTNtsKc/Iibwtv97N7ou5tiClhJp42fg8eNuMhh9bAbL73ReDAh3pCnwEjmqjbYmrnharUGleR6L6YoeWv2qCrlkmXGlxxhXT/eBaiBCcwt+vstrpkUqLt9TbY3s0WSSkSKZP+Vu/DH/5xbrmVm8WAAA5KWoo88rTuzLb3vWLbPl6N71mavfGmdTMCJXunjFcb2xw1zFzbCn7H+6XVzo/sW2vVHe66zDlZu1mW57fL8cfrLO7+18oXne+FTvVZoNZaLzS9Xo+WukvKMEeGs9kr8EVrlRYUCvrvJL5NfXJffLL0KdeM6xgctqmORaR4zVbJ1aM1voD7uGE+HJzveuheZcHCLHl9f3H3fXcQsc4HA73LEyW5w8e924b4pUo+zNb+GOLmmzpfPf9CC5LUbpLR7TrVIcfjp7esVedtpS9vWZZUCp+Xo3e2eRalvZt90us185x47HmaOir3ey+2PKWVpl12VLr4fFd3i1Sav2o7g32xXvcv2ZWvMuhDVf+4+4aaonlQyXlzTa/6pWSTz4WlI3vllyKeBhegRB3SYBguy/cU6194WqM5tjaZcLH4+7adm18LFbtsoDsfgVl94Ntetd+68n1x3L0yoqt8usvSiPOpq0MAJC74l48upCG+xeEtid64RDW/xTi4tEY7Ap18eiBzAYaG07SX/S4OLwLTNeWp44hC49bi5SQ73uSF8kuYHfIQeTmRxv0pZpO/fafb9JDL7uZAAB0YXAV+ugTPqGjf3B3ARTN0+/aVpxQFcRe4BcSSVM233VX7Pu6KPCB7Gber1nelf23EsgAAHkhlJWAd+HfMR1aN8vNAPIxq1Ozx0gdb59BK1k23kWbTciIdBu0LWhzIuONCsm/NtgoTQyNobL8MU3FLotfCEd172M/69XWxYHhZj1iC3z8w8Vq3VSv+nufcfMBAMgN3RdLZMEDx3X/F06be0O083vDNa/kVfTQ59lr3X3zhLyyCofp/pobW7TDjccKFLkLYdCFMeqoNvbCmCYAANA/9Z9QBgAAAAADEN0XAQAAAKCECGUAAAAAUEKEMgAAAAAoIUIZAAAAAJQQoQwAAAAASohQBgAAAAAlRCgDAAAAgBIilAEAAABACRHKAAAAAKCECGUAAAAAUEKEMgAAAAAoIUIZAAAAAJQQoQwAAAAASohQBgAAAAAlRCgDAAAAgBIilAEAAABACRHKAAAAAKCECGUAAAAAUEKEMgAAAAAoIUIZAAAAAJQQoQwAAAAASohQBgAAAAAlRCgDAAAAgBIilAEAAABACRHKAAAAAKCECGUAAAAAUEKEMgAAAAAoIUIZAAAAAJQQoQwAAAAASqh3Qtnwe7Tm9me07vZva76bNdgteOC4mn7ZbG7HtW6Wm9kP1a46omUb1qrKTWNw+s5K+1m2t3Z9x80rhPlz7O+N0G3OV9wjfd+MK+bohXtu0E+vKHdzCmTiNLPeOVram1+6Emzzlvob9MJtF2iGm0ZfVK6lt5n3qX6Um+5DSvE9yQnHDP1D0f4PQ0a0lHXpK3rYnAyumTrFTRfA7e26/wvSzu9Vq+aq4Zq31c1HWgS/YlmhG7ce0V3LF7jp7vunRfazXK3nDrdpboGCmQ1kc0ae1hsbbta8J91t88/do4PXLeeZk7nmvVre4mb0gt7f5ihNrJYOv/qWtrk56L6iBdyqUfp8eYd27zjqZgwyVRfop+ak9dGJbjoXHLP8jxkKaJQeJWj1Wb0Tyo4/ptu8k6pvaa2bNZh958I2c7ZR3v0wVrdWd5mT6WXx26oVboHBqWr5m7Fj0qha9xh6xz81DFOH/l2jetz6+xVdMNL8OPayvnvcn9PfbDvR7v388ESH97MgzAnNlTasvNuLJ3Ql2OaMKyZpjI5q3z43A33SLVMnqayjSdt68Q8E/R3HDP1FUf4PQ1a0lPW6v2jUZ9zdHmpqGK0HZ7nbip1qGzt3kAaRBZq94YgWTJFeXxE6JrN2a8IgD6qlcVojxrm7PXS6rdndgzVjfI3Kejms9P42yzVjbLnU3Kyn3Rz0RX5rZueho7Rm5oxjBiCzv6qurv4Pd7/w7Fiy6y7UEDepj97UD9c9ph1u0vK6KGmLftg2U1+fYJY8tkXzXjsn8bymbTdrydvmjreuc/Xuhjv0+0tttybv6WnXmbJdNWtzpJVuiu6b9zVd1B7dlnV6/491245dmjr1R/7+ZBAsl7+/aN1zx3T5H6pUs+hTbl6ebEvZ4svVZkLZT1a6edaiRi2rH6e2XQ/riaWrzQzbPW2uKu30+1/2HgvYQBd5rltnpZuUDmrTrDrtcVMB2xq1YEqs2bt9p1ZfN1/2D3/+462x54b2w9uvpPj6Evuesj8xKdu0gexCbWn0H84kZf8PPacHFy52EzbcLdG4Aw9r+4glunqs25/EsetIbMN2qbxa5rnrR0X2M+W4Gtm36R4/f795PUdVZ45TjZuffB/D/GMZLJPyPnnHbYIOmv1sud7so3kNnpTjFXsPQ9JvN0ezOrX3myfU+kK1rnzSzesW2214tkZk+p6N/7bWzRiuN+K/D1K+60bW3wf+74Lzmn+slyq/5q3H+26fnG3Wb86eTMC02+gbrXW228k0nb1ns776Um/95bIE27TjWuoqtHvd5gzdJf19GuOmZALjxse2RwOc7SI1b5IJk4HoMrY73zXarsdPTtLdtea70Lxd1+4oTzzncOPPdK8JoXZMxd1jm/T4mg5dE9pmZ7rj0cU2/cdr9I55Xcemmu3bj5fVsdesP95N0447mqPJia9pR+x4+MdAZj83DjP7aF+DJ7TNlP2JiW+3q/2P8Y5NbXvKMrkdM/f6TkWPu5Xu2HrvV3C8jNyOvxU+buk/y5leh/85DI37sp+RBr+1OL4/ccHnJ45j5t1NK9Mx61KWbQb8/Q39nxdZxj+unz+0WS+eNcfbR+9YnZjk1ps8HsHvjfjxT7fv2beZ63se6OJ3Xg6/W1L2Jyb9dnMxXfc/9Y+6uPyIflH/DT3j5qJ7ihvKQrzwVZEhlFWc1un2l3Xb4fO9E63TH0nvNj5rTjBdcLLjSMInVja4eWNL/BO3msS0EmEqEeaM5NiU4OTKhbIz7f3QfO9Erzry3C5PDvNWxFDm5itxUh0+gU+evMdDTHCSHg4UXugYmwwhyXnREODNG9adUOYHoEsqotuoWt6o2pfrIuEqvo0otx5lejwQbC+8/+74JAKLC2Xml7AO/EDrdacJSyakVLRqu211C70G/1jYdST3P35cc9tm8viH1xUE7EjIS3l/07wnoTAbD+c1sTCY/n3poR6FsvD3Mp3U76on8f13z1fy90zXvw9cKDPrVvOzeko36etmtafPPK6XnjygCwr63e+hLsNKEZRgm96Jz9B0QcUITsAiJzjmhKVeutdNBycf4RMl/4QwdnI1tEOdp/bqq+9We6+x03zt39n0inS1O/E16wufyCTW5/YhvP5cthk+AU6eALmTrfjric3z16/Q+xA6SUss507alXrssh5Ty+2bwidmdt7UDn01sV9hoYAQezy3Y+ae7y0WOkYpy7nXGQ6QwXEMH7M074k/L/zZ9deVS8Dw37vYybZZ36PmhDwxbbl9+TC8XEYcM09exyy7rrcZHLNwiIkfH3+Zz9v/9w+9olUmZNxt/m/vLG/Xi481a2Lo9QfbCx//1O9mLtsMv+fZ3kvDHa/wd9Pfj/R/gMn+u8VK/55228z79ew/XOxt+8imen3jKX82uqdvdF80J2HvvhYM4Dexy5wcJf4yXXGOprq7nlAAk36uzfvNydTI811Vx69ojjkBs3/pToYqae3mLWoy673o0njlNvsX89Bfwd8+YJaTRpxVwKIevencEf7J+PuxE2wbAEIhqeXl/WozvziGnWunVqjOBAJ7Ah8OeHsWPmeORbkuud51/zMn+9PML6qmhnDY6oFFX04JZFbL0mgg61LdFzWuwrzmA7/KEsiMxPbC+79YP2k4aD5jl6tukZtlVNoQFoSUCnNsQq+5ckTQ9GRF979lqf2clWvcTFc4I49tWk0NoWOxcrf3Waw8J1mEo/Z6E7bMe7k+FKD892mcpsWLdZgAlgxai7X/kPkxbFTxi6Vs/aRa3d387dJ31wVFPeyx9FutEkU+wt9Vx3s88ftgl3Y0m98HZ1a6P0Tk/vtgiA1hQfA6c4hatyVb24ZUev8LlxwFPszJzmXxQGYdTQQy+/xrzImOPTEJn/A93bBdh83zJ0+1f/l2zPnQO4liC2bCnJAlXufQ8khRjMhJ0r692m3OZcbYY+PJY5uW2f/kydBR7bM9dEPbC8bTbQy9xm0vvWK2mWZd9iQvsVyHth0y6y0fGvqLeo6GDzUnVR165+3QSVrLWxkCmZFDsYrsxyxgTyyDk1nDHIzD5sfZw/yAkjgW4TBp9mvVHrOy6kmuSmDycxE+/t1mTnC9MZTx0LCvh+vnmBVWLtucOMmEIxt6kuHR+33RaN6D8km6JlRspMyGsOB7WV5uQmPyOWVnmZOMhFCIMra9tNf7nn9+vH/889mmdbgx83tp+WMQ92pVKED5v1tG6cp4sY4ufrcUxcvb9Dtvk0e0j0DWY30jlH30nnaETrZaT2b+q3TT4eAEzLfjpH3icH1uuPkx/nzvZCz1+T/XW8fMj3jA+6jNO/FL+rmWmJO/ov5VfNbHmmC+3wff7GYrWSa2hcR2sTMn4+Fw5TlxNBpYGufriVmuBWbRZO+YpQS52Il81cwJJvAd1P74urup9iKzr+37tSefANYD3vZMXGiJby9N+NGh3aEQ1aET77m7cSn7f0h2XGwQ3PLaZpfHdoUmmNWmhs/oNgNNb4RbxHqTCWVmf8b9fadiMbEo4t/1HTvuMOHNBap8fh8cOxDq8nhabSfc3b4iOAEZzAU+vJPaLvbHJDobSFIHpqc5QYkVW8g8mD2+Px06dsr8CNaVzzaN7MfTLJt2PF1sm07BxiYdP6VOGyDn5VYOvetiFV0cs0DHKe8kNMmcvD72M3di6Y5FyjLmRPjtJm9/h9r/93P5XOShWGMoOWaFlcs2vT8qqV3H4sc8TfiJfuc6dCr2B8CElPewXafMoQ+CW17b7PKYZRqDGN1moDd/Vye9oodurVc9XRcLYgAW+shyQpX4C3oJ2G5d9jpOC6UnrurpeBtfTX2o0qDrzhjtnparLMGjYoQ+6+4WzgJVDTM/4mGx2Npb9YG7GxcPNQVTqG3WjfJaQSunLEm+597Ndo/0F+kbPqF5c6tV869/1v328/5c74SzzPro74M8eScgHXu1sbdPenp1m/4JZeeevbFA4rjWnIwnSwlZlulOK1JOCrXNCnsOLlVP864PFL4lxokUg20Ve8y17M0LtjlNt7iHo3r5cgXm7DPTdqInuIUx5iyzzjShpmc4ZoWW8zazLBMPNQVTqG1Wlets86Os1r9eWPIWdGPFQDO4qi+mtIz1oq1lmmTCWM0q6S5zsvri7W5+D0SqLwYtX4WWJVR032q12BPlQnSnazyqNvOj8vwv9mhdba22WbB35bVN9zptN9Pwe564dSuMF4MdM2nC2IVneNctq5lbZt7tPqqUvw/y4rrH9WrFthJs03X7iXShC3OtOd5f+rurl08cPXlt0/8LuNdF87Gfpd7CXdIKzm9x8bZju1rZz0CaYNaXLldQjFLdh0+adRY4vHPMCq8Q2+w86Zd87015bbOlQx+aH7ZrdMrvAnvL1L0Y/Va/D2Xzx1Qnuz96Y8KG6Lzz4mPC/GsenW7eFa3SmJNmtX2kwo0r2XqG9tvuXRf+yc0oMa8rXWgcVEK0u1zL+3ak0AhV1XkP+tw4sy65LpJhH7SaX6gVE1QbXl8G/rKZWuxcN8su1rXnDTuOK80y3r516ODLBYgObnxb0HWwsNtM302xZ4qwzmJ1z+2Oovw+KDQ7KNz/62fGi6l63eOyhJUQOwDcrivrhUGrLpC9eGvmlhAj523msP9WDtv0uv1k697lTlBSx9iEeF2EQuM7EgpZijy2roJuM0OXtR7K+wR2nwmFXjCr0MjIX7tc97i8L1fQvWPhjZGrrk4NhuGua+5zEW0BcmOmuuReT4h/bSazv7lc3DjttuM4ZhE5HTMr+++WXLb5tO3OV16jGfG/2JoDm+vv1C7FuoIWdpvpuyn2TOHXefOjDWpoaNAjt7oZ6Lb+HcrGf9srYd20J6jo6Bf+GDLhJt0X+mvq/DmzzUlwc3Igf1526ff2uz9yZmSdA8diNe7qUOWUOzU7FB5qV9mqjQeTBS9ceEsU/rCV+2wlwPboLxg/vI3ThKCIhasiGBcUxbhkcfS6arb6Yng/rGCdKcUsnERRksVvxp5r9jG4TtnK5/V6u1nmjrWhFjXzuDcOb0t+xUXSWqDZd/iFOBqDFsuCbnO1trxoQt7Yuborw3HIn2uxHDs75ZgPDMX4fVBg7j90K33YcCdKORXb8E/irLKxozKe1PsnZ1amE5o8ttnl/vu63GYwfi1r966j2ugVK5gWC52j9Gh9sG1/mbLa6ZGxUbfUTzMnREeTA/l7IHVdhd3m0zv2qrN8ku5OvKaeC05gUwoDOLYSXPzEN+3YmKCIQZZiFel091j4RRRG6ZrwsTCflYVeYZWgm6sJGs22i9ekRBC5pX6OJpsT4E437XMno4nvhj3pT9MNLCiwURcbX2er+qV8dt06Q9tOwTGLyeGYWV39bsllm94y5Zp89QWh34fm90WdWV9BChiZ43G1X4gj0c27oNvs0PJXzecm5XdeT7g//CSKvvTUzZro/uo+esb9mu7fRTcVNZTZctTrbn/Gu3nXETrzQn3dTa+Z2r0KhzUz/Od7N+86ReHy9f5A/x/uly66LrmcV4o/fu2iPKzd/GO98dGQyDq7u/99UcvSC7XanJ9esjg5VskrQR+q2OhVDUxcoNouM1snVozW+gPu4cDKOrOujuR4t3pp06yHTThxjyeY9Xnzx+lqt017u17Pp4YVt87IeKoN4aBj1zVamw7ZYJZc17Ktk7U/0a3PhJrrzPZ0uRYkHvfLwXe7619FeF1LdMmJ5/RgpCx/gbdpjoO9SLhSxpXFw2ju9iy070H0uBUu9JVeMX4fFFTLUb3jzrnSDtLOa0C+f6JlZfvruj/g33J/NY/LZ5td7b/T1TYjf8XPYttLm70WnOgYi2rti1Qq3KzHzS+u5NioG/xy8KHy3fmx3fiyr6ug2wzGd6UZV5auxSAn+7ab/bPBMXTcbkueNNr933dedFvp9r/L1syEro9ZbmyXytixcOXUw+W8n27YbE6Ek9u88qT5nGyKd042J7hrzLps4PWW869N5bcIhtnlfqaNzeHxdeZ2XnOaSoJunbHXG36fOGZukYSuj5mny98tuWzTLmNep4L9tze/HHy3u/4ljoW9mYBqL3EQ6VZc4G3aVut1e6U048q6G6r89z563Lof+p7Rxt+4KN/LXVgHol67TlmPueuUtUauIdYfFeA6ZSi57NdOG8QKdvFoWN61bLwLjPZSgQCj97fp//XdnuyFTxr7Av9aQmkukjso+dc3shesTj3RTuKYhXHMBhLv+mA2LPfi7+N+IbhWWdMvVH8vNRh7YnAV+ugTPqGjf3B3ASCjURT4QJ/Rl4pV9BccMwwGN3/JXjy6U7/9BYGspwhlJXCwdYg0pkPrZrkZwADxnfoTKleldtNKVgDh6w/1lhJs03bPCV8MF32S13WUlpy8cMwwkE1f/KxX4ONLZ/1W36+/SQ+97B5AtxHKSmD1A8P10K+ly7/ZrKZfHiecod/7zkr7WW7W3DFDtPN7FfonNx8AAAw8r6y4SfX19aq/9SG94uahZ/rPmDIAAAAAGIBoKQMAAACAEiKUAQAAAEAJEcoAAAAAoIQIZQAAAABQQoQyAAAAACghQhkAAAAAlBChDAAAAABKiFAGAAAAACVEKAMAAACAEiKUAQAAAEAJEcoAAAAAoIQIZQAAAABQQoQyAAAAACghQhkAAAAAlBChDAAAAABKiFAGAAAAACVEKAMAAACAEiKUAQAAAEAJEcoAAAAAoIQIZQAAAABQQoQyAAAAACghQhkAAAAAlBChDAAAAABKiFAGAAAAACVEKAMAAACAEiKUAQAAAEAJEcoAAAAAoIQIZQAAAABQQoQyAAAAACghQhkAAAAAlNBfVVdX/4e7Xzwz79ez/3Cxytxk52++r5tWvOKm0JsWPHBc948foofmlmm1mxd1m350bb3G2bu/b1Dda2u8uQAAAACKo/gtZbc+ooZ/+Fv97p/rVV9vb9/X7/72H/Xs4uluAXTXrOXf0tatd+prbrpLt7fr/i+c1sF/zRTIrtBDV5pAZsPYC7MJZAAAAEAvKG4osy1kV4/Qb//5Jj30spunV/TQ07+V/m6B7p/pZjlfW/U9EzJCtw3zNMs9hh6a1am917ap49cjdeWTbl7cmVfo/DM79drbhDEAAACgtxQ1lN38pYtV1rQ1FMicl7fpdx1lGjrGTZvo9aQJYdePbdb6Wd/UrOD2I+nLy72OdOih79SfUHn7MD3xwCfcnDTOPEufdncBAAAA9I4ijim7WY80zNKpSCtZ0s2PNuhL+oXq733GayHzA9kP9GP3eCb+sm7C+OOuJ3XN0oP+xKI7tbVeWr/ipGYvrjUBw67zl/rPG27XZRXm8UO/1KyFW80dGwKvkhq+qefP+ZaWTDnTe7q85eP74C+bjIYf6dUV39aSRjdpePsks+71Z2ujt13fQbP+21e6Ccd2OUxuL7b/hvf4+Qf18HUf6suh7SaXi+9PXJrXYFvJvnlCrS9UZ24ls875gRovq9JrL/533f+RmwcAAACgqIrXUnbrRI3u+J22eYHMBrQGNbibHU92+Hint5gNGbU2ZB16u4tA5lrThu3Rw0FL2oo90pTbtXVVuJPjWZp9x1naYsLYQVVr9oZ5uuDAk3p4l0kZY8dHxl+Nq/+eH4C89T2pV9urdX24y6QNeSYAVZlAFLTePbxLumzx9/TkIrdMYOxV2rrYbjdY7iOz/m/p4Tr3uGHD25IpJ5OtgW7/N8ZbAytqtWTrVP1hhVuuoVmfNsv529yq20Pb8EOYW867pQbbBdNPq1yV2p0tkAEAAAAoiaKFsulnj5BOHtMrmq77n/qSRvzm+6qv/4WOmMdaPwxVXlw03mv1OfiGbcHKbNbyqWY5E0CuW2diidO4Tv/sha2pofBzpnTgl4lg8mkTzf450RJ1lv5zKCSp3QS8xPoOasmLzSYQjdMsb5lxevjKaq91LdyStXXpOhPezKNXxse72Ra0ZCDa+vJB/dHsy2fOdTPq5mm2CZ8HG0Khye3/p6dclVKs42BDqDVu5dtm76SqczK3j2X2F10x/rR0+Az9k5sDAAAAoO8oWigbM7xMnccPSzNn6G/LO/W7XSaIzRypEerUKTM7PyYonW/CVvtJvefmBFLCjwlHb5l5CSc+TIa4mD8eeC362Hsnk+uqu1QXVJhlWk1QiziorQdMEKw4S4lNWu1mfqhLY9ysmeO87pR7Yt0Zt75/0vwbC4tpluu+P2uEeR0drZ9005ndPtKkxo8OaCtdFwEAAIBeU7RQNvIsv0Vs+pS/VZladcx2YxwzNHm/O7IErO61InWt5f1QwIuIB6nszh1hx5FV6/pwdUl7q6/2Fyih2y/dosZrt+iiY7NV9+K39K9uPgAAAIDiK2r1xYSOU7KNY16XxhCvJc1rnZLGXdSz4veZw1OxnNS/ZWkZi3uvNd34r+AWLRzS2558zYSxF2brjZEmnF35bf29mw8AAACg+HonlIW5gGa7N3pjyxpf01vtZkasCEeU6zKYZplM3QK7I7Iut1+pYdF1peyyMElU+m6KPZPbOj+pVvM6ykf82U1n9uSxQ9KZ52tWsjgkAAAAgCLrnVBWPlRjdLOu+bsyN+NmTaw5on1P2fsHteRHe/RHr2vfndHQVTdPT7rKhFuX7jBLmmXClRbN4/8w5Uz9cVeysEe3pazLFf4Ye1Wk0uKs5fN0WcVHenV9po6UGaz8pV5tP1OXLY69xp5wY+Auuz5bK+Mn9NLbQ0wK/ljfcXMAAAAA9B1FC2XHTkojzp6uV1Zs1RGN1pe8a5b9QkfKL9Y/NnxJ2vQNPeOWtVUIrwlK0ofHW90hPZ+ofGhLwf9SB23p+eDxxbVqafhmpDpiPmyZ+azrWvkDrxy9LZ0fLOeXtO9Od0MT8q77ptYfSjOuLFLSPw/2uJn988rxJ9aXGvpWvzJEHWrT5NvdDAAAAAB9RtEuHj198bP6x+FbvYtD9z3+BZjt9ce6G+j6m++sbNbcMZV67qqKzKXxuXg0AAAA0OuK1lL2yq7fqbNmlu6f6WagpP6pYZjXWjZ35Z/cnDQ+8ouuAAAAAOg9xRtT9vJD2tpUpov/4RHd7GZZtgXtkVvdBHrP1jJNeqFSGtOivQ/8xc2M+ejf1KIyXTr+NjcDAAAAQLEVtdDHM/fW6xdNdjxZgxrc7R//9nfa6BX4QK97skIP/XqIysd/rAVuVtQa3fFCgw5+rt67blnjpYQzAAAAoNiKNqYMAAAAANC13imJDwAAAABIq2ihbPTo0TrjjDPcFAAAAAAgHVrKAAAAAKCECGUAAAAAUEKEMgAAAAAooaJVX7Rjyj744AN9/PHHbk7fUrvqiK4e6yaMpobR+slKN4GsZlwxR3fXlqtzz2Z99aUON7fvu6X+Bl1T7SaMw40/07373ESKci29bY4ml3e1XCGN0qP3TNMYHdXGx7braTcXAAAAA9ugbSnbs3C0Hpxlbit2qs3N6w02DC7bsFZVbhq95+mGn+nax8xt3V51unm9wYbYF0zYusVNAwAAAGF0X0Tetp1o935+eKL/tJLlr0PL1/ghrndayax2nbKHtOOUDvszAAAAMAgQygAAAACghPrdmLL4WLC2XQ/riaWr3VRghW7cOlc1bko6qE2z6rTHTUXUrdVdiy9XW8YxZQs0e8MSXVLhJtWh11dcqC2NbjKkavmbWjCl3E2F9s1to9LNT9G+U6uvm68WN5m6//Ftun068ZweXD8qsu70xyM4bpn3vaCqLtBP501SmZu0+7973WYtT75Af3yXtuvaHeWRZSPjt7z11Ogd89xjU0PjwTr26vE1b2mbm8yb278P044VS44l86Xue0LK6wyPBQvGh2XCuDEAAAD4+lUo84NFNGDVrnpTVetDQcMFIIXCSbrnJWQNZS4cHTLhZ+Fib44fvJQ+JFVEQ0/V8kbVvlwXCUHevgyLh7CQRY1aVj8uEq6CsJcsRhIOiqFtuuemFi1JhrxMoa1wTBi5rVwbQ6HJL7ARDTfJohvJ+X4BESWXC4eeZhPgGo6aOy7sJKa7IWsoC5k4TS/UVaQPZW4dChc7sfOmduirsf3yX1c7IQwAAABp9aPuiwtUNcz8OLQ7Eqz2LIy2/NRef7kq23dqfSh47Fn4nJo0TtOWL3BzclO1fLYJMibMuUBmtSz9gV5vL9cl169wc4xFX04JZFbL0mgg65oJW1eOM6/xuUhw8rcp1VwZLxBig2Zomyt3m9cpVZ4Tf52Ltf+Q/dmhgy8XM5BZR3VvrBXr6R22sEa5Pj8+2Yroiwa1bS/t1eF0y0UC2FFt3GNCUHV1aQtnDB9qwmKH3nk7NK6u5a2UQAYAAAB0pR+FstVqOWF+jJ2rZatCgShihSaMldoO/CrWCnVItjZF5YhQv8cuLVDt+SYcxEJgYj+GjUoEpNqLTJBq3689eQWwNOq+qHEVZv9bvQQVslp7DpiT/4oR+qyb42lv1Qfurm+xfjJrdNqWML/aZDQ09pqWDn3o7kZ0NGlb5I3yC12UnZXoK+o5/G406PiFRio0spQlLI+f8oLm5HlztJRSmgAAAOiBflXowwaL1bvMWbsNZluPeLe7wq1fdaO8sVWVU5YkHvdv4TFhuRqrYfY5oW0Ft/CYtkQL3omj6bsjdkPb+5las0aoqs7d7cP8EvA3hG7ZxlYVhu0OGd3mDfrpFfGWuQKyrWKPbfda9ibPC7ZJ2XsAAADkr99VX2xZeqF/fbFZD3td+mwASwSzxqPeNcfsuCl/mdgt1A2xa37rmu1KmHZdiTFhqS1nxdOqllK0dOUhuLC0LdjhXRPMu9nwUlyJa5CFbsW/sPVR3Rtsz3z27Hi3awhmAAAAyFM/Lom/Wluuc8Es0S2xO90UM8k9bH3QarsWTlBtDq1Y/rKxboiBxl/poNn/movi3TMzdaXMnS0wsmzrm5pd1Ja2cs0Ya/azY682dufaXlWj9Hnz9Hh3xbhbzhuVputjie3b7oJZarfKgne3vPURNTQ0qOGp+zXdzQIAAED/1Y9C2QrduCFW6CJlDJYJai8e9LocRro1dtOe9TvVVnG5FmQcw+ZrWbpFTSaQXLK4UbVunmWrL8ZDUMv7rebfTEVHkvt/4yI3y6hafqdfSGR9Pi19Yf5YOxuaxs3s+XHJrEPHTpkf5TWaEbxRtiJhTt0Xy7X06kkq6yrQTZzmVW08/GoPSuIXgG0RfHSim3C8sKh2HYuHxWD82VT7eM9NP3uEf6f8Yl1zq38XAAAA/Vf/uk5Zmut9pZZ/N9JeFyxcHTF+HbCweOn89Mumbjd+PTO/G2W6ohvx65mlXKfMlbZPiu+T25aylNaP6b3rlMWv82Wvx9WsiSaYnR0qH58siR8SL3MfLomfEK3YmLts1w0LXTMs7Tad2PXRUl5DtuuneeX1w6GsJ9cpu1mPNHxJo829I5vq9Y2n/LkAAADon/rdxaMxMHiBZmgXF4F2AanL64kNQjc/2qAv1XTqt/98kx562c0EAABAv9SPx5QBg9Stj5hAJnX+ZjWBDAAAYAAglAH9hu222KCGq0d73RZvWvGKmw8AAID+jFAG9BvP6Bv19ao3N8aRAQAADByMKQMAAACAEqKlDAAAAABKiFAGAAAAACVEKAMAAACAEiKUAQAAAEAJEcoAAAAAoIQIZQAAAABQQoSyYlnUqGVb39TsOjedq7q1umvrEfNcd9uwVlXuIQAAAAADz8AMZS7Y3LjITfcnjfP1xKzRetDcNh1y8waqc76tC5ZtUc3FbhoAAAAYhGgpAwAAAIASIpQBAAAAQAn9VXV19X+4+wU1evRoffDBB/r444/dnMKoXXVEV491E0bbrof1xNLV3v34Y3FNDaP1k5VuwkhZ/tBzenDhYjchVS1/UwvO36/V1x1V3da5qnHzw9tMsF0mF1+uSjfp69DrKy7UlkY3qQWavWGJLqlwk0badTne/g3babY/Xy1uXpi3f1PK3ZQR239/nybooNmHlutDr7U93TpX6MbQa5QOatOsOu1xU2HBduPHM1fl87do/Bg3kcaHm2er6bf23m2qWVavste+q7eO1+uyOck3K7mM9Kn/+i+66NIWvf3gneaIB0LP/d8vuXnGxT+IrEeHG/Tq2jVuAgAAAOh9/aqlzA9RNiz4Y67sbfuIOxPFNPYsdPNX7FSbmbahIVjO3sIBwgaLCW+EHrfPGTtXy1atcEs4FZdrwdbZOrHCLddwUJVTlkTHq9miHiaQtYW3Z5aLq111p/Sj6DJ2XXctX+CWyJUNd0dMMGoNHYvn1GT3P6UwSLkuWXxE01ofTi5nX1P4dXpj8Oaq0gTEYN82HRqnq7c2qtYtkrRAtef7QbDmotixylHH2tl69UFz+39+oz+aaRuwvGl3C8JW4NOX3meClEzo8h9/47VOnT3nX3T2OW6BHNnwdtmcKjX9P8G2GvThGBP25t/mlgAAAAB6Xz8KZQtUNcz8OLQ70nqzZ2G4JSp3LUsvjLbyNM7XdltYY+zklCDS1BDaxsrdajI/Ks8JgpQJSFeO81qpumo1StnXlc/r9XazrvO/mF+FxUVf1iUVthUu3JK1WD+xQdAErrp4gROzb8nWuMXab1/nsFGJbdZef7kq23dqfajFbs9CE940TtNSAuNq7Tngt0c1vRFqlSumtt/ojVAr2J/2HTBhrkx/k9dBu02fvbRMf3zth/rwfTdLa9S02RyMMVflHfAAAACAQulHoWy1Wk6YH+laswrkg9Zk57ekg9qfLWzVfVHjKrobUNxrylPtRSYEqlUt8TCaEhh92fdthSaMNbnnwK9i3RkP6YQNjCPC/Tt9NtDa1rTudF3slpP/pj+5u573v6W30rSoZXXxRTpbnTqxL9SV0Wo52Y2ABwAAABROv+q+aLsnrt5lgpMNZu46Xvl3/QvYMVSh64GZW2R8VjHEr0FmbtnGwGXV3qoP3N24dEEqo7pR3jg4240yvF/LtkbHvvV3nxpuU1eZav7HFl22LHT7H3+nT/uLAAAAACXRr0KZFbTSPDjrYb/rX7fGZLmiFrbghRtDZW9e4CuWoBCILcYR2mYxrkXW1prHShuPeuPvbMGR8H4lbuHCIf3Yn47bdsDO0Hiy6C2vVjcAAACggPpdKEtarS3XuWAWbxlyQSPejS9h0WSvymDTi+mrGuYl7bbcOLOQqpkTVGmrMa7vecjZ84YdOzZBta7ASYL3ujp08OX01RzTy9xNMRNbJMW2pvX44tzv/5uJSVLZ8Cv86ULyuiuG5N1Ncbruf6pBDQ0NeuRWNwsAAAAogn4UylboxnhlQTeeK7VlyAWNKV9OUz3QeK/VC1Lh6oG2smP3ui/6hTPC26pdtUSXmHBktxFoeb/V/FuucTOD8OZXUOxW90WvQEi5LrkjfDzM8am3BUe25Fn4xITbF03IGzs3xxbHnldfTDqk/2MO0qcvrTdHpvv8VrCxOutifzql7L31/rd09LDyqNo4RkPdTo2ecb+JaAAAAEBx9K/rlKW5Fljma2XFr7sVW9aWsbchxrHd99brTldm3q9q6F+PKznt89dry8cnKxpGrz/mXXvs5S8mrhEWhKT4dcXs/uy/KHotsvgyYdFrmkW3aaVc88wdL1uqP3yM0l7/LM2xTb3Omi/Yx+5epyzKv55YuFUrfp2ys3O4lph/rbIyN3VIbz/YoL+56z4Nezd6nbLoco6t7vjEt6LFRIzpi5/VP/6dWbbjt/r+rQ/pFTcfAAAAKKR+d/FooNfMvF/P/sPFKmv6hervfcbNBAAAAAqrH48pA4ppuu6/xQQyHdEvCGQAAAAoIkIZEGO7LTY0/KMu1m/1/fpviEgGAACAYqL7IgAAAACUEC1lAAAAAFBChDIAAAAAKCFCGQAAAACUEKEMAAAAAEqIUAYAAAAAJUQoAwAAAIASIpQBAAAAQAn1w+uULdDsDUt0SYXU1DBaP1npZqNnzlmn/3fh5fqLm5Q69J9WTdIn3neTKJjaVUd09bCdWn3dfLW4eTlZ1Khl9ePchHHoOT24cLGbgOrW6q7Fl6uN3wsDF7+nAAADFC1lvcyekC/bsFZVbrqv+eT/qtEZD9gbJzp9zso6PThrtLk9rNfb3Tz0shW6cesR3bV8gZtGoVQtf1PLtjaq1k2n9f48/Sfv95O5/a+DbiYAAP1fPwxlq7XlOntiyl/DS8M/KV0Wug2kE1QvNJvXdOMiN8NjW2fTzYfHtuCFPg/BbXAHl4H9PQEAAIVFSxly5518z1WN7Tbntdj4t/X6smbXuWUGiJqLVrh7Rt0XNa7C3UcGHXp9RfIz8WDDQVVOWdKnW4WLZhB9TwAAQGH0ozFlybFkPnsSeKG2NLpJyxtzI21a0appiy9XpQ5q06znVRU8LzEGx/4Ve67UMFqN57ypBVPKvafLW75Oe9yUz1+2xk2l267tdrNgSmt0W1a7GzfkxrpUutkpguXcZC7bDPjbLu/5+Do3VuOv/leNPrnbzYtw+5TTOKYu9j+n9+mQ936PO/Cwto9YoqvHSm27HtYT73/ZjauKH5Oujpn/ePb33P+MjTuwU21TRmi/m2+P8fXab+Zd7j0/cZxT3td0n5/kexQRes+Tn5/wc/39rbSveelqNy/gvgsnMr8X8W16xy5lPQXivZ8jMnwvkp/N5OvM8D1xk1bKMUv7uYu/577wdyHt+L2MY8/i60u+nyn7E5M8vm4dOX1P3P6Zz3Yg8j6V6PeZt08y614/KvL5Tvc7pqvPmff4+fvN8T+qutB2U46XPzuN9N8pz+QX9fF/G8GYMgDAgNCPWsqS3RbtX+EzG6Fpd4zQ9lnPqUnjNG3Dnd6J/epdHdLYyZHxCjX1R/wTBu8v2XaczjhdHf7LvvuLtz0xDv7avXqXdMnidN3YzHO3+iHCX9Zsv+JyLVi1Qmqcryfc8zcdMovak1A37d3SBTJ7wpVYZouG3ZGuxWGBas/3T4giLTvFsGiyd+LU9EYXJ5o5H7Mc36fz79S0Vn9+pbl/lz1J9Z5TrnEzXXewPN4n7z0fscUtl+Y99/xK+w+ZffK6m61QnQkS25f+Sifapcpz/G3ak81l7sQ+2OYm85yrt74ZaQ2xJ7h+EAkv5x4skpRtrtgpTVnS693nWt5vdffCsnxPPH5X0egxM8uMnRttdbPBKvae29fZ5h7Om/sMRb93uzXB7VfL0gvdPPvZ80NFcrnRoSCV4/fE+567wBisx71PyxLHwirR7zN7vBfb7QbLdZj1d/HZzvQ5s+/v1tk6EbSkulZUf5uL9ZPQNvwQ5pbzbhkCGQAAA8wA7L5oQsqB5xP/kVdqv9Yn/nI7QlXh7kORv9Cb0PeiCXsVE1TrLWNODq8c5/01OvyX35alP/CKLNRcmRqS7F+Sk8suNif25sewUWnCVBZ1o7y/TEdP6syJS6wlwbdaew7YE5lcTgJ7pvYi2zp1UPtjfymPyueY5fY+VVbYQOTmV5SbEJQ8SascYZsY8nyf7HueaMFwx69ihD7r5gT2vGFOHM//oqrsSfah3bETQxvUzL6Yk9twy8GehX5YvOR6d1JtgsM0s4tNoX0uunTbbJyv9TbUTvly9iIKBVZ1zgjzb4dOvOdPB7J+TxZ9WZdU2Nab8DEzn3/7hxhzcl/nwkPt9Zer0ryXyc9MTyQ/Q9HWLbPdHFq7wnL7nthQP9uENxNAwt9r9z5p7OxQ+CnV77Poe9Dy8n4TeMs17Fw3I8/PWVNDqDVu5W4v2AZ/4AAAAAMylHXo4MuhE7UTR9OEGV/bgV9FH3uvNXni4cYRtbXGmzUyncinnnzuWTg61gqWg8aj3l/77V+9U1vjUgV/wY93KyqJvI5Zju9TJBClHuN836eU9zxirIbZdb1v9mvl83pdE3S9OZFNCbyuNcRbLiIaMKpmTjAn0V2foBdSpm36rVaxk/hiWtTodWtr2/WDSNe4rr4nfqhpVUvkOUbkRH6FJphAkP29zIP7DBX7DxtJroW7vVUfuDmBlPBTqt9n7fu1J/4ehOT3Oevd7wAAAP0RhT66kHriHSjWCa7tzuOXPLfBzK/cFu021Nf1/jErxjbtyaptmdipxtAJpd86Z6UJiIE0LW+95bMjbHdW20UwWvkvcn2zoij3usElt2fHmIVbxPKQJqwEkse/gM4dYd7nLO9nsWQJWMVqRSrU96R0nzMAAAYmQlm3pflrfsGExs9542TsCW9pg9kHrR3m33GakEPrXWbFPGaZdH+bXitkvi2dVpZQUWz++xQflxPcogUdCst2dyv+tlJbegog3KLUQ4X5nmQLT8WS3/ekdJ8zAAAGJkJZSKRLTuOvdNC2VqUU0HBdj1LGGeXGO5nJpyXFFglxwSzdSaNXcGJrbl0de8LvVpXueIQU6ZhlVchtuvF8XfK60oUKjSREu9Wl7crlxuJ0yXWRzFfe3RRn3q9nGxrU0PCIbnazSsmO5UuOgwrxjkfQle+QX3Ql1mrmjTNz97Pxv+chQZfhnIrlpN92IKfvSdBlMFaowypkl9di/j4rRnfYgq/z1kfM59p8tp+6X9PdLAAA+ipCWcCcLF/vjYEJBtW7gfJj50YCT9XyO/1CBOu7N/7EP/EIKvulsagxpXqZf3KVrnuVO6Eycjuh7IFEEYK5sepw9pg0ula84hyz7Hprm6vVcsL88MaLLVajV9Dgzlg1Olva+2CyMIkLb4nCH7bi3uLLpXbbypAUfCYSrSu2Sl53u4HZsXDttmW1MbeiHmOGqsy7M1qzFveBU9dg/yPVRs1xs8fj0BbXAhOEmmRBDPvHiauHdXiBKMz/I0gy5MVLuPv899N+hqLfPbPd2Gc98TmIFOMIyel7Yt7zpVvMZ2Ocrg4vk/I7qAeK/fss389ZLlyLZfL70jPTz7aFZozyi3XNrf5dAAD6qv4TysxJxl2RcQv2hMBNd/MCtd7FbYN1uvLmkTEwK+u88s3JsV1BCegedM8x6/TKu4e3Hd5/8/h63Zl8LOs23cmp0RtFCrzufLbVzp5whvbvej2f3LdiHLOulGCb9lgE5cSDbfrlzWNVAyPHyy8Lvv6AezjgPhOJ/ffK/vvjCsNsCXJ/Pe46VaH3IXmi7Xd99cvzB8u7W0rAMJ7aqN/6H6E+wu6/ee2yZdSDfXdl3EOVEO3x33Qo+TvAu8zBdVtSQlnKcl7JeL+sfZj32Xal2hPHa+tk7U9TfXHPQvvehH7/mFs4zOX0PfHGjrpS/8Ey6X4H5aF3f5/l+TnLhe0VYPYv/LletrX7oe+VFVt1xN0HAKCv60cXjy4k/1pg9kSvuydAA06XF4/GQDV98bP6x78r05FN9frGU24m+pFB+vssh4tH3/xog75U06nf/vNNeuhlNxMAgD6I7ovAYDbzfi0wgUxNvyCQYWC59RETyKTO36wmkAEA+jxCGTAoTdf9TzWo4R8uln7zfdXf+4ybD/R3N+sRW+Dj6tFe6+9NK15x8wEA6LsIZYj4839r0scP2Nte/eUcNxMD0Ct66NZ61ddz0op+xHaz9n4/mdt/y1QM5xl9w3yu7Web1l8AQH8xSMeUAQAAAEDfQEsZAAAAAJQQoQwAAAAASohQBgAAAAAlRCgDAAAAgBIilAEAAABACRHKAAAAAKCEKIlfCIsataw+dM2cQ8/pwYWL3cTAUbvqiK4e6yaMpobR+slKN1Fkt9TfoGuqpcONP9O9+9zMAvDWO3SvHl/zlrZ5c8q19LY5mlzuTRgd2r1us5a3uMm4idP0Qt0os1h4HRi8RunRe6bp7D2b9dWXOty84gu+H4Hs3xN/H8foqDY+tl1Pu7kAAKB0+l1LmQ0GyzasVZWb7hNW1unBWaPN7WG93u7m9cgK3bj1iO5avsBN9w17FtrXaG4rdqrNzevfRmmiDXqvhsNUh5av+ZmufczcGo+6eb3BnijfoJ9ekUiD6GU22Lxw2wWa4aZ7Q6G2+XSD+8yu26tONw8AAPQfdF8cwDIGWNuyt/VNza5z0/3A4ZO21aFDp47704Uw44pJXmvBvp60vO3b7p8M00qGfqNdp7yv0ykd9mcAAIASI5RhkCrXjLHlUnMz3bcAAABQUv1jTFndWt21+HJVuskU7Tu1+rr5Sg77sd3/5qrGTUkHtWlWnfa4KW9slJ7T6tbZWjDFnJjbMWDrRyW2EYyVqlr+phacv9+s+6jqQutr2/Wwnli62k2FLdDsDUt0yYlMY8rc4xVu0givy9ue3Z8MUrbbxVg273UOix8bw3veCL2+4kJtaQy222qO0fOqCu9fynF13PvRlnVMmXsPMq2j1LyxYBU5jBfLsEwwlizQvF3XNqTv7jjjijm6uzb0voaWTXksprPbY5OCcUOBdOOH4stEx89545S0XY+fnOTvo93vHeX66bxJKjOPJ8YtVV1g5tXoHfPcY1NDY5vSjbPzlvWf74vvl79PMuveOCx8bNLtf9fj/4LXEN5vK7rv4f2JyXusoL//dkzZKk1Pv/+5btP7jEkb153Sld7ydh17NTJ4zek+c27dHxZ47CUAACiuflfoI2PQCLjAoFCA8Z4zNhnM/HV0qO3EFj3xxmQvoLS1m+j2ox9IdyRDVTgkJYpauCCUvshF9lBWu+pNVa33g5DHrSs15PmBpjJj+DPnXt6+KRGsEiEoFMzyC2X+60zuS+r6EnIJZYnA2BHax77DO1mPFPhII5fgFgSDU+lDmR+6FFmHnXfNic2xk+bkyXyPC0QEgTFy0m7WXy/dG0y7ZcKhLwiIQWDxj1GHOk/t1VffrfaORadZ9J1Nr0hXh15zOGQktukCX5oAGi5C4W2jOhym3PPs3cRz3TFW+P3KtP7osfbXb+8lQ1G65aycPhNdCu1/ItBl/oxk3ab7/HV2tOvFNc2aaD8fHeYNOPSKC3ztqUGVUAYAQL804Lov1l5/uSrbd2p9KMzsWficmjRO08KFMypMCFsfhA0TSA78IBkcho2KjMOKBLCVz3vFPGouWuFm5G7Pwlg4ceuqPP+LeRYuWaE6E6LadoX2WYv1k4aD0tjZ3R4rZl9nMgQu1v5D5kfsWORs5W5zzI32/drTxwKZPXFOLfBRHGPOMp+tjiZtC538b3spHsgKyQSAy+KBzDqaDGShZcIBcNtLr2i3mRxzWajwhNn9d3Ykn2cDQSLIDC2PFqiIbNOEoD1mZdXVusWbHqVrTCCzITD82p9u2K7DZr2Tp4ZaHS0baBLr6tC2Q2Zd5UMTrXrBeMCNodfo73+adXktaMnwsu3tJnWabQ4d7mYUQ6SFze1/4ljkwx7zvYl9LzPfqlWJ96xCI/tUxSMAANBdAyyUrdCEsVLbgV/FWtEO6YQNPyNC9dxjYaHt/fQtUrbr4/5Ia9BqtZwwP7obViLcuvK1aLJqzInewZdj+/xeq9rMSdywc910Xjp04j131/GqLXa766EJibZSYx/suliQAh858gqUlE/S3b1V1a9qlD5vzuMPv5sMKyncMp0n46VCU8NPPFB+eCIIBKni29xmv3RBcDAp2K4z9fnmfWg2P2IBr/PQ0SyBOdN4wA4dO2V+xMNi7DX0huz7n48OvfN26JidMu+RuwsAAAaOgRXK6kZ5Y8IqpyzRsq1HQrfoOK6Ssd3+Ivtlu1W6x/JQdc4I82+5LlkcXdeybOPu4Pgn9J17kq0PxWRbxbzS+jaY3XODXrC3+nhLTgENH6oycyKfS5XKzAGrWC0wWfYrHAS7VGFzl1Q9zT+eoVv4Wl0AAAD9xcAKZebk114/y46L8q8bFrulGefVa4JiJXaMVmifNtkugnlqeb/V/GvHaoVeW+iWcZwXpImTNLk81vpQbEHZfHPbaFuFbJgoVjA7fqoAXfPaday3mzfzKs/uSrrb7pLuuEZuPRoTBgAA0Pv6XSj7oNWcjVWM0GfddFSabooFl6mLZHZVMyeo0gapxDi2bLp4Hfl0U0xzrPyWtla1FHWsly0UcqR3L/Rtixx4LSbTMo7dueU8E4ZK0J0t8HSDC2bxLnYuaJSdlUOTri0AYV9nui6RLR360PwYY19nJi1H9Y7ZVuoymboFdk/kWO9r9saOfX68beIK88f35dfdL0M3xR7yu5rm0GKXw+csVzlvsxRufUQNDQ1qeOp+TXezAABAcfS7UOa3EsWKdiSs1pYXbbGLubor7eM9V7vKlsY/qO0ZqiJm4u93ucbNDPbLVmrM1H3RjTXLVLSjcb62H5Jq6rNfAHrP+p0mvMWOVd1aXe8VCXk+cYmAovDGvRkVE1TbSxepnjG+xpUZNyf6E707UeZk+speKvDhs1X34ifufghJHRvkgkb1JC3tIsV6Yccqr9GMlGWDAhvT9NMrwgHIVl8MQliHlr961Fvm0dBxmnHFdK8VcXeisEcPmOBouxImj7W/X2W10yOv75Z6W6nwqF7Ms+Lk0zv2qtN2CS1gi6M/Bm6Urowct1Rdfs7ykOs2S2H62faPN0b5xbrmVv8uAAAojn5XEt9KuZ5X/FpYQVdBN+lLlmaPlIqPlLh3Je3lP6b4dqw0193yS+67iZhw5cb4ftvH9l+UoWx9F9c0s1KOg5XDsYhUkzRSy+un40rku6mo6HXgfG753rxOWaI0e7L8eZhfCj1NGfGwxDrSCFXUS5ZaTxUu+e6FoaBEupP52mOudHroLU27bFDyPlLhLyZYJiHNMelimUi5dres/9rcfgYl6tMes3CZ+6SgLH5Cymvwj1f80gDp37vUY2ullNyPl5x3+5uubHzX+2dk/Zzls/++jNv0jnlwSQb3Wl2FS/85QVn/9MfBl/67kJub9UjDlzTa3DuyqV7feMqfCwAACq9fhrLe4ocVe1HleOBA/+MHic8fyhSI0G1ZQg76t5sfbdCXajr123++SQ+97GYCAICCG2Al8YEMSlHgA+jPbn3EBDKp8zerCWQAABQZoQyDg1cBMbU7HYA4222xQQ1Xj/a6Ld604hU3HwAAFAuhDAAQ8oy+UV+venNjHBkAAL2DMWUAAAAAUEK0lAEAAABACRHKAAAAAKCECGUAAAAAUEKEMgAAAAAoIUIZAAAAAJQQ1RezqVuruxZfrko3qfadWn3dfPWFS13Vrjqiq8e6CaOpYbR+stJNlNx39OcH5urPbsr65P+q0Sd3u4mwqgv003mTVNaxV4+veUvb3Owec+v9sPFnunefP+uW+ht0TbV/3zoceixVuZbeNkeTy7taDugFXX5P8vjOAQCAPmdgtpTZMLX1iG5c5Ka7q3G+npg1Wg+a26ZDbl4fsWehv18PrtipNjevr/nEqw/pjAdqvFtvnxzOGF/jncBuDIWppxt+pmsfM7d1e9Xp5vWGGVfM0Qv3TNMtbhq9zAaae27QoxPd9ID0T/qk+66dsWqnPuHmAgCA/oHui73Etmwt27BWVW46YVGjlm19U7Pr3PRg09KhD+3PUx2FayXTKF1TW67OQ0d7sM4OLV/jhzhayVByRfmeAACAvoJQhoFnYrXGmFD1ztsdbgYAAADQd/W7MWXxsVRtux7WE0tXe/fjj8X5464WaPaGJbqk4qA2zarTHveYx40hU2idAW/dw7KNKVuhG7fOVY2bkqLrz/h821JWP0Kvr7hQWxqj0y3Xh19Pmv213D63ZRlTlu2YRQRj6A49pwcXLnYzu8Mf3/Ifrz6k/7QlzXaKyo0FO7Vd1zYcdfNi0ow3S0qOJfN1aPe6zVqe7k0Pxvm4SemoNj62XU9790fp0XummXCYSXjZ/NjukHfXJnZQnXs266svRQNofPxcZBlvv2v0zrq9GjrP7qP/Go9Ndc9JjFvyX4PMcdo4LLzN9PuedZuG97jM+7KjPHLc0o7ZmzhNL9SNchNGc/T99I7B2Caznx26JnScw9uM709ct8cKdrFvVvw9SreM1dUx65Zz1un/XXi5/ooxZQAA9Bv9qqXMDxc2nLjxVOa2fcSdia5/8XFWNoQFy9mbH1pWa8uLB83PcZoQG3NWNXOCKs0J6sGX8wwS3hi2uao0YSfY1qZD43T11kbVukXyU65LFpvXKhOOvPU9rNfbzfrSdX/sQlfHLMx//cbYyd3c7z6gapQ+b4tzvJshkHUp2W3x2sYs63CBTOYk2lvWG6t2SlfWByfrR3Wvm//4HnuSbYOMW867dSeQ2cB4gznZlwlRyXWt0iQtTXwwbJAyJ/pDTbAKtmXCl2rn6IXEvvk+f/UknTJhbHdHubk/xw9M9jWX12hG6IM2ps5s0wYgb312+VG65rYLNMM9ns82VW0CzbyhetEtZ4/NmLo5of13Y/DqKkKvcbsO2+fF11U+SXffY1+DW87se5nZZjB2LD6G0IYwf33+rTuBzIYoG8gi63q3OjJezQ9k0ffo8ZOTUsa0+YEs+rl48azpkWMBAAAGh34Uyhaoapj5cWh3pLVoz0LXwpSPlbvVZH7UXLTCn/YsUO355mz+0Ja811d7/eWqbN+p9aHWpz0LnzPbGKdpyxe4OfmxrVnJ1qrV2nPAnNhXjNBn3Zzc5HfMWl7e7xcNiS3fn6Qr8FEUw4eqLN5FsuUtfTVT61whTJykyeWpLXfbXtqemJ5xxSSNsQEwXKHP7NcqGwyrw+GtXGWn9iaeV1bero2JfS/X0OHurhWp+GdC66vR4Jb7Ni27/8lAuu3tJhOYwttz4wH3vBJ6jSbg2rCYsi4btELHYl+zDpsfZw8LtVAVkgniV1anaWHbtz0yPeYss/2OJm2LvEebYyGwXCOHmh/NzZFw/nRDhlZZAAAwoPWjULZaLSfMj7FztWxVOEx1x2Ltt9UUwy1CdV/UuAqp6Y18u+2t0ISxJkQd+FWsW+MhnWiXKkdk6U+ZRdv70da6lqUX6sF03RezyvOYBdUme9R1sZQKUeAjR8dPeWFi8rxoK08x3XLeqJST/ahyzRhrA8EpL5yEpYafWGtimucEUo6ne+3+uvLbZvb9NzKNB4xsM3BU+4odvkO8wJ/DNg+fNPtuW/EirYlxHTp2yvxI1wIIAAAGnX7VfdF2T1y9y5zw2JCx9Yh3u6ubLVF71tsujskujF7Xvfadasz3Wl91o7wuf5VTliT2yb/ZcWv+IqVUyGPW53kn9Ef1Yk/H5OTCtorZbnUmKEyed4NeuMfeiln23rWs5FJ9L8syRWtFKtA2ZwyzX5rwMXW3yNi90vBbwDKH14BtFfO7gdrulW7/0wQv273S69pqg5lb7qdXFOn9AQAAfVq/q77otxgF46z8MNStkNH4Kx00z/e7MPpdF1Nbu3JgTr5slz+vu2Fo3Fbi1gdanQp2zPq0ci29zJz4xrqDFVdy3Jg//myUV3SiOMHMtawMLc/S+tK1D0/0QmCNyWeb22zzstfFMTnOKnzrVmGOAvFbwIYmiopktW97Yp83NpvpDC1iXoDzlrNj9eSNiSOYAQAw+PS7UJa0WluucyEj3kXQBaXKc7IFD1fww3Zh9LoudqPAhyePboppxoRVnTPC/NuqlnzHxXVLlmNmuYtu97x7aKH5BS5sS0K8WEJCjwt89JA9CfeCWYVGxroz+kEjdX4KWzzEazFJH+z8UBAtwhHVoW2HzDLV1SnPz7XrXS6i6yrwNtN2U+whd42vrlvssn/O/PdxlCZm+gxmYFvEvGCWNVDbAjMumJ3VB5rYAQBAr+pHoWyFboxXH3TjwNpa7QCxMBeUpnw5exVBr+DHOF3tlYHPv8CHLwh3c7O2PgXdJSOFP0wIun5Kudp2PV+kwhr5HDPXhdPe6WvVF13gssbYcVVp3DJ1Uu8U+HBshb34ibs35kvtOhZvbg3Gn01Nv+8BP8RY6U/8t72013WXjIa2GVdMS4xr85cZpWvCrTIm7C30imfs7XkrYpp1FXSbLW/pRRNg4hUZe6bd9q5UWe2k7K2YXX3O9u31QlPKvk2cFvos2GAXD9Xm/bRl7yNdPEfp0fiYM7f9zpM2/AEAgMGkf12nLLiOlpu0/GuPuYmI+HXD0i8bXMMr3WNVy9/UAhOa0km51leafbN//U5cf8zKZf+965SNy/K6rNTXlhS7nlk+xyxYts9dp8ye6PrXDkt/bSn/elpnZ73Gk79M+q5noetu2daqTOOXIlUIg5LmbsKKPR4Rv7ZVeJuBxLbTPJaQPBaB1Gtbpb7WyHFz2/Gv0+bWJ7fvbj/95dMfs2zvQcZtGt7xsmXzw8cosi9unpFynS8rdHz9x9tjxynb56Dr/ev6c+ZLed9TrkGWuq201x9L81nLtt2ccZ0yAAD6nX538ehCS17HK9/Khsisly8e7QUJZQky6J5sIQd9FqEMAIB+px+PKSsEV86+aN0HUXzlJSjwAQAAABTOIA5lCzR7w1zVxC76jP7GFkj4Waz7GAAAANB/DMJQZsdjueuIaadWXzc//zL4yMlfLrtfHz/Q5N3+PNnNBFAEtsuw/137eOHl+oubCwAA+odBP6YMAAAAAEppkI8pAwAAAIDSIpQBAAAAQAkVrfsiAAAAAKBrtJQBAAAAQAkRygAAAACghAhlAAAAAFBCRQ5lt+lH125Ro71depubl85ftO65Zu19gKvrAAAAABhceqnQhw1n9Rr3+wbVvbbGzYu5vV1N17bp4AvVuvJJNw8AAAAABrhe6r64Ruvf7pTK/7P+3s1J8WSFHvr1EI279rjWzXLzAAAAAGCA690xZWeepXPd3XRWP3CWdraf1uULO7XAzQMAAACAgayPFfr4hOb9a6VUcUJzb3ezAAAAAGAA63vVF588QwfNj3EX/smfBgAAAIABrNdC2b92tLh7XfmUdh82Pz7zZ7owAgAAABjweq+l7KOT+qPG6qrPX+FmZHawdYhU8WeNc9MAAAAAMFD1Yij7lq59YbZ+WX6fd92yF3IIZwAAAAAw0PVeKDvz23rBhLGLjs1WnQln177zknsAAAAAAAavXgtlf/+58/VpHdIb77sZWYwbcVpq/6RX8AMAAAAABrLeaynL2Z80eYz58YdParU/AwAAAAAGrL4Xym7/WOM0RDsbPuVmAAAAAMDA1cdC2V+07u/bpMPlmrfVzQIAAACAAaxPhbIFD5zU5RW0kgEAAAAYPHoplN2m68eXSb9/Q0+6OSlub9f9Xzitgy8Mp5UMAAAAwKBR5FB2m3507RY1XluvcR/9Rv+/19a4+XF+t8WOX4/UlRlTGwAAAAAMPH9VXV39H+4+AAAAAKCX9b3qiwAAAAAwiBDKAAAAAKCECGUAAAAAUEKEMgAAAAAoIUIZAAAAAJQQoQwAAAAASoiS+H3NOd/WBf/j7/RpN6m23+iNJ76lP7nJAefmu3XhnBqpY7fevu1Z/bubjYHuT3rxly0aZ+8erlLNok95cwEAAAYjWsq69BU9fPszWjN1ipsusve/pbcenK1Xze3tw24ecvBf9Lnn/2+de995bhqF8tf3PagLn787+YeCHvuL1j1nApkNY1dVE8gAAMCgRyhDgfnh6MLv/hc33YVnHtebX/6ferPXWsnc/oVuBLleNutjTagYop0NhDEAAACLUIbBw3aVfH6OhjVt9oOguzXLzJvhlkHxjfuzyt1dAAAA9MqYsim6b97XdNGZblKn9caGO/Td4/7U1Kk/0tcnDJGObdG8zT/3Zxop84ffozXXnat3zXN/f+kzmjPSLfjRm/rhuse0w016vGUvlHm206zNT35La91UYp/azbpfOyey7On9P9ZtO3Ylt59BsFz+blPNsnqd7aakQ3r7wTvV4abCyudv0fizMo8p8x4f4yasww16de0aN5EUX+6Pr31Xb/3vl9yUEx/LlmW/srMtUS743Pf/d/PSCMaSBbIs/+nv/t8aG1r09Os/1Hvffde7b7vWjb8k8yl+ctkc98vJtk1/380R+sEf9Nk7J5vPTpMOfXmzzljzdX3O7kpiG/42tfl/6vjZ4f20yz+uP7opn9s/NyVz5H//g2U6sc1NGt4+yax7U5XO9bbrO2HW//tn3IQTPy6R/Te8x897T2/f1qLhoe2mHC9/dhrpXkOObm9X07X/rp3fG655W908AACAQazIocyOx5qtmlDg8sOOIsFs/hwbskJhLQhV4aAWDlqJ+ZnWb06Tt92sJW97s1LXHwmKofnjv611M6ojzw22MaLbISzk4h/osjljY+HJhLT55hQ3U5jKEMo+9V//RZ89/t/V9Fs3IwhVsWDmB7JowCqf/y/6m5f+uz58381wz1U4rNl5V/yb3kqzX9nlF36k8zTMhpmT6Zf3w1E0AHz6uw/qjE3RwBJsd0gsfCS4EJguwES5/Q8XHplxkx+Cgtfkressne44qQ9ue0sVdrsd5ui++xMT/280Yeik299QsEmsz71ehdbv9i1d2AzvbzIoJo+Hv5wiAS7lmLn9V5r1R8JfhmPkLxu8pgIglAEAAEQUtfvi1KkzVWNbqYJgZezY8aze+GiILrr0K26OtHbzj/15dfdoqg1MdSZ82Raw0PMSwkFNP9fm/aelkefL5BrjK5pjApltxUqGKrv+LeY0NrpNn21BS4ZDvX3ALCeNOKsYRT2u0NlT44HMWpM2kHXlT/87FMis97+lo7YwyJiLQl3DrtDfnGV+HH4j0uLVsTYUyKyqs/RpderEvlDrmS040o39KqzzdIbd/6a3ImHgj/fFA1nXPn2BTTNNas8ayGwAmW5ClAk04TFu255V8+vmCNaYxxLdHM1RfndzYr+G6D01J8LgWToj3B0yUlnyXZ14xXzKys9VubeMCWnTzb6ZwBcOk//+3Z/o92aTw6bfpL9283w2RCXD0b//+j2dNvvyqdFuhglgnzWrO7E5FKDc/g+5ZE5KsY4Tm0PH8pm3dML8GHI2Y+wAAAB6UxFD2RRNrR5iQtSBULdBa5d+325+VJxjAlhgl77b+KZOn3mhvn67bcE6rTcaY10SnabD0aC246TXtKbPDTc/xp9vQqDUejLeovVzvXXM/Ihs0/iozQthST/Xkidv7nmLWDrnXKFhldKHbxcv6PzpRKe7F3hJ/+ek+TGmXpfNv82flU7LSXMCX6aa//EvOvscN69PeFcf2/2vmZN74ZAeOU/l55mw1fGHZCBzUsKPCUenfh1qkTvZkvKcwOl3fx197Mgfkuua8QUNNZs8fSL6SbSvveNdk8rKPxMNZR3vqSNLIP3rL5zrdaeMh89//9AeyFhYzCGkFsN3LmyT2ofoJVrJAAAAPEUMZdWqtN0DR87WutufidwS48HCjj+mp2yrl3F6/7PJ1qu8nVab/XN/OmdWeqGtJFxr1P9pcdM9ZsembdFlodtFl5a5x5I61s7WG6+ZsGaDmVvugv96hXvU8crwN+hDL5gF6/tBqMWtdP543//U214rlQlmvVUtMUvAKlYr0ukPQwEvIh6ksvvrYfZdq9HYUHVJ7xYev1ci31nZrKZfNmvym9WqmVum1W4+AADAYFfEUNasto/MD9vd8MmbU2/x4hzjv+2PBTvWrCETvqaHx7v5hZTSMtaLXGvU31S56R5xxULshaXdNc3szQtfadiujv4y31VTm/TpS+9LDWa2G2Wwrs2HzPRYje8jwezfv7vMVUr8odelb8glX887mP37CfNEE1YqbvanuytzeCqWk/o4j66a/uu048mS1SWTt/y7fRbSPy0yYeyqau2+0ISz5zq1wM0HAAAY7IoYytJ1U8zkK3p4RrUX4JZs3qI3TJirmfFtN04su/ljzPM+ek87bMuaNyZsiM47Lz4m7Cu6YKQ5oW7elbZLZHZ+uBxSabbTE+//m2xkOnt8lm6Eubr4Iq9644c70ldlzOwlffiEC2bDxrp5afz2ThfMqvQ3faw744nbXDAbFm/5adKf0s73+d0PpWEXZOsG6boM1lyQMvYqU7fA7oisa9uvdcpsMnW/XFfK2Hi6rqTvptgzhV7nP71ZaX4vnNYVs9wMAACAQa6IoUxa+5obJzYnXmAjzFZCnB0qCOLGl6lac7I+zxj/ba8rZNOeoNXNL/wxZMJNus+OMXPmz/HX/1K3xoq5cDlyZmSd+VujD1w3wmgrla2+mGdQ81rdogHPVllM7b5o1n3XtxW5RK8b2/bHEzZ0+Wwlx5qL3YRTPt6Gthb9n3BBkF73X/S5NbFCF1nGYPnjz8LFOEISxTpSx6f99X13J57z7999RSds97/wMjNuUvUl5Tr9erKwR7elrMsV/jD79blQK95f33ejPlfeod9vyqWCZcgzm01oLdfn7rw7JVh2mxsD97mre2NcHwAAwODTC9cpc2Xr3VQgKDvvl6s3J9mxkvPpr1MWvvaYFb3mWSDlGmMp1zJzJfGV5hpnaYVL6Pu6fZ2yoCx+QrRcvQ1I6caGWZHri8XWYx87qK+b57ZEry+Wcv0x6cPNs6OVG42Ua57ZrpEZro+WXagMfFyoTH78OmBhkZLsQTl6N2llLmvvys2H+lzGr8+Vbn0py6R5DZFtupL4fil5t6x7bdES9emPRdr9d+Xok6KXAbC8Y3ZWuJKj4V7P6dg60x7f0PFPX+be39+0lxXIYf9yRkl8AACAiF4IZQXiQllr5BpiQF+WJeQMZoQyAACAiKJ2XwSAFAc/GbluHgAAwGBHKAPQu7Z+Uq06rcvr8+8cCwAAMBARygD0sk/pyquqdHBMi3fdsqaVhDMAADC49Z8xZQAAAAAwANFSBgAAAAAlRCgDAAAAgBIilAEAAABACRHKAAAAAKCECGUAAAAAUEKEMgAAAAAoIUIZAAAAAJQQoQwAAAAASohQBgAAAAAlRCgDAAAAgBIilAEAAABACRHKAAAAAKCECGUAAAAAUEKEMgAAAAAoIUIZAAAAAJQQoQwAAAAASohQBgAAAAAlRCgDAAAAgBIilAEAAABACRHKAAAAAKCECGUAAAAAUEKEMgAAAAAoIUIZAAAAAJQQoQwAAAAASohQBgAAAAAlRCgDAAAAgBIilAEAAABACRHKAAAAAKCECGUAAAAAUEJFDmV/0ou/bFaTva38k5sHAAAAAAj8VXV19X+4+0Vkw1mLxh2uUs2iT7l5AAAAAIBe6r74KT336yHSZ/6sBW4OAAAAAKC3x5RV/Fnj3F0AAAAAAIU+AAAAAKCkCGUAAAAAUEK9FspWf/DX7h4AAAAAINB7LWUHP6kOtWn2A39xMwAAAAAAvRfKtpZp0lXV2jLimHfdsr2EMwAAAADoreuUGbM6tfebJ9T6QrWufNLNAwAAAIBBrtdayhZMP61yVWo3gQwAAAAAEqi+CAAAAAAlRCgDAAAAgBIilAEAAABACRHKAAAAAKCEeimU/Ulzv3BaOnyG/snNAQAAAAAUPZT9SS/+sllNv2zRuPZhemjRp9x8AAAAAIDVe9cpAwAAAACkYEwZAAAAAJQQoQwAAAAASohQBgAAAAAlRCgDAAAAgBIilAEAAABACRHKAAAAAKCECGUAAAAAUEKEMgAAAAAoIUIZAAAAAJQQoQwAAAAASohQBgAAAAAlRCgDAAAAgBIilAEAAABACRHKAAAAAKCECGUAAAAAUEKEMgAAAAAoIUIZAAAAAJQQoQwAAAAASohQBgAAAAAlRCgDAAAAgBIilAEAAABACRHKAAAAAKCECGUAAAAAUEKEMgAAAAAoGen/A4nOBwrw7uixAAAAAElFTkSuQmCC;" vertex="1" parent="187">
                    <mxGeometry x="430" width="869" height="390" as="geometry"/>
                </mxCell>
                <mxCell id="170" value="" style="rounded=0;whiteSpace=wrap;html=1;labelBackgroundColor=none;strokeColor=#FFFFFF;strokeWidth=2;fontSize=14;fontColor=#000000;fillColor=none;" vertex="1" parent="187">
                    <mxGeometry x="437" y="78" width="805" height="33" as="geometry"/>
                </mxCell>
                <mxCell id="171" value="Se hace la importacion del hijo" style="rounded=0;whiteSpace=wrap;html=1;labelBackgroundColor=none;strokeColor=#B09500;strokeWidth=1;fontSize=17;fontColor=#000000;fillColor=#e3c800;fontStyle=1" vertex="1" parent="187">
                    <mxGeometry y="44" width="282" height="50" as="geometry"/>
                </mxCell>
                <mxCell id="175" style="edgeStyle=orthogonalEdgeStyle;html=1;strokeWidth=2;fontSize=17;fontColor=#0000FF;" edge="1" parent="187" source="170" target="171">
                    <mxGeometry relative="1" as="geometry"/>
                </mxCell>
                <mxCell id="176" style="edgeStyle=orthogonalEdgeStyle;html=1;entryX=1;entryY=0.5;entryDx=0;entryDy=0;strokeWidth=2;fontSize=17;fontColor=#0000FF;" edge="1" parent="187" source="172" target="171">
                    <mxGeometry relative="1" as="geometry">
                        <Array as="points">
                            <mxPoint x="361" y="215"/>
                            <mxPoint x="361" y="69"/>
                        </Array>
                    </mxGeometry>
                </mxCell>
                <mxCell id="172" value="" style="rounded=0;whiteSpace=wrap;html=1;labelBackgroundColor=none;strokeColor=#FFFFFF;strokeWidth=2;fontSize=14;fontColor=#000000;fillColor=none;" vertex="1" parent="187">
                    <mxGeometry x="465" y="203" width="415" height="23" as="geometry"/>
                </mxCell>
                <mxCell id="173" style="edgeStyle=orthogonalEdgeStyle;html=1;entryX=1;entryY=0.5;entryDx=0;entryDy=0;strokeWidth=2;fontSize=17;fontColor=#0000FF;exitX=1;exitY=0.5;exitDx=0;exitDy=0;shape=link;" edge="1" parent="187" source="170" target="172">
                    <mxGeometry relative="1" as="geometry">
                        <Array as="points">
                            <mxPoint x="1283" y="95"/>
                            <mxPoint x="1283" y="215"/>
                        </Array>
                    </mxGeometry>
                </mxCell>
                <mxCell id="174" value="" style="endArrow=classic;startArrow=classic;html=1;strokeWidth=2;fontSize=17;fontColor=#0000FF;entryX=0.257;entryY=0.97;entryDx=0;entryDy=0;entryPerimeter=0;exitX=0.686;exitY=0.014;exitDx=0;exitDy=0;exitPerimeter=0;" edge="1" parent="187" source="172" target="170">
                    <mxGeometry width="50" height="50" relative="1" as="geometry">
                        <mxPoint x="797" y="201" as="sourcePoint"/>
                        <mxPoint x="847" y="151" as="targetPoint"/>
                    </mxGeometry>
                </mxCell>
                <mxCell id="177" value="" style="rounded=0;whiteSpace=wrap;html=1;labelBackgroundColor=none;strokeColor=#FFFFFF;strokeWidth=2;fontSize=14;fontColor=#000000;fillColor=none;" vertex="1" parent="187">
                    <mxGeometry x="1417" y="105" width="131" height="23" as="geometry"/>
                </mxCell>
                <mxCell id="179" value="" style="rounded=0;whiteSpace=wrap;html=1;labelBackgroundColor=none;strokeColor=#33FF33;strokeWidth=2;fontSize=14;fontColor=#000000;fillColor=none;" vertex="1" parent="187">
                    <mxGeometry x="1548" y="151" width="676" height="23" as="geometry"/>
                </mxCell>
                <mxCell id="191" value="HTML componente padre" style="text;strokeColor=#3A5431;align=center;fillColor=#6d8764;html=1;verticalAlign=middle;whiteSpace=wrap;rounded=0;glass=0;labelBackgroundColor=none;strokeWidth=2;fontSize=17;fontColor=#ffffff;" vertex="1" parent="187">
                    <mxGeometry x="2051" y="211" width="212" height="35" as="geometry"/>
                </mxCell>
                <mxCell id="192" value="TS componente padre" style="text;strokeColor=#3A5431;align=center;fillColor=#6d8764;html=1;verticalAlign=middle;whiteSpace=wrap;rounded=0;glass=0;labelBackgroundColor=none;strokeWidth=2;fontSize=17;fontColor=#ffffff;" vertex="1" parent="187">
                    <mxGeometry x="1066" y="338" width="212" height="35" as="geometry"/>
                </mxCell>
                <mxCell id="178" style="edgeStyle=orthogonalEdgeStyle;html=1;strokeWidth=2;fontSize=17;fontColor=#0000FF;" edge="1" parent="1" source="177" target="143">
                    <mxGeometry relative="1" as="geometry">
                        <Array as="points">
                            <mxPoint x="-1603" y="3264"/>
                            <mxPoint x="-454" y="3264"/>
                            <mxPoint x="-454" y="3460"/>
                        </Array>
                    </mxGeometry>
                </mxCell>
                <mxCell id="180" style="edgeStyle=orthogonalEdgeStyle;html=1;strokeWidth=2;fontSize=17;fontColor=#0000FF;strokeColor=#33FF33;" edge="1" parent="1" source="179" target="156">
                    <mxGeometry relative="1" as="geometry">
                        <mxPoint x="529" y="3707.809523809524" as="targetPoint"/>
                        <Array as="points">
                            <mxPoint x="-1201" y="4162"/>
                            <mxPoint x="600" y="4162"/>
                        </Array>
                    </mxGeometry>
                </mxCell>
            </root>
        </mxGraphModel>
    </diagram>
</mxfile>